<mxfile host="Electron" modified="2024-04-07T12:22:14.926Z" agent="Mozilla/5.0 (Windows NT 10.0; Win64; x64) AppleWebKit/537.36 (KHTML, like Gecko) draw.io/24.1.0 Chrome/120.0.6099.109 Electron/28.1.0 Safari/537.36" etag="fNIy8_nzCiKGgoGXL4tQ" version="24.1.0" type="device">
  <diagram name="Page-1" id="TKJEguX6QiojixJGRYYx">
    <mxGraphModel dx="4193" dy="2245" grid="0" gridSize="10" guides="1" tooltips="1" connect="1" arrows="1" fold="1" page="0" pageScale="1" pageWidth="850" pageHeight="1100" math="0" shadow="0">
      <root>
        <mxCell id="0" />
        <mxCell id="1" parent="0" />
        <mxCell id="YfnxBZkM-dtaLULD4a4c-243" value="Unity" style="rounded=1;whiteSpace=wrap;html=1;verticalAlign=top;align=left;gradientColor=none;strokeColor=none;fontSize=50;fontStyle=3;spacing=150;glass=0;fillColor=#3E4A54;fontColor=#FFFFFF;" parent="1" vertex="1">
          <mxGeometry x="-2160" y="-350" width="3210" height="2640" as="geometry" />
        </mxCell>
        <mxCell id="vY6ipT4XKTIDUt76BxjS-81" value="Helper Classes" style="rounded=1;whiteSpace=wrap;html=1;verticalAlign=top;align=left;gradientColor=none;strokeColor=none;fontSize=50;fontStyle=3;spacing=50;glass=0;fillColor=#607382;fontColor=#FFFFFF;" parent="1" vertex="1">
          <mxGeometry x="-2090" y="201" width="520" height="1371" as="geometry" />
        </mxCell>
        <mxCell id="vY6ipT4XKTIDUt76BxjS-140" value="Listener Helpers" style="rounded=1;whiteSpace=wrap;html=1;verticalAlign=top;align=left;fontSize=20;fontStyle=1;spacing=15;fillColor=#4F5F6B;fillStyle=auto;strokeColor=none;fontColor=#FFFFFF;" parent="1" vertex="1">
          <mxGeometry x="-2060" y="1258" width="460" height="260" as="geometry" />
        </mxCell>
        <mxCell id="vY6ipT4XKTIDUt76BxjS-116" value="creating the data for the sensors" style="rounded=1;whiteSpace=wrap;html=1;verticalAlign=top;align=left;fontSize=20;fontStyle=1;spacing=20;fillColor=#4F5F6B;fillStyle=auto;strokeColor=none;fontColor=#FFFFFF;" parent="1" vertex="1">
          <mxGeometry x="-2060" y="320" width="460" height="330" as="geometry" />
        </mxCell>
        <mxCell id="vY6ipT4XKTIDUt76BxjS-52" value="Linking stuff together (dependant on unity)" style="rounded=1;whiteSpace=wrap;html=1;verticalAlign=top;align=left;gradientColor=none;strokeColor=none;fontSize=50;fontStyle=3;spacing=50;glass=0;fillColor=#607382;fontColor=#FFFFFF;spacingLeft=20;" parent="1" vertex="1">
          <mxGeometry x="-1540" y="840" width="1130" height="1390" as="geometry" />
        </mxCell>
        <mxCell id="vY6ipT4XKTIDUt76BxjS-51" value="Needed for retrieving data (isn&#39;t dependant on unity)" style="rounded=1;whiteSpace=wrap;html=1;verticalAlign=top;align=left;gradientColor=none;strokeColor=none;fontSize=50;fontStyle=3;spacing=50;glass=0;fillColor=#607382;fontColor=#FFFFFF;spacingLeft=50;" parent="1" vertex="1">
          <mxGeometry x="-350" y="-280" width="1260" height="2510" as="geometry" />
        </mxCell>
        <mxCell id="vY6ipT4XKTIDUt76BxjS-10" value="Raspberry Pi Simulator" style="rounded=1;whiteSpace=wrap;html=1;verticalAlign=top;align=left;gradientColor=none;strokeColor=none;fontSize=50;fontStyle=3;spacing=50;glass=0;fillColor=#3E4A54;fontColor=#FFFFFF;textShadow=0;spacingLeft=30;" parent="1" vertex="1">
          <mxGeometry x="2840" y="2210" width="490" height="715" as="geometry" />
        </mxCell>
        <mxCell id="ed8AZ3-YZBsXWsMalY9c-212" value="Python code" style="rounded=1;whiteSpace=wrap;html=1;verticalAlign=top;align=left;gradientColor=none;strokeColor=none;fontSize=50;fontStyle=3;spacing=50;glass=0;fillColor=#3E4A54;fontColor=#FFFFFF;textShadow=0;spacingLeft=30;" parent="1" vertex="1">
          <mxGeometry x="1370" y="2140" width="1320" height="1190" as="geometry" />
        </mxCell>
        <mxCell id="ed8AZ3-YZBsXWsMalY9c-279" value="Raspberry Pi Simulation" style="rounded=1;whiteSpace=wrap;html=1;verticalAlign=top;align=left;gradientColor=none;strokeColor=none;fontSize=20;fontStyle=1;spacing=20;glass=0;fillColor=#607382;fontColor=#FFFFFF;" parent="1" vertex="1">
          <mxGeometry x="1440" y="3030" width="470" height="250" as="geometry" />
        </mxCell>
        <mxCell id="ed8AZ3-YZBsXWsMalY9c-272" value="Testing Sending Data" style="rounded=1;whiteSpace=wrap;html=1;verticalAlign=top;align=left;gradientColor=none;strokeColor=none;fontSize=20;fontStyle=1;spacing=50;glass=0;fillColor=#607382;fontColor=#FFFFFF;" parent="1" vertex="1">
          <mxGeometry x="1440" y="2280" width="1043" height="670" as="geometry" />
        </mxCell>
        <mxCell id="ed8AZ3-YZBsXWsMalY9c-275" value="Main" style="rounded=1;whiteSpace=wrap;html=1;verticalAlign=top;align=left;gradientColor=none;strokeColor=none;fontSize=20;fontStyle=1;spacing=20;glass=0;fillColor=#4F5F6B;fontColor=#FFFFFF;" parent="1" vertex="1">
          <mxGeometry x="1460" y="2410" width="460" height="330" as="geometry" />
        </mxCell>
        <mxCell id="ed8AZ3-YZBsXWsMalY9c-274" value="Models" style="rounded=1;whiteSpace=wrap;html=1;verticalAlign=top;align=left;gradientColor=none;strokeColor=none;fontSize=20;fontStyle=1;spacing=20;glass=0;fillColor=#4F5F6B;fontColor=#FFFFFF;spacingTop=0;spacingBottom=0;spacingLeft=16;" parent="1" vertex="1">
          <mxGeometry x="1960" y="2330" width="490" height="600" as="geometry" />
        </mxCell>
        <mxCell id="ed8AZ3-YZBsXWsMalY9c-2" value="Azure" style="rounded=1;whiteSpace=wrap;html=1;verticalAlign=top;align=left;gradientColor=none;strokeColor=none;fontSize=50;fontStyle=3;spacing=75;glass=0;fillColor=#3E4A54;fontColor=#FFFFFF;textShadow=0;spacingTop=1;spacingLeft=50;" parent="1" vertex="1">
          <mxGeometry x="1420" y="240" width="2760" height="1683" as="geometry" />
        </mxCell>
        <mxCell id="ed8AZ3-YZBsXWsMalY9c-3" value="Function App" style="rounded=1;whiteSpace=wrap;html=1;verticalAlign=top;align=left;gradientColor=none;strokeColor=none;fontSize=20;fontStyle=1;spacing=100;glass=0;fillColor=#607382;fontColor=#FFFFFF;" parent="1" vertex="1">
          <mxGeometry x="1480" y="410" width="2140" height="1415" as="geometry" />
        </mxCell>
        <mxCell id="ed8AZ3-YZBsXWsMalY9c-210" value="Needed Info" style="rounded=1;whiteSpace=wrap;html=1;verticalAlign=top;align=left;gradientColor=none;strokeColor=none;fontSize=20;fontStyle=1;spacing=30;glass=0;fillColor=#4F5F6B;fontColor=#FFFFFF;spacingLeft=10;" parent="1" vertex="1">
          <mxGeometry x="1550" y="1100" width="480" height="660" as="geometry" />
        </mxCell>
        <mxCell id="ed8AZ3-YZBsXWsMalY9c-209" value="Models" style="rounded=1;whiteSpace=wrap;html=1;verticalAlign=top;align=left;gradientColor=none;strokeColor=none;fontSize=20;fontStyle=1;spacing=50;glass=0;fillColor=#4F5F6B;fontColor=#FFFFFF;" parent="1" vertex="1">
          <mxGeometry x="2590" y="520" width="980" height="816" as="geometry" />
        </mxCell>
        <mxCell id="ed8AZ3-YZBsXWsMalY9c-208" value="Functions" style="rounded=1;whiteSpace=wrap;html=1;verticalAlign=top;align=left;gradientColor=none;strokeColor=none;fontSize=20;fontStyle=1;spacing=25;glass=0;fillColor=#4F5F6B;fontColor=#FFFFFF;spacingLeft=25;" parent="1" vertex="1">
          <mxGeometry x="2050" y="430" width="480" height="1370" as="geometry" />
        </mxCell>
        <mxCell id="ed8AZ3-YZBsXWsMalY9c-192" value="Devices" style="rounded=1;whiteSpace=wrap;html=1;verticalAlign=top;align=left;gradientColor=none;strokeColor=none;fontSize=50;fontStyle=3;spacing=50;glass=0;fillColor=#3E4A54;fontColor=#FFFFFF;" parent="1" vertex="1">
          <mxGeometry x="4410" y="1040" width="750" height="790" as="geometry" />
        </mxCell>
        <mxCell id="YfnxBZkM-dtaLULD4a4c-46" value="Types (name of each type needs to be exact to a table name in database)" style="rounded=1;whiteSpace=wrap;html=1;verticalAlign=top;align=left;fontSize=20;fontStyle=1;spacing=42;fillColor=#4F5F6B;fillStyle=auto;strokeColor=none;fontColor=#FFFFFF;" parent="1" vertex="1">
          <mxGeometry x="-305" y="-80" width="1170" height="730" as="geometry" />
        </mxCell>
        <mxCell id="YfnxBZkM-dtaLULD4a4c-5" value="IDataHandler" style="swimlane;fontStyle=1;align=center;verticalAlign=top;childLayout=stackLayout;horizontal=1;startSize=26;horizontalStack=0;resizeParent=1;resizeParentMax=0;resizeLast=0;collapsible=1;marginBottom=0;whiteSpace=wrap;html=1;fillColor=#fa6800;fillStyle=auto;glass=0;rounded=0;swimlaneLine=1;labelBackgroundColor=none;fontColor=#000000;strokeColor=#C73500;" parent="1" vertex="1">
          <mxGeometry x="395" y="31" width="420" height="216" as="geometry" />
        </mxCell>
        <mxCell id="YfnxBZkM-dtaLULD4a4c-16" value="+ name: string" style="text;strokeColor=none;fillColor=none;align=left;verticalAlign=top;spacingLeft=4;spacingRight=4;overflow=hidden;rotatable=0;points=[[0,0.5],[1,0.5]];portConstraint=eastwest;whiteSpace=wrap;html=1;fontColor=#FFFFFF;" parent="YfnxBZkM-dtaLULD4a4c-5" vertex="1">
          <mxGeometry y="26" width="420" height="26" as="geometry" />
        </mxCell>
        <mxCell id="YfnxBZkM-dtaLULD4a4c-7" value="" style="line;strokeWidth=1;fillColor=none;align=left;verticalAlign=middle;spacingTop=-1;spacingLeft=3;spacingRight=3;rotatable=0;labelPosition=right;points=[];portConstraint=eastwest;strokeColor=inherit;fontColor=#FFFFFF;" parent="YfnxBZkM-dtaLULD4a4c-5" vertex="1">
          <mxGeometry y="52" width="420" height="8" as="geometry" />
        </mxCell>
        <mxCell id="YfnxBZkM-dtaLULD4a4c-8" value="+ FillData(): abstract void" style="text;strokeColor=none;fillColor=none;align=left;verticalAlign=top;spacingLeft=4;spacingRight=4;overflow=hidden;rotatable=0;points=[[0,0.5],[1,0.5]];portConstraint=eastwest;whiteSpace=wrap;html=1;fontColor=#FFFFFF;" parent="YfnxBZkM-dtaLULD4a4c-5" vertex="1">
          <mxGeometry y="60" width="420" height="26" as="geometry" />
        </mxCell>
        <mxCell id="YfnxBZkM-dtaLULD4a4c-10" value="+ CreateDefaultData(): abstract void" style="text;align=left;verticalAlign=top;spacingLeft=4;spacingRight=4;overflow=hidden;rotatable=0;points=[[0,0.5],[1,0.5]];portConstraint=eastwest;whiteSpace=wrap;html=1;fontColor=#FFFFFF;" parent="YfnxBZkM-dtaLULD4a4c-5" vertex="1">
          <mxGeometry y="86" width="420" height="26" as="geometry" />
        </mxCell>
        <mxCell id="YfnxBZkM-dtaLULD4a4c-11" value="+ TurnDataIntoDictionary(): abstract Dictionary&amp;lt;string, string&amp;gt;" style="text;strokeColor=none;fillColor=none;align=left;verticalAlign=top;spacingLeft=4;spacingRight=4;overflow=hidden;rotatable=0;points=[[0,0.5],[1,0.5]];portConstraint=eastwest;whiteSpace=wrap;html=1;fontColor=#FFFFFF;" parent="YfnxBZkM-dtaLULD4a4c-5" vertex="1">
          <mxGeometry y="112" width="420" height="26" as="geometry" />
        </mxCell>
        <mxCell id="vY6ipT4XKTIDUt76BxjS-150" value="+ BuildTask(): IDataHandler" style="text;strokeColor=none;fillColor=none;align=left;verticalAlign=top;spacingLeft=4;spacingRight=4;overflow=hidden;rotatable=0;points=[[0,0.5],[1,0.5]];portConstraint=eastwest;whiteSpace=wrap;html=1;fontColor=#FFFFFF;" parent="YfnxBZkM-dtaLULD4a4c-5" vertex="1">
          <mxGeometry y="138" width="420" height="26" as="geometry" />
        </mxCell>
        <mxCell id="vY6ipT4XKTIDUt76BxjS-151" value="+ TurnIntoDictionary(): Dictionary&amp;lt;string, string&amp;gt;" style="text;strokeColor=none;fillColor=none;align=left;verticalAlign=top;spacingLeft=4;spacingRight=4;overflow=hidden;rotatable=0;points=[[0,0.5],[1,0.5]];portConstraint=eastwest;whiteSpace=wrap;html=1;fontColor=#FFFFFF;" parent="YfnxBZkM-dtaLULD4a4c-5" vertex="1">
          <mxGeometry y="164" width="420" height="26" as="geometry" />
        </mxCell>
        <mxCell id="vY6ipT4XKTIDUt76BxjS-152" value="+ BuildRandomInstance(): IDataHandler" style="text;strokeColor=none;fillColor=none;align=left;verticalAlign=top;spacingLeft=4;spacingRight=4;overflow=hidden;rotatable=0;points=[[0,0.5],[1,0.5]];portConstraint=eastwest;whiteSpace=wrap;html=1;fontColor=#FFFFFF;" parent="YfnxBZkM-dtaLULD4a4c-5" vertex="1">
          <mxGeometry y="190" width="420" height="26" as="geometry" />
        </mxCell>
        <mxCell id="YfnxBZkM-dtaLULD4a4c-17" value="Sensor" style="swimlane;fontStyle=1;align=center;verticalAlign=top;childLayout=stackLayout;horizontal=1;startSize=26;horizontalStack=0;resizeParent=1;resizeParentMax=0;resizeLast=0;collapsible=1;marginBottom=0;whiteSpace=wrap;html=1;fillColor=#008a00;fillStyle=auto;glass=0;rounded=0;swimlaneLine=1;labelBackgroundColor=none;fontColor=#FFFFFF;strokeColor=#005700;" parent="1" vertex="1">
          <mxGeometry x="-165" y="210" width="420" height="164" as="geometry" />
        </mxCell>
        <mxCell id="YfnxBZkM-dtaLULD4a4c-26" value="- data: Dictionary&amp;lt;string, string&amp;gt;" style="text;strokeColor=none;fillColor=none;align=left;verticalAlign=top;spacingLeft=4;spacingRight=4;overflow=hidden;rotatable=0;points=[[0,0.5],[1,0.5]];portConstraint=eastwest;whiteSpace=wrap;html=1;fontColor=#FFFFFF;" parent="YfnxBZkM-dtaLULD4a4c-17" vertex="1">
          <mxGeometry y="26" width="420" height="26" as="geometry" />
        </mxCell>
        <mxCell id="YfnxBZkM-dtaLULD4a4c-18" value="+ name: string" style="text;strokeColor=none;fillColor=none;align=left;verticalAlign=top;spacingLeft=4;spacingRight=4;overflow=hidden;rotatable=0;points=[[0,0.5],[1,0.5]];portConstraint=eastwest;whiteSpace=wrap;html=1;fontColor=#FFFFFF;" parent="YfnxBZkM-dtaLULD4a4c-17" vertex="1">
          <mxGeometry y="52" width="420" height="26" as="geometry" />
        </mxCell>
        <mxCell id="YfnxBZkM-dtaLULD4a4c-19" value="" style="line;strokeWidth=1;fillColor=none;align=left;verticalAlign=middle;spacingTop=-1;spacingLeft=3;spacingRight=3;rotatable=0;labelPosition=right;points=[];portConstraint=eastwest;strokeColor=inherit;fontColor=#FFFFFF;" parent="YfnxBZkM-dtaLULD4a4c-17" vertex="1">
          <mxGeometry y="78" width="420" height="8" as="geometry" />
        </mxCell>
        <mxCell id="YfnxBZkM-dtaLULD4a4c-20" value="+ FillData(): void" style="text;strokeColor=none;fillColor=none;align=left;verticalAlign=top;spacingLeft=4;spacingRight=4;overflow=hidden;rotatable=0;points=[[0,0.5],[1,0.5]];portConstraint=eastwest;whiteSpace=wrap;html=1;fontColor=#FFFFFF;" parent="YfnxBZkM-dtaLULD4a4c-17" vertex="1">
          <mxGeometry y="86" width="420" height="26" as="geometry" />
        </mxCell>
        <mxCell id="YfnxBZkM-dtaLULD4a4c-21" value="+ CreateDefaultData(): void" style="text;align=left;verticalAlign=top;spacingLeft=4;spacingRight=4;overflow=hidden;rotatable=0;points=[[0,0.5],[1,0.5]];portConstraint=eastwest;whiteSpace=wrap;html=1;fontColor=#FFFFFF;" parent="YfnxBZkM-dtaLULD4a4c-17" vertex="1">
          <mxGeometry y="112" width="420" height="26" as="geometry" />
        </mxCell>
        <mxCell id="YfnxBZkM-dtaLULD4a4c-22" value="+ TurnDataIntoDictionary(): Dictionary&amp;lt;string, string&amp;gt;" style="text;strokeColor=none;fillColor=none;align=left;verticalAlign=top;spacingLeft=4;spacingRight=4;overflow=hidden;rotatable=0;points=[[0,0.5],[1,0.5]];portConstraint=eastwest;whiteSpace=wrap;html=1;fontColor=#FFFFFF;" parent="YfnxBZkM-dtaLULD4a4c-17" vertex="1">
          <mxGeometry y="138" width="420" height="26" as="geometry" />
        </mxCell>
        <mxCell id="YfnxBZkM-dtaLULD4a4c-27" value="TelemetryData" style="swimlane;fontStyle=1;align=center;verticalAlign=top;childLayout=stackLayout;horizontal=1;startSize=26;horizontalStack=0;resizeParent=1;resizeParentMax=0;resizeLast=0;collapsible=1;marginBottom=0;whiteSpace=wrap;html=1;fillColor=#008a00;fillStyle=auto;glass=0;rounded=0;swimlaneLine=1;labelBackgroundColor=none;fontColor=#FFFFFF;strokeColor=#005700;" parent="1" vertex="1">
          <mxGeometry x="-165" y="31" width="420" height="164" as="geometry" />
        </mxCell>
        <mxCell id="YfnxBZkM-dtaLULD4a4c-28" value="- data: Dictionary&amp;lt;string, string&amp;gt;" style="text;strokeColor=none;fillColor=none;align=left;verticalAlign=top;spacingLeft=4;spacingRight=4;overflow=hidden;rotatable=0;points=[[0,0.5],[1,0.5]];portConstraint=eastwest;whiteSpace=wrap;html=1;fontColor=#FFFFFF;" parent="YfnxBZkM-dtaLULD4a4c-27" vertex="1">
          <mxGeometry y="26" width="420" height="26" as="geometry" />
        </mxCell>
        <mxCell id="YfnxBZkM-dtaLULD4a4c-29" value="+ name: string" style="text;strokeColor=none;fillColor=none;align=left;verticalAlign=top;spacingLeft=4;spacingRight=4;overflow=hidden;rotatable=0;points=[[0,0.5],[1,0.5]];portConstraint=eastwest;whiteSpace=wrap;html=1;fontColor=#FFFFFF;" parent="YfnxBZkM-dtaLULD4a4c-27" vertex="1">
          <mxGeometry y="52" width="420" height="26" as="geometry" />
        </mxCell>
        <mxCell id="YfnxBZkM-dtaLULD4a4c-30" value="" style="line;strokeWidth=1;fillColor=none;align=left;verticalAlign=middle;spacingTop=-1;spacingLeft=3;spacingRight=3;rotatable=0;labelPosition=right;points=[];portConstraint=eastwest;strokeColor=inherit;fontColor=#FFFFFF;" parent="YfnxBZkM-dtaLULD4a4c-27" vertex="1">
          <mxGeometry y="78" width="420" height="8" as="geometry" />
        </mxCell>
        <mxCell id="YfnxBZkM-dtaLULD4a4c-31" value="+ FillData(): void" style="text;strokeColor=none;fillColor=none;align=left;verticalAlign=top;spacingLeft=4;spacingRight=4;overflow=hidden;rotatable=0;points=[[0,0.5],[1,0.5]];portConstraint=eastwest;whiteSpace=wrap;html=1;fontColor=#FFFFFF;" parent="YfnxBZkM-dtaLULD4a4c-27" vertex="1">
          <mxGeometry y="86" width="420" height="26" as="geometry" />
        </mxCell>
        <mxCell id="YfnxBZkM-dtaLULD4a4c-32" value="+ CreateDefaultData(): void" style="text;align=left;verticalAlign=top;spacingLeft=4;spacingRight=4;overflow=hidden;rotatable=0;points=[[0,0.5],[1,0.5]];portConstraint=eastwest;whiteSpace=wrap;html=1;fontColor=#FFFFFF;" parent="YfnxBZkM-dtaLULD4a4c-27" vertex="1">
          <mxGeometry y="112" width="420" height="26" as="geometry" />
        </mxCell>
        <mxCell id="YfnxBZkM-dtaLULD4a4c-33" value="+ TurnDataIntoDictionary(): Dictionary&amp;lt;string, string&amp;gt;" style="text;strokeColor=none;fillColor=none;align=left;verticalAlign=top;spacingLeft=4;spacingRight=4;overflow=hidden;rotatable=0;points=[[0,0.5],[1,0.5]];portConstraint=eastwest;whiteSpace=wrap;html=1;fontColor=#FFFFFF;" parent="YfnxBZkM-dtaLULD4a4c-27" vertex="1">
          <mxGeometry y="138" width="420" height="26" as="geometry" />
        </mxCell>
        <mxCell id="YfnxBZkM-dtaLULD4a4c-34" value="Plant" style="swimlane;fontStyle=1;align=center;verticalAlign=top;childLayout=stackLayout;horizontal=1;startSize=26;horizontalStack=0;resizeParent=1;resizeParentMax=0;resizeLast=0;collapsible=1;marginBottom=0;whiteSpace=wrap;html=1;fillColor=#008a00;fillStyle=auto;glass=0;rounded=0;swimlaneLine=1;labelBackgroundColor=none;fontColor=#FFFFFF;strokeColor=#005700;" parent="1" vertex="1">
          <mxGeometry x="-165" y="390" width="420" height="190" as="geometry" />
        </mxCell>
        <mxCell id="YfnxBZkM-dtaLULD4a4c-36" value="+ name: string" style="text;strokeColor=none;fillColor=none;align=left;verticalAlign=top;spacingLeft=4;spacingRight=4;overflow=hidden;rotatable=0;points=[[0,0.5],[1,0.5]];portConstraint=eastwest;whiteSpace=wrap;html=1;fontColor=#FFFFFF;" parent="YfnxBZkM-dtaLULD4a4c-34" vertex="1">
          <mxGeometry y="26" width="420" height="26" as="geometry" />
        </mxCell>
        <mxCell id="YfnxBZkM-dtaLULD4a4c-45" value="+ scale: float" style="text;strokeColor=none;fillColor=none;align=left;verticalAlign=top;spacingLeft=4;spacingRight=4;overflow=hidden;rotatable=0;points=[[0,0.5],[1,0.5]];portConstraint=eastwest;whiteSpace=wrap;html=1;fontColor=#FFFFFF;" parent="YfnxBZkM-dtaLULD4a4c-34" vertex="1">
          <mxGeometry y="52" width="420" height="26" as="geometry" />
        </mxCell>
        <mxCell id="YfnxBZkM-dtaLULD4a4c-44" value="+ fruiting: bool" style="text;strokeColor=none;fillColor=none;align=left;verticalAlign=top;spacingLeft=4;spacingRight=4;overflow=hidden;rotatable=0;points=[[0,0.5],[1,0.5]];portConstraint=eastwest;whiteSpace=wrap;html=1;fontColor=#FFFFFF;" parent="YfnxBZkM-dtaLULD4a4c-34" vertex="1">
          <mxGeometry y="78" width="420" height="26" as="geometry" />
        </mxCell>
        <mxCell id="YfnxBZkM-dtaLULD4a4c-37" value="" style="line;strokeWidth=1;fillColor=none;align=left;verticalAlign=middle;spacingTop=-1;spacingLeft=3;spacingRight=3;rotatable=0;labelPosition=right;points=[];portConstraint=eastwest;strokeColor=inherit;fontColor=#FFFFFF;" parent="YfnxBZkM-dtaLULD4a4c-34" vertex="1">
          <mxGeometry y="104" width="420" height="8" as="geometry" />
        </mxCell>
        <mxCell id="YfnxBZkM-dtaLULD4a4c-38" value="+ FillData(): void" style="text;strokeColor=none;fillColor=none;align=left;verticalAlign=top;spacingLeft=4;spacingRight=4;overflow=hidden;rotatable=0;points=[[0,0.5],[1,0.5]];portConstraint=eastwest;whiteSpace=wrap;html=1;fontColor=#FFFFFF;" parent="YfnxBZkM-dtaLULD4a4c-34" vertex="1">
          <mxGeometry y="112" width="420" height="26" as="geometry" />
        </mxCell>
        <mxCell id="YfnxBZkM-dtaLULD4a4c-39" value="+ CreateDefaultData(): void" style="text;align=left;verticalAlign=top;spacingLeft=4;spacingRight=4;overflow=hidden;rotatable=0;points=[[0,0.5],[1,0.5]];portConstraint=eastwest;whiteSpace=wrap;html=1;fontColor=#FFFFFF;" parent="YfnxBZkM-dtaLULD4a4c-34" vertex="1">
          <mxGeometry y="138" width="420" height="26" as="geometry" />
        </mxCell>
        <mxCell id="YfnxBZkM-dtaLULD4a4c-40" value="+ TurnDataIntoDictionary(): Dictionary&amp;lt;string, string&amp;gt;" style="text;strokeColor=none;fillColor=none;align=left;verticalAlign=top;spacingLeft=4;spacingRight=4;overflow=hidden;rotatable=0;points=[[0,0.5],[1,0.5]];portConstraint=eastwest;whiteSpace=wrap;html=1;fontColor=#FFFFFF;" parent="YfnxBZkM-dtaLULD4a4c-34" vertex="1">
          <mxGeometry y="164" width="420" height="26" as="geometry" />
        </mxCell>
        <mxCell id="YfnxBZkM-dtaLULD4a4c-80" value="Interactors (acts as a choke point for unity classes to go through so there isnt multiple calls)" style="rounded=1;whiteSpace=wrap;html=1;verticalAlign=top;align=left;fontSize=20;fontStyle=1;spacing=42;fillColor=#4F5F6B;fillStyle=auto;strokeColor=none;fontColor=#FFFFFF;" parent="1" vertex="1">
          <mxGeometry x="-1450" y="1033" width="960" height="840" as="geometry" />
        </mxCell>
        <mxCell id="YfnxBZkM-dtaLULD4a4c-81" value="Interactor_AzureDB" style="swimlane;fontStyle=1;align=center;verticalAlign=top;childLayout=stackLayout;horizontal=1;startSize=26;horizontalStack=0;resizeParent=1;resizeParentMax=0;resizeLast=0;collapsible=1;marginBottom=0;whiteSpace=wrap;html=1;fillColor=#e3c800;fillStyle=auto;glass=0;rounded=0;swimlaneLine=1;labelBackgroundColor=none;fontColor=#000000;strokeColor=#B09500;" parent="1" vertex="1">
          <mxGeometry x="-940" y="1161" width="420" height="138" as="geometry" />
        </mxCell>
        <mxCell id="YfnxBZkM-dtaLULD4a4c-82" value="+ dataRetrieval: DRInteractor&amp;lt;IDataHandler&amp;gt;" style="text;strokeColor=none;fillColor=none;align=left;verticalAlign=top;spacingLeft=4;spacingRight=4;overflow=hidden;rotatable=0;points=[[0,0.5],[1,0.5]];portConstraint=eastwest;whiteSpace=wrap;html=1;fontColor=#FFFFFF;" parent="YfnxBZkM-dtaLULD4a4c-81" vertex="1">
          <mxGeometry y="26" width="420" height="26" as="geometry" />
        </mxCell>
        <mxCell id="YfnxBZkM-dtaLULD4a4c-83" value="+ azureAccount: AzureFunctionAccess" style="text;strokeColor=none;fillColor=none;align=left;verticalAlign=top;spacingLeft=4;spacingRight=4;overflow=hidden;rotatable=0;points=[[0,0.5],[1,0.5]];portConstraint=eastwest;whiteSpace=wrap;html=1;fontColor=#FFFFFF;" parent="YfnxBZkM-dtaLULD4a4c-81" vertex="1">
          <mxGeometry y="52" width="420" height="26" as="geometry" />
        </mxCell>
        <mxCell id="YfnxBZkM-dtaLULD4a4c-91" value="+ errorText: Action" style="text;strokeColor=none;fillColor=none;align=left;verticalAlign=top;spacingLeft=4;spacingRight=4;overflow=hidden;rotatable=0;points=[[0,0.5],[1,0.5]];portConstraint=eastwest;whiteSpace=wrap;html=1;fontColor=#FFFFFF;" parent="YfnxBZkM-dtaLULD4a4c-81" vertex="1">
          <mxGeometry y="78" width="420" height="26" as="geometry" />
        </mxCell>
        <mxCell id="YfnxBZkM-dtaLULD4a4c-84" value="" style="line;strokeWidth=1;fillColor=none;align=left;verticalAlign=middle;spacingTop=-1;spacingLeft=3;spacingRight=3;rotatable=0;labelPosition=right;points=[];portConstraint=eastwest;strokeColor=inherit;fontColor=#FFFFFF;" parent="YfnxBZkM-dtaLULD4a4c-81" vertex="1">
          <mxGeometry y="104" width="420" height="8" as="geometry" />
        </mxCell>
        <mxCell id="YfnxBZkM-dtaLULD4a4c-85" value="- CreateDataRetrieval(): void" style="text;strokeColor=none;fillColor=none;align=left;verticalAlign=top;spacingLeft=4;spacingRight=4;overflow=hidden;rotatable=0;points=[[0,0.5],[1,0.5]];portConstraint=eastwest;whiteSpace=wrap;html=1;fontColor=#FFFFFF;" parent="YfnxBZkM-dtaLULD4a4c-81" vertex="1">
          <mxGeometry y="112" width="420" height="26" as="geometry" />
        </mxCell>
        <mxCell id="YfnxBZkM-dtaLULD4a4c-88" value="" style="endArrow=classic;html=1;rounded=0;exitX=0;exitY=0.5;exitDx=0;exitDy=0;entryX=1;entryY=0.5;entryDx=0;entryDy=0;fontColor=#FFFFFF;" parent="1" source="YfnxBZkM-dtaLULD4a4c-16" target="YfnxBZkM-dtaLULD4a4c-28" edge="1">
          <mxGeometry width="50" height="50" relative="1" as="geometry">
            <mxPoint x="395" y="380" as="sourcePoint" />
            <mxPoint x="445" y="330" as="targetPoint" />
          </mxGeometry>
        </mxCell>
        <mxCell id="YfnxBZkM-dtaLULD4a4c-89" value="" style="endArrow=classic;html=1;rounded=0;entryX=1;entryY=0.5;entryDx=0;entryDy=0;exitX=0;exitY=0.5;exitDx=0;exitDy=0;fontColor=#FFFFFF;" parent="1" target="YfnxBZkM-dtaLULD4a4c-26" edge="1">
          <mxGeometry width="50" height="50" relative="1" as="geometry">
            <mxPoint x="395" y="96" as="sourcePoint" />
            <mxPoint x="475" y="240" as="targetPoint" />
            <Array as="points">
              <mxPoint x="295" y="96" />
              <mxPoint x="295" y="249" />
            </Array>
          </mxGeometry>
        </mxCell>
        <mxCell id="YfnxBZkM-dtaLULD4a4c-90" value="" style="endArrow=classic;html=1;rounded=0;exitX=0;exitY=0.5;exitDx=0;exitDy=0;entryX=1;entryY=0.5;entryDx=0;entryDy=0;fontColor=#FFFFFF;" parent="1" source="YfnxBZkM-dtaLULD4a4c-10" target="YfnxBZkM-dtaLULD4a4c-36" edge="1">
          <mxGeometry width="50" height="50" relative="1" as="geometry">
            <mxPoint x="395" y="96" as="sourcePoint" />
            <mxPoint x="265" y="80" as="targetPoint" />
            <Array as="points">
              <mxPoint x="325" y="130" />
              <mxPoint x="325" y="430" />
            </Array>
          </mxGeometry>
        </mxCell>
        <mxCell id="YfnxBZkM-dtaLULD4a4c-92" value="Interactor_Dummy" style="swimlane;fontStyle=1;align=center;verticalAlign=top;childLayout=stackLayout;horizontal=1;startSize=26;horizontalStack=0;resizeParent=1;resizeParentMax=0;resizeLast=0;collapsible=1;marginBottom=0;whiteSpace=wrap;html=1;fillColor=#e3c800;fillStyle=auto;glass=0;rounded=0;swimlaneLine=1;labelBackgroundColor=none;fontColor=#000000;strokeColor=#B09500;" parent="1" vertex="1">
          <mxGeometry x="-940" y="1311" width="420" height="164" as="geometry" />
        </mxCell>
        <mxCell id="YfnxBZkM-dtaLULD4a4c-93" value="+ dataRetrieval: DRInteractor&amp;lt;IDataHandler&amp;gt;" style="text;strokeColor=none;fillColor=none;align=left;verticalAlign=top;spacingLeft=4;spacingRight=4;overflow=hidden;rotatable=0;points=[[0,0.5],[1,0.5]];portConstraint=eastwest;whiteSpace=wrap;html=1;fontColor=#FFFFFF;" parent="YfnxBZkM-dtaLULD4a4c-92" vertex="1">
          <mxGeometry y="26" width="420" height="26" as="geometry" />
        </mxCell>
        <mxCell id="YfnxBZkM-dtaLULD4a4c-94" value="+ initialDelay: int" style="text;strokeColor=none;fillColor=none;align=left;verticalAlign=top;spacingLeft=4;spacingRight=4;overflow=hidden;rotatable=0;points=[[0,0.5],[1,0.5]];portConstraint=eastwest;whiteSpace=wrap;html=1;fontColor=#FFFFFF;" parent="YfnxBZkM-dtaLULD4a4c-92" vertex="1">
          <mxGeometry y="52" width="420" height="26" as="geometry" />
        </mxCell>
        <mxCell id="YfnxBZkM-dtaLULD4a4c-95" value="+ delayInbetweenCalls: int" style="text;strokeColor=none;fillColor=none;align=left;verticalAlign=top;spacingLeft=4;spacingRight=4;overflow=hidden;rotatable=0;points=[[0,0.5],[1,0.5]];portConstraint=eastwest;whiteSpace=wrap;html=1;fontColor=#FFFFFF;" parent="YfnxBZkM-dtaLULD4a4c-92" vertex="1">
          <mxGeometry y="78" width="420" height="26" as="geometry" />
        </mxCell>
        <mxCell id="YfnxBZkM-dtaLULD4a4c-98" value="+ numberOfInstancesPerType: int" style="text;strokeColor=none;fillColor=none;align=left;verticalAlign=top;spacingLeft=4;spacingRight=4;overflow=hidden;rotatable=0;points=[[0,0.5],[1,0.5]];portConstraint=eastwest;whiteSpace=wrap;html=1;fontColor=#FFFFFF;" parent="YfnxBZkM-dtaLULD4a4c-92" vertex="1">
          <mxGeometry y="104" width="420" height="26" as="geometry" />
        </mxCell>
        <mxCell id="YfnxBZkM-dtaLULD4a4c-96" value="" style="line;strokeWidth=1;fillColor=none;align=left;verticalAlign=middle;spacingTop=-1;spacingLeft=3;spacingRight=3;rotatable=0;labelPosition=right;points=[];portConstraint=eastwest;strokeColor=inherit;fontColor=#FFFFFF;" parent="YfnxBZkM-dtaLULD4a4c-92" vertex="1">
          <mxGeometry y="130" width="420" height="8" as="geometry" />
        </mxCell>
        <mxCell id="YfnxBZkM-dtaLULD4a4c-97" value="- CreateDataRetrieval(): void" style="text;strokeColor=none;fillColor=none;align=left;verticalAlign=top;spacingLeft=4;spacingRight=4;overflow=hidden;rotatable=0;points=[[0,0.5],[1,0.5]];portConstraint=eastwest;whiteSpace=wrap;html=1;fontColor=#FFFFFF;" parent="YfnxBZkM-dtaLULD4a4c-92" vertex="1">
          <mxGeometry y="138" width="420" height="26" as="geometry" />
        </mxCell>
        <mxCell id="YfnxBZkM-dtaLULD4a4c-99" value="Interactor_Network" style="swimlane;fontStyle=1;align=center;verticalAlign=top;childLayout=stackLayout;horizontal=1;startSize=26;horizontalStack=0;resizeParent=1;resizeParentMax=0;resizeLast=0;collapsible=1;marginBottom=0;whiteSpace=wrap;html=1;fillColor=#e3c800;fillStyle=auto;glass=0;rounded=0;swimlaneLine=1;labelBackgroundColor=none;fontColor=#000000;strokeColor=#B09500;" parent="1" vertex="1">
          <mxGeometry x="-940" y="1491" width="420" height="164" as="geometry" />
        </mxCell>
        <mxCell id="YfnxBZkM-dtaLULD4a4c-100" value="+ dataRetrieval: DRInteractor&amp;lt;IDataHandler&amp;gt;" style="text;strokeColor=none;fillColor=none;align=left;verticalAlign=top;spacingLeft=4;spacingRight=4;overflow=hidden;rotatable=0;points=[[0,0.5],[1,0.5]];portConstraint=eastwest;whiteSpace=wrap;html=1;fontColor=#FFFFFF;" parent="YfnxBZkM-dtaLULD4a4c-99" vertex="1">
          <mxGeometry y="26" width="420" height="26" as="geometry" />
        </mxCell>
        <mxCell id="YfnxBZkM-dtaLULD4a4c-101" value="+ initialDelay: int" style="text;strokeColor=none;fillColor=none;align=left;verticalAlign=top;spacingLeft=4;spacingRight=4;overflow=hidden;rotatable=0;points=[[0,0.5],[1,0.5]];portConstraint=eastwest;whiteSpace=wrap;html=1;fontColor=#FFFFFF;" parent="YfnxBZkM-dtaLULD4a4c-99" vertex="1">
          <mxGeometry y="52" width="420" height="26" as="geometry" />
        </mxCell>
        <mxCell id="YfnxBZkM-dtaLULD4a4c-102" value="+ delayInbetweenCalls: int" style="text;strokeColor=none;fillColor=none;align=left;verticalAlign=top;spacingLeft=4;spacingRight=4;overflow=hidden;rotatable=0;points=[[0,0.5],[1,0.5]];portConstraint=eastwest;whiteSpace=wrap;html=1;fontColor=#FFFFFF;" parent="YfnxBZkM-dtaLULD4a4c-99" vertex="1">
          <mxGeometry y="78" width="420" height="26" as="geometry" />
        </mxCell>
        <mxCell id="YfnxBZkM-dtaLULD4a4c-103" value="+ networkData: NetworkData" style="text;strokeColor=none;fillColor=none;align=left;verticalAlign=top;spacingLeft=4;spacingRight=4;overflow=hidden;rotatable=0;points=[[0,0.5],[1,0.5]];portConstraint=eastwest;whiteSpace=wrap;html=1;fontColor=#FFFFFF;" parent="YfnxBZkM-dtaLULD4a4c-99" vertex="1">
          <mxGeometry y="104" width="420" height="26" as="geometry" />
        </mxCell>
        <mxCell id="YfnxBZkM-dtaLULD4a4c-104" value="" style="line;strokeWidth=1;fillColor=none;align=left;verticalAlign=middle;spacingTop=-1;spacingLeft=3;spacingRight=3;rotatable=0;labelPosition=right;points=[];portConstraint=eastwest;strokeColor=inherit;fontColor=#FFFFFF;" parent="YfnxBZkM-dtaLULD4a4c-99" vertex="1">
          <mxGeometry y="130" width="420" height="8" as="geometry" />
        </mxCell>
        <mxCell id="YfnxBZkM-dtaLULD4a4c-105" value="- CreateDataRetrieval(): void" style="text;strokeColor=none;fillColor=none;align=left;verticalAlign=top;spacingLeft=4;spacingRight=4;overflow=hidden;rotatable=0;points=[[0,0.5],[1,0.5]];portConstraint=eastwest;whiteSpace=wrap;html=1;fontColor=#FFFFFF;" parent="YfnxBZkM-dtaLULD4a4c-99" vertex="1">
          <mxGeometry y="138" width="420" height="26" as="geometry" />
        </mxCell>
        <mxCell id="YfnxBZkM-dtaLULD4a4c-106" value="Interator_AzureCommand" style="swimlane;fontStyle=1;align=center;verticalAlign=top;childLayout=stackLayout;horizontal=1;startSize=26;horizontalStack=0;resizeParent=1;resizeParentMax=0;resizeLast=0;collapsible=1;marginBottom=0;whiteSpace=wrap;html=1;fillColor=#e3c800;fillStyle=auto;glass=0;rounded=0;swimlaneLine=1;labelBackgroundColor=none;fontColor=#000000;strokeColor=#B09500;" parent="1" vertex="1">
          <mxGeometry x="-940" y="1671" width="420" height="112" as="geometry" />
        </mxCell>
        <mxCell id="YfnxBZkM-dtaLULD4a4c-108" value="+ azureAccount: AzureFunctionAccess" style="text;strokeColor=none;fillColor=none;align=left;verticalAlign=top;spacingLeft=4;spacingRight=4;overflow=hidden;rotatable=0;points=[[0,0.5],[1,0.5]];portConstraint=eastwest;whiteSpace=wrap;html=1;fontColor=#FFFFFF;" parent="YfnxBZkM-dtaLULD4a4c-106" vertex="1">
          <mxGeometry y="26" width="420" height="26" as="geometry" />
        </mxCell>
        <mxCell id="YfnxBZkM-dtaLULD4a4c-109" value="+ interactor: DR_AzureCommands" style="text;strokeColor=none;fillColor=none;align=left;verticalAlign=top;spacingLeft=4;spacingRight=4;overflow=hidden;rotatable=0;points=[[0,0.5],[1,0.5]];portConstraint=eastwest;whiteSpace=wrap;html=1;fontColor=#FFFFFF;" parent="YfnxBZkM-dtaLULD4a4c-106" vertex="1">
          <mxGeometry y="52" width="420" height="26" as="geometry" />
        </mxCell>
        <mxCell id="YfnxBZkM-dtaLULD4a4c-110" value="" style="line;strokeWidth=1;fillColor=none;align=left;verticalAlign=middle;spacingTop=-1;spacingLeft=3;spacingRight=3;rotatable=0;labelPosition=right;points=[];portConstraint=eastwest;strokeColor=inherit;fontColor=#FFFFFF;" parent="YfnxBZkM-dtaLULD4a4c-106" vertex="1">
          <mxGeometry y="78" width="420" height="8" as="geometry" />
        </mxCell>
        <mxCell id="YfnxBZkM-dtaLULD4a4c-111" value="+ SendCommand(): void" style="text;strokeColor=none;fillColor=none;align=left;verticalAlign=top;spacingLeft=4;spacingRight=4;overflow=hidden;rotatable=0;points=[[0,0.5],[1,0.5]];portConstraint=eastwest;whiteSpace=wrap;html=1;fontColor=#FFFFFF;" parent="YfnxBZkM-dtaLULD4a4c-106" vertex="1">
          <mxGeometry y="86" width="420" height="26" as="geometry" />
        </mxCell>
        <mxCell id="YfnxBZkM-dtaLULD4a4c-112" value="IDRInteractor" style="swimlane;fontStyle=1;align=center;verticalAlign=top;childLayout=stackLayout;horizontal=1;startSize=26;horizontalStack=0;resizeParent=1;resizeParentMax=0;resizeLast=0;collapsible=1;marginBottom=0;whiteSpace=wrap;html=1;fillColor=#fa6800;fillStyle=auto;glass=0;rounded=0;swimlaneLine=1;labelBackgroundColor=none;fontColor=#000000;strokeColor=#C73500;" parent="1" vertex="1">
          <mxGeometry x="-1430" y="1160" width="420" height="138" as="geometry" />
        </mxCell>
        <mxCell id="YfnxBZkM-dtaLULD4a4c-113" value="+ dataRetrieval: DRInteractor&amp;lt;T&amp;gt;" style="text;strokeColor=none;fillColor=none;align=left;verticalAlign=top;spacingLeft=4;spacingRight=4;overflow=hidden;rotatable=0;points=[[0,0.5],[1,0.5]];portConstraint=eastwest;whiteSpace=wrap;html=1;fontColor=#FFFFFF;" parent="YfnxBZkM-dtaLULD4a4c-112" vertex="1">
          <mxGeometry y="26" width="420" height="26" as="geometry" />
        </mxCell>
        <mxCell id="YfnxBZkM-dtaLULD4a4c-114" value="" style="line;strokeWidth=1;fillColor=none;align=left;verticalAlign=middle;spacingTop=-1;spacingLeft=3;spacingRight=3;rotatable=0;labelPosition=right;points=[];portConstraint=eastwest;strokeColor=inherit;fontColor=#FFFFFF;" parent="YfnxBZkM-dtaLULD4a4c-112" vertex="1">
          <mxGeometry y="52" width="420" height="8" as="geometry" />
        </mxCell>
        <mxCell id="YfnxBZkM-dtaLULD4a4c-121" value="+ DelayedAddListener(): IEnumerator" style="text;strokeColor=none;fillColor=none;align=left;verticalAlign=top;spacingLeft=4;spacingRight=4;overflow=hidden;rotatable=0;points=[[0,0.5],[1,0.5]];portConstraint=eastwest;whiteSpace=wrap;html=1;fontColor=#FFFFFF;" parent="YfnxBZkM-dtaLULD4a4c-112" vertex="1">
          <mxGeometry y="60" width="420" height="26" as="geometry" />
        </mxCell>
        <mxCell id="YfnxBZkM-dtaLULD4a4c-115" value="+ AddListener(): void" style="text;strokeColor=none;fillColor=none;align=left;verticalAlign=top;spacingLeft=4;spacingRight=4;overflow=hidden;rotatable=0;points=[[0,0.5],[1,0.5]];portConstraint=eastwest;whiteSpace=wrap;html=1;fontColor=#FFFFFF;" parent="YfnxBZkM-dtaLULD4a4c-112" vertex="1">
          <mxGeometry y="86" width="420" height="26" as="geometry" />
        </mxCell>
        <mxCell id="YfnxBZkM-dtaLULD4a4c-122" value="+ AlterAnchors(): void" style="text;strokeColor=none;fillColor=none;align=left;verticalAlign=top;spacingLeft=4;spacingRight=4;overflow=hidden;rotatable=0;points=[[0,0.5],[1,0.5]];portConstraint=eastwest;whiteSpace=wrap;html=1;fontColor=#FFFFFF;" parent="YfnxBZkM-dtaLULD4a4c-112" vertex="1">
          <mxGeometry y="112" width="420" height="26" as="geometry" />
        </mxCell>
        <mxCell id="YfnxBZkM-dtaLULD4a4c-135" value="Data Retrievers (entry / exit point for data going to other things such as azure - only using AzureDB and AzureCommands)" style="rounded=1;whiteSpace=wrap;html=1;verticalAlign=top;align=left;fontSize=20;fontStyle=1;spacing=55;fillColor=#4F5F6B;fillStyle=auto;strokeColor=none;fontColor=#FFFFFF;" parent="1" vertex="1">
          <mxGeometry x="-270" y="1228" width="1100" height="930" as="geometry" />
        </mxCell>
        <mxCell id="YfnxBZkM-dtaLULD4a4c-136" value="DR_AzureDB" style="swimlane;fontStyle=1;align=center;verticalAlign=top;childLayout=stackLayout;horizontal=1;startSize=26;horizontalStack=0;resizeParent=1;resizeParentMax=0;resizeLast=0;collapsible=1;marginBottom=0;whiteSpace=wrap;html=1;fillColor=#008a00;fillStyle=auto;glass=0;rounded=0;swimlaneLine=1;labelBackgroundColor=none;fontColor=#FFFFFF;strokeColor=#005700;" parent="1" vertex="1">
          <mxGeometry x="-180" y="1370" width="420" height="216" as="geometry" />
        </mxCell>
        <mxCell id="YfnxBZkM-dtaLULD4a4c-137" value="+ functionKey: string" style="text;strokeColor=none;fillColor=none;align=left;verticalAlign=top;spacingLeft=4;spacingRight=4;overflow=hidden;rotatable=0;points=[[0,0.5],[1,0.5]];portConstraint=eastwest;whiteSpace=wrap;html=1;fontColor=#FFFFFF;" parent="YfnxBZkM-dtaLULD4a4c-136" vertex="1">
          <mxGeometry y="26" width="420" height="26" as="geometry" />
        </mxCell>
        <mxCell id="YfnxBZkM-dtaLULD4a4c-138" value="+ functionUrl: string" style="text;strokeColor=none;fillColor=none;align=left;verticalAlign=top;spacingLeft=4;spacingRight=4;overflow=hidden;rotatable=0;points=[[0,0.5],[1,0.5]];portConstraint=eastwest;whiteSpace=wrap;html=1;fontColor=#FFFFFF;" parent="YfnxBZkM-dtaLULD4a4c-136" vertex="1">
          <mxGeometry y="52" width="420" height="26" as="geometry" />
        </mxCell>
        <mxCell id="YfnxBZkM-dtaLULD4a4c-139" value="+ defaultKey: string" style="text;strokeColor=none;fillColor=none;align=left;verticalAlign=top;spacingLeft=4;spacingRight=4;overflow=hidden;rotatable=0;points=[[0,0.5],[1,0.5]];portConstraint=eastwest;whiteSpace=wrap;html=1;fontColor=#FFFFFF;" parent="YfnxBZkM-dtaLULD4a4c-136" vertex="1">
          <mxGeometry y="78" width="420" height="26" as="geometry" />
        </mxCell>
        <mxCell id="YfnxBZkM-dtaLULD4a4c-142" value="+ logger: action" style="text;strokeColor=none;fillColor=none;align=left;verticalAlign=top;spacingLeft=4;spacingRight=4;overflow=hidden;rotatable=0;points=[[0,0.5],[1,0.5]];portConstraint=eastwest;whiteSpace=wrap;html=1;fontColor=#FFFFFF;" parent="YfnxBZkM-dtaLULD4a4c-136" vertex="1">
          <mxGeometry y="104" width="420" height="26" as="geometry" />
        </mxCell>
        <mxCell id="YfnxBZkM-dtaLULD4a4c-143" value="+ howToBuildTask: Func" style="text;strokeColor=none;fillColor=none;align=left;verticalAlign=top;spacingLeft=4;spacingRight=4;overflow=hidden;rotatable=0;points=[[0,0.5],[1,0.5]];portConstraint=eastwest;whiteSpace=wrap;html=1;fontColor=#FFFFFF;" parent="YfnxBZkM-dtaLULD4a4c-136" vertex="1">
          <mxGeometry y="130" width="420" height="26" as="geometry" />
        </mxCell>
        <mxCell id="YfnxBZkM-dtaLULD4a4c-140" value="" style="line;strokeWidth=1;fillColor=none;align=left;verticalAlign=middle;spacingTop=-1;spacingLeft=3;spacingRight=3;rotatable=0;labelPosition=right;points=[];portConstraint=eastwest;strokeColor=inherit;fontColor=#FFFFFF;" parent="YfnxBZkM-dtaLULD4a4c-136" vertex="1">
          <mxGeometry y="156" width="420" height="8" as="geometry" />
        </mxCell>
        <mxCell id="YfnxBZkM-dtaLULD4a4c-144" value="+ RetrieveJson(): Task&amp;lt;string&amp;gt;" style="text;strokeColor=none;fillColor=none;align=left;verticalAlign=top;spacingLeft=4;spacingRight=4;overflow=hidden;rotatable=0;points=[[0,0.5],[1,0.5]];portConstraint=eastwest;whiteSpace=wrap;html=1;fontColor=#FFFFFF;" parent="YfnxBZkM-dtaLULD4a4c-136" vertex="1">
          <mxGeometry y="164" width="420" height="26" as="geometry" />
        </mxCell>
        <mxCell id="YfnxBZkM-dtaLULD4a4c-141" value="+ Retrieve(): void" style="text;strokeColor=none;fillColor=none;align=left;verticalAlign=top;spacingLeft=4;spacingRight=4;overflow=hidden;rotatable=0;points=[[0,0.5],[1,0.5]];portConstraint=eastwest;whiteSpace=wrap;html=1;fontColor=#FFFFFF;" parent="YfnxBZkM-dtaLULD4a4c-136" vertex="1">
          <mxGeometry y="190" width="420" height="26" as="geometry" />
        </mxCell>
        <mxCell id="YfnxBZkM-dtaLULD4a4c-145" value="IDataRetrieval" style="swimlane;fontStyle=1;align=center;verticalAlign=top;childLayout=stackLayout;horizontal=1;startSize=26;horizontalStack=0;resizeParent=1;resizeParentMax=0;resizeLast=0;collapsible=1;marginBottom=0;whiteSpace=wrap;html=1;fillColor=#fa6800;fillStyle=auto;glass=0;rounded=0;swimlaneLine=1;labelBackgroundColor=none;fontColor=#000000;strokeColor=#C73500;" parent="1" vertex="1">
          <mxGeometry x="340" y="1370" width="420" height="86" as="geometry" />
        </mxCell>
        <mxCell id="YfnxBZkM-dtaLULD4a4c-146" value="+ VoidDelegate: delegate creation void" style="text;strokeColor=none;fillColor=none;align=left;verticalAlign=top;spacingLeft=4;spacingRight=4;overflow=hidden;rotatable=0;points=[[0,0.5],[1,0.5]];portConstraint=eastwest;whiteSpace=wrap;html=1;fontColor=#FFFFFF;" parent="YfnxBZkM-dtaLULD4a4c-145" vertex="1">
          <mxGeometry y="26" width="420" height="26" as="geometry" />
        </mxCell>
        <mxCell id="YfnxBZkM-dtaLULD4a4c-147" value="" style="line;strokeWidth=1;fillColor=none;align=left;verticalAlign=middle;spacingTop=-1;spacingLeft=3;spacingRight=3;rotatable=0;labelPosition=right;points=[];portConstraint=eastwest;strokeColor=inherit;fontColor=#FFFFFF;" parent="YfnxBZkM-dtaLULD4a4c-145" vertex="1">
          <mxGeometry y="52" width="420" height="8" as="geometry" />
        </mxCell>
        <mxCell id="YfnxBZkM-dtaLULD4a4c-148" value="+ Retrieve(): abstract string" style="text;strokeColor=none;fillColor=none;align=left;verticalAlign=top;spacingLeft=4;spacingRight=4;overflow=hidden;rotatable=0;points=[[0,0.5],[1,0.5]];portConstraint=eastwest;whiteSpace=wrap;html=1;fontColor=#FFFFFF;" parent="YfnxBZkM-dtaLULD4a4c-145" vertex="1">
          <mxGeometry y="60" width="420" height="26" as="geometry" />
        </mxCell>
        <mxCell id="YfnxBZkM-dtaLULD4a4c-151" value="IJsonHandler" style="swimlane;fontStyle=1;align=center;verticalAlign=top;childLayout=stackLayout;horizontal=1;startSize=26;horizontalStack=0;resizeParent=1;resizeParentMax=0;resizeLast=0;collapsible=1;marginBottom=0;whiteSpace=wrap;html=1;fillColor=#fa6800;fillStyle=auto;glass=0;rounded=0;swimlaneLine=1;labelBackgroundColor=none;fontColor=#000000;strokeColor=#C73500;" parent="1" vertex="1">
          <mxGeometry x="340" y="1474" width="420" height="60" as="geometry" />
        </mxCell>
        <mxCell id="YfnxBZkM-dtaLULD4a4c-153" value="" style="line;strokeWidth=1;fillColor=none;align=left;verticalAlign=middle;spacingTop=-1;spacingLeft=3;spacingRight=3;rotatable=0;labelPosition=right;points=[];portConstraint=eastwest;strokeColor=inherit;fontColor=#FFFFFF;" parent="YfnxBZkM-dtaLULD4a4c-151" vertex="1">
          <mxGeometry y="26" width="420" height="8" as="geometry" />
        </mxCell>
        <mxCell id="YfnxBZkM-dtaLULD4a4c-155" value="+ RetrieveJson(): abstract Task&amp;lt;string&amp;gt;" style="text;strokeColor=none;fillColor=none;align=left;verticalAlign=top;spacingLeft=4;spacingRight=4;overflow=hidden;rotatable=0;points=[[0,0.5],[1,0.5]];portConstraint=eastwest;whiteSpace=wrap;html=1;fontColor=#FFFFFF;" parent="YfnxBZkM-dtaLULD4a4c-151" vertex="1">
          <mxGeometry y="34" width="420" height="26" as="geometry" />
        </mxCell>
        <mxCell id="YfnxBZkM-dtaLULD4a4c-160" value="&amp;nbsp;AzureFunctionRequestHandler" style="swimlane;fontStyle=1;align=center;verticalAlign=top;childLayout=stackLayout;horizontal=1;startSize=26;horizontalStack=0;resizeParent=1;resizeParentMax=0;resizeLast=0;collapsible=1;marginBottom=0;whiteSpace=wrap;html=1;fillColor=#008a00;fillStyle=auto;glass=0;rounded=0;swimlaneLine=1;labelBackgroundColor=none;fontColor=#ffffff;strokeColor=#005700;" parent="1" vertex="1">
          <mxGeometry x="-2037" y="1396" width="420" height="86" as="geometry" />
        </mxCell>
        <mxCell id="YfnxBZkM-dtaLULD4a4c-162" value="" style="line;strokeWidth=1;fillColor=none;align=left;verticalAlign=middle;spacingTop=-1;spacingLeft=3;spacingRight=3;rotatable=0;labelPosition=right;points=[];portConstraint=eastwest;strokeColor=inherit;fontColor=#FFFFFF;" parent="YfnxBZkM-dtaLULD4a4c-160" vertex="1">
          <mxGeometry y="26" width="420" height="8" as="geometry" />
        </mxCell>
        <mxCell id="YfnxBZkM-dtaLULD4a4c-163" value="- Post(): static Task&amp;lt;HttpResponseMessage&amp;gt;" style="text;strokeColor=none;fillColor=none;align=left;verticalAlign=top;spacingLeft=4;spacingRight=4;overflow=hidden;rotatable=0;points=[[0,0.5],[1,0.5]];portConstraint=eastwest;whiteSpace=wrap;html=1;fontColor=#FFFFFF;" parent="YfnxBZkM-dtaLULD4a4c-160" vertex="1">
          <mxGeometry y="34" width="420" height="26" as="geometry" />
        </mxCell>
        <mxCell id="YfnxBZkM-dtaLULD4a4c-167" value="- Get(): static Task&amp;lt;HttpResponseMessage&amp;gt;" style="text;strokeColor=none;fillColor=none;align=left;verticalAlign=top;spacingLeft=4;spacingRight=4;overflow=hidden;rotatable=0;points=[[0,0.5],[1,0.5]];portConstraint=eastwest;whiteSpace=wrap;html=1;fontColor=#FFFFFF;" parent="YfnxBZkM-dtaLULD4a4c-160" vertex="1">
          <mxGeometry y="60" width="420" height="26" as="geometry" />
        </mxCell>
        <mxCell id="YfnxBZkM-dtaLULD4a4c-169" value="DS_AzureCommands" style="swimlane;fontStyle=1;align=center;verticalAlign=top;childLayout=stackLayout;horizontal=1;startSize=26;horizontalStack=0;resizeParent=1;resizeParentMax=0;resizeLast=0;collapsible=1;marginBottom=0;whiteSpace=wrap;html=1;fillColor=#008a00;fillStyle=auto;glass=0;rounded=0;swimlaneLine=1;labelBackgroundColor=none;fontColor=#FFFFFF;strokeColor=#005700;" parent="1" vertex="1">
          <mxGeometry x="-180" y="1950" width="420" height="138" as="geometry" />
        </mxCell>
        <mxCell id="YfnxBZkM-dtaLULD4a4c-170" value="+ functionKey: string" style="text;strokeColor=none;fillColor=none;align=left;verticalAlign=top;spacingLeft=4;spacingRight=4;overflow=hidden;rotatable=0;points=[[0,0.5],[1,0.5]];portConstraint=eastwest;whiteSpace=wrap;html=1;fontColor=#FFFFFF;" parent="YfnxBZkM-dtaLULD4a4c-169" vertex="1">
          <mxGeometry y="26" width="420" height="26" as="geometry" />
        </mxCell>
        <mxCell id="YfnxBZkM-dtaLULD4a4c-171" value="+ functionUrl: string" style="text;strokeColor=none;fillColor=none;align=left;verticalAlign=top;spacingLeft=4;spacingRight=4;overflow=hidden;rotatable=0;points=[[0,0.5],[1,0.5]];portConstraint=eastwest;whiteSpace=wrap;html=1;fontColor=#FFFFFF;" parent="YfnxBZkM-dtaLULD4a4c-169" vertex="1">
          <mxGeometry y="52" width="420" height="26" as="geometry" />
        </mxCell>
        <mxCell id="YfnxBZkM-dtaLULD4a4c-172" value="+ defaultKey: string" style="text;strokeColor=none;fillColor=none;align=left;verticalAlign=top;spacingLeft=4;spacingRight=4;overflow=hidden;rotatable=0;points=[[0,0.5],[1,0.5]];portConstraint=eastwest;whiteSpace=wrap;html=1;fontColor=#FFFFFF;" parent="YfnxBZkM-dtaLULD4a4c-169" vertex="1">
          <mxGeometry y="78" width="420" height="26" as="geometry" />
        </mxCell>
        <mxCell id="YfnxBZkM-dtaLULD4a4c-175" value="" style="line;strokeWidth=1;fillColor=none;align=left;verticalAlign=middle;spacingTop=-1;spacingLeft=3;spacingRight=3;rotatable=0;labelPosition=right;points=[];portConstraint=eastwest;strokeColor=inherit;fontColor=#FFFFFF;" parent="YfnxBZkM-dtaLULD4a4c-169" vertex="1">
          <mxGeometry y="104" width="420" height="8" as="geometry" />
        </mxCell>
        <mxCell id="YfnxBZkM-dtaLULD4a4c-176" value="+ SendCommand(): Task" style="text;strokeColor=none;fillColor=none;align=left;verticalAlign=top;spacingLeft=4;spacingRight=4;overflow=hidden;rotatable=0;points=[[0,0.5],[1,0.5]];portConstraint=eastwest;whiteSpace=wrap;html=1;fontColor=#FFFFFF;" parent="YfnxBZkM-dtaLULD4a4c-169" vertex="1">
          <mxGeometry y="112" width="420" height="26" as="geometry" />
        </mxCell>
        <mxCell id="YfnxBZkM-dtaLULD4a4c-180" value="DR_Dummy" style="swimlane;fontStyle=1;align=center;verticalAlign=top;childLayout=stackLayout;horizontal=1;startSize=26;horizontalStack=0;resizeParent=1;resizeParentMax=0;resizeLast=0;collapsible=1;marginBottom=0;whiteSpace=wrap;html=1;fillColor=#008a00;fillStyle=auto;glass=0;rounded=0;swimlaneLine=1;labelBackgroundColor=none;fontColor=#FFFFFF;strokeColor=#005700;" parent="1" vertex="1">
          <mxGeometry x="-180" y="1604" width="420" height="216" as="geometry" />
        </mxCell>
        <mxCell id="YfnxBZkM-dtaLULD4a4c-185" value="- howToBuildTask: Func" style="text;strokeColor=none;fillColor=none;align=left;verticalAlign=top;spacingLeft=4;spacingRight=4;overflow=hidden;rotatable=0;points=[[0,0.5],[1,0.5]];portConstraint=eastwest;whiteSpace=wrap;html=1;fontColor=#FFFFFF;" parent="YfnxBZkM-dtaLULD4a4c-180" vertex="1">
          <mxGeometry y="26" width="420" height="26" as="geometry" />
        </mxCell>
        <mxCell id="YfnxBZkM-dtaLULD4a4c-189" value="- howToTurnIntoDictionary: Func" style="text;strokeColor=none;fillColor=none;align=left;verticalAlign=top;spacingLeft=4;spacingRight=4;overflow=hidden;rotatable=0;points=[[0,0.5],[1,0.5]];portConstraint=eastwest;whiteSpace=wrap;html=1;fontColor=#FFFFFF;" parent="YfnxBZkM-dtaLULD4a4c-180" vertex="1">
          <mxGeometry y="52" width="420" height="26" as="geometry" />
        </mxCell>
        <mxCell id="YfnxBZkM-dtaLULD4a4c-190" value="- howToBuildDefaultTask: Func" style="text;strokeColor=none;fillColor=none;align=left;verticalAlign=top;spacingLeft=4;spacingRight=4;overflow=hidden;rotatable=0;points=[[0,0.5],[1,0.5]];portConstraint=eastwest;whiteSpace=wrap;html=1;fontColor=#FFFFFF;" parent="YfnxBZkM-dtaLULD4a4c-180" vertex="1">
          <mxGeometry y="78" width="420" height="26" as="geometry" />
        </mxCell>
        <mxCell id="YfnxBZkM-dtaLULD4a4c-191" value="+ amountOfInstancesToBuildPerType: int" style="text;strokeColor=none;fillColor=none;align=left;verticalAlign=top;spacingLeft=4;spacingRight=4;overflow=hidden;rotatable=0;points=[[0,0.5],[1,0.5]];portConstraint=eastwest;whiteSpace=wrap;html=1;fontColor=#FFFFFF;" parent="YfnxBZkM-dtaLULD4a4c-180" vertex="1">
          <mxGeometry y="104" width="420" height="26" as="geometry" />
        </mxCell>
        <mxCell id="YfnxBZkM-dtaLULD4a4c-186" value="" style="line;strokeWidth=1;fillColor=none;align=left;verticalAlign=middle;spacingTop=-1;spacingLeft=3;spacingRight=3;rotatable=0;labelPosition=right;points=[];portConstraint=eastwest;strokeColor=inherit;fontColor=#FFFFFF;" parent="YfnxBZkM-dtaLULD4a4c-180" vertex="1">
          <mxGeometry y="130" width="420" height="8" as="geometry" />
        </mxCell>
        <mxCell id="YfnxBZkM-dtaLULD4a4c-187" value="- Search():&amp;nbsp;Task&amp;lt;Dictionary&amp;lt;string, List&amp;lt;T&amp;gt;&amp;gt;&amp;gt;" style="text;strokeColor=none;fillColor=none;align=left;verticalAlign=top;spacingLeft=4;spacingRight=4;overflow=hidden;rotatable=0;points=[[0,0.5],[1,0.5]];portConstraint=eastwest;whiteSpace=wrap;html=1;fontColor=#FFFFFF;" parent="YfnxBZkM-dtaLULD4a4c-180" vertex="1">
          <mxGeometry y="138" width="420" height="26" as="geometry" />
        </mxCell>
        <mxCell id="YfnxBZkM-dtaLULD4a4c-188" value="+ RetrieveJson(): Task&amp;lt;string&amp;gt;" style="text;strokeColor=none;fillColor=none;align=left;verticalAlign=top;spacingLeft=4;spacingRight=4;overflow=hidden;rotatable=0;points=[[0,0.5],[1,0.5]];portConstraint=eastwest;whiteSpace=wrap;html=1;fontColor=#FFFFFF;" parent="YfnxBZkM-dtaLULD4a4c-180" vertex="1">
          <mxGeometry y="164" width="420" height="26" as="geometry" />
        </mxCell>
        <mxCell id="YfnxBZkM-dtaLULD4a4c-192" value="+ RetrieveJson(): Task&amp;lt;string&amp;gt;" style="text;strokeColor=none;fillColor=none;align=left;verticalAlign=top;spacingLeft=4;spacingRight=4;overflow=hidden;rotatable=0;points=[[0,0.5],[1,0.5]];portConstraint=eastwest;whiteSpace=wrap;html=1;fontColor=#FFFFFF;" parent="YfnxBZkM-dtaLULD4a4c-180" vertex="1">
          <mxGeometry y="190" width="420" height="26" as="geometry" />
        </mxCell>
        <mxCell id="YfnxBZkM-dtaLULD4a4c-201" value="DR_Network" style="swimlane;fontStyle=1;align=center;verticalAlign=top;childLayout=stackLayout;horizontal=1;startSize=26;horizontalStack=0;resizeParent=1;resizeParentMax=0;resizeLast=0;collapsible=1;marginBottom=0;whiteSpace=wrap;html=1;fillColor=#008a00;fillStyle=auto;glass=0;rounded=0;swimlaneLine=1;labelBackgroundColor=none;fontColor=#FFFFFF;strokeColor=#005700;" parent="1" vertex="1">
          <mxGeometry x="-180" y="1840" width="420" height="86" as="geometry" />
        </mxCell>
        <mxCell id="YfnxBZkM-dtaLULD4a4c-205" value="" style="line;strokeWidth=1;fillColor=none;align=left;verticalAlign=middle;spacingTop=-1;spacingLeft=3;spacingRight=3;rotatable=0;labelPosition=right;points=[];portConstraint=eastwest;strokeColor=inherit;fontColor=#FFFFFF;" parent="YfnxBZkM-dtaLULD4a4c-201" vertex="1">
          <mxGeometry y="26" width="420" height="8" as="geometry" />
        </mxCell>
        <mxCell id="YfnxBZkM-dtaLULD4a4c-206" value="+ Retrieve(): void" style="text;strokeColor=none;fillColor=none;align=left;verticalAlign=top;spacingLeft=4;spacingRight=4;overflow=hidden;rotatable=0;points=[[0,0.5],[1,0.5]];portConstraint=eastwest;whiteSpace=wrap;html=1;fontColor=#FFFFFF;" parent="YfnxBZkM-dtaLULD4a4c-201" vertex="1">
          <mxGeometry y="34" width="420" height="26" as="geometry" />
        </mxCell>
        <mxCell id="YfnxBZkM-dtaLULD4a4c-207" value="+ RetrieveJson(): Task&amp;lt;string&amp;gt;" style="text;strokeColor=none;fillColor=none;align=left;verticalAlign=top;spacingLeft=4;spacingRight=4;overflow=hidden;rotatable=0;points=[[0,0.5],[1,0.5]];portConstraint=eastwest;whiteSpace=wrap;html=1;fontColor=#FFFFFF;" parent="YfnxBZkM-dtaLULD4a4c-201" vertex="1">
          <mxGeometry y="60" width="420" height="26" as="geometry" />
        </mxCell>
        <mxCell id="YfnxBZkM-dtaLULD4a4c-211" value="Data Retrieval Interactors (meant for looping over data retrievers)" style="rounded=1;whiteSpace=wrap;html=1;verticalAlign=top;align=left;fontSize=20;fontStyle=1;spacing=42;fillColor=#4F5F6B;fillStyle=auto;strokeColor=none;fontColor=#FFFFFF;" parent="1" vertex="1">
          <mxGeometry x="-210" y="686" width="980" height="490" as="geometry" />
        </mxCell>
        <mxCell id="YfnxBZkM-dtaLULD4a4c-215" value="DRInteractor" style="swimlane;fontStyle=1;align=center;verticalAlign=top;childLayout=stackLayout;horizontal=1;startSize=26;horizontalStack=0;resizeParent=1;resizeParentMax=0;resizeLast=0;collapsible=1;marginBottom=0;whiteSpace=wrap;html=1;fillColor=#008a00;fillStyle=auto;glass=0;rounded=0;swimlaneLine=1;labelBackgroundColor=none;fontColor=#FFFFFF;strokeColor=#005700;" parent="1" vertex="1">
          <mxGeometry x="-160" y="806" width="420" height="320" as="geometry" />
        </mxCell>
        <mxCell id="YfnxBZkM-dtaLULD4a4c-217" value="- dataRetrieval: IDataRetrieval&amp;lt;T&amp;gt;" style="text;strokeColor=none;fillColor=none;align=left;verticalAlign=top;spacingLeft=4;spacingRight=4;overflow=hidden;rotatable=0;points=[[0,0.5],[1,0.5]];portConstraint=eastwest;whiteSpace=wrap;html=1;fontColor=#FFFFFF;" parent="YfnxBZkM-dtaLULD4a4c-215" vertex="1">
          <mxGeometry y="26" width="420" height="26" as="geometry" />
        </mxCell>
        <mxCell id="YfnxBZkM-dtaLULD4a4c-220" value="-&amp;nbsp;listeners:&amp;nbsp;Dictionary&amp;lt;string, VoidDelegate&amp;gt;" style="text;strokeColor=none;fillColor=none;align=left;verticalAlign=top;spacingLeft=4;spacingRight=4;overflow=hidden;rotatable=0;points=[[0,0.5],[1,0.5]];portConstraint=eastwest;whiteSpace=wrap;html=1;fontColor=#FFFFFF;" parent="YfnxBZkM-dtaLULD4a4c-215" vertex="1">
          <mxGeometry y="52" width="420" height="26" as="geometry" />
        </mxCell>
        <mxCell id="YfnxBZkM-dtaLULD4a4c-221" value="- typesToListenFor: Dictionary&amp;lt;string, Type&amp;gt;" style="text;strokeColor=none;fillColor=none;align=left;verticalAlign=top;spacingLeft=4;spacingRight=4;overflow=hidden;rotatable=0;points=[[0,0.5],[1,0.5]];portConstraint=eastwest;whiteSpace=wrap;html=1;fontColor=#FFFFFF;" parent="YfnxBZkM-dtaLULD4a4c-215" vertex="1">
          <mxGeometry y="78" width="420" height="26" as="geometry" />
        </mxCell>
        <mxCell id="YfnxBZkM-dtaLULD4a4c-216" value="+ delayInbetweenCalls: int" style="text;strokeColor=none;fillColor=none;align=left;verticalAlign=top;spacingLeft=4;spacingRight=4;overflow=hidden;rotatable=0;points=[[0,0.5],[1,0.5]];portConstraint=eastwest;whiteSpace=wrap;html=1;fontColor=#FFFFFF;" parent="YfnxBZkM-dtaLULD4a4c-215" vertex="1">
          <mxGeometry y="104" width="420" height="26" as="geometry" />
        </mxCell>
        <mxCell id="YfnxBZkM-dtaLULD4a4c-222" value="+ anchors: int" style="text;strokeColor=none;fillColor=none;align=left;verticalAlign=top;spacingLeft=4;spacingRight=4;overflow=hidden;rotatable=0;points=[[0,0.5],[1,0.5]];portConstraint=eastwest;whiteSpace=wrap;html=1;fontColor=#FFFFFF;" parent="YfnxBZkM-dtaLULD4a4c-215" vertex="1">
          <mxGeometry y="130" width="420" height="26" as="geometry" />
        </mxCell>
        <mxCell id="YfnxBZkM-dtaLULD4a4c-218" value="" style="line;strokeWidth=1;fillColor=none;align=left;verticalAlign=middle;spacingTop=-1;spacingLeft=3;spacingRight=3;rotatable=0;labelPosition=right;points=[];portConstraint=eastwest;strokeColor=inherit;fontColor=#FFFFFF;" parent="YfnxBZkM-dtaLULD4a4c-215" vertex="1">
          <mxGeometry y="156" width="420" height="8" as="geometry" />
        </mxCell>
        <mxCell id="YfnxBZkM-dtaLULD4a4c-219" value="- AssignListener(): void" style="text;strokeColor=none;fillColor=none;align=left;verticalAlign=top;spacingLeft=4;spacingRight=4;overflow=hidden;rotatable=0;points=[[0,0.5],[1,0.5]];portConstraint=eastwest;whiteSpace=wrap;html=1;fontColor=#FFFFFF;" parent="YfnxBZkM-dtaLULD4a4c-215" vertex="1">
          <mxGeometry y="164" width="420" height="26" as="geometry" />
        </mxCell>
        <mxCell id="YfnxBZkM-dtaLULD4a4c-224" value="- AssignTypes(): void" style="text;strokeColor=none;fillColor=none;align=left;verticalAlign=top;spacingLeft=4;spacingRight=4;overflow=hidden;rotatable=0;points=[[0,0.5],[1,0.5]];portConstraint=eastwest;whiteSpace=wrap;html=1;fontColor=#FFFFFF;" parent="YfnxBZkM-dtaLULD4a4c-215" vertex="1">
          <mxGeometry y="190" width="420" height="26" as="geometry" />
        </mxCell>
        <mxCell id="YfnxBZkM-dtaLULD4a4c-227" value="- FindData(): Task" style="text;strokeColor=none;fillColor=none;align=left;verticalAlign=top;spacingLeft=4;spacingRight=4;overflow=hidden;rotatable=0;points=[[0,0.5],[1,0.5]];portConstraint=eastwest;whiteSpace=wrap;html=1;fontColor=#FFFFFF;" parent="YfnxBZkM-dtaLULD4a4c-215" vertex="1">
          <mxGeometry y="216" width="420" height="26" as="geometry" />
        </mxCell>
        <mxCell id="YfnxBZkM-dtaLULD4a4c-226" value="- PopulateData(): Task" style="text;strokeColor=none;fillColor=none;align=left;verticalAlign=top;spacingLeft=4;spacingRight=4;overflow=hidden;rotatable=0;points=[[0,0.5],[1,0.5]];portConstraint=eastwest;whiteSpace=wrap;html=1;fontColor=#FFFFFF;" parent="YfnxBZkM-dtaLULD4a4c-215" vertex="1">
          <mxGeometry y="242" width="420" height="26" as="geometry" />
        </mxCell>
        <mxCell id="YfnxBZkM-dtaLULD4a4c-223" value="+ AddListener(): void" style="text;strokeColor=none;fillColor=none;align=left;verticalAlign=top;spacingLeft=4;spacingRight=4;overflow=hidden;rotatable=0;points=[[0,0.5],[1,0.5]];portConstraint=eastwest;whiteSpace=wrap;html=1;fontColor=#FFFFFF;" parent="YfnxBZkM-dtaLULD4a4c-215" vertex="1">
          <mxGeometry y="268" width="420" height="26" as="geometry" />
        </mxCell>
        <mxCell id="YfnxBZkM-dtaLULD4a4c-225" value="+ SearchForData(): Task" style="text;strokeColor=none;fillColor=none;align=left;verticalAlign=top;spacingLeft=4;spacingRight=4;overflow=hidden;rotatable=0;points=[[0,0.5],[1,0.5]];portConstraint=eastwest;whiteSpace=wrap;html=1;fontColor=#FFFFFF;" parent="YfnxBZkM-dtaLULD4a4c-215" vertex="1">
          <mxGeometry y="294" width="420" height="26" as="geometry" />
        </mxCell>
        <mxCell id="YfnxBZkM-dtaLULD4a4c-228" value="IDRHandler" style="swimlane;fontStyle=1;align=center;verticalAlign=top;childLayout=stackLayout;horizontal=1;startSize=26;horizontalStack=0;resizeParent=1;resizeParentMax=0;resizeLast=0;collapsible=1;marginBottom=0;whiteSpace=wrap;html=1;fillColor=#fa6800;fillStyle=auto;glass=0;rounded=0;swimlaneLine=1;labelBackgroundColor=none;fontColor=#000000;strokeColor=#C73500;" parent="1" vertex="1">
          <mxGeometry x="320" y="806" width="420" height="138" as="geometry" />
        </mxCell>
        <mxCell id="YfnxBZkM-dtaLULD4a4c-229" value="+ VoidDelegate: delegate creation void" style="text;strokeColor=none;fillColor=none;align=left;verticalAlign=top;spacingLeft=4;spacingRight=4;overflow=hidden;rotatable=0;points=[[0,0.5],[1,0.5]];portConstraint=eastwest;whiteSpace=wrap;html=1;fontColor=#FFFFFF;" parent="YfnxBZkM-dtaLULD4a4c-228" vertex="1">
          <mxGeometry y="26" width="420" height="26" as="geometry" />
        </mxCell>
        <mxCell id="YfnxBZkM-dtaLULD4a4c-234" value="+ anchors: int" style="text;strokeColor=none;fillColor=none;align=left;verticalAlign=top;spacingLeft=4;spacingRight=4;overflow=hidden;rotatable=0;points=[[0,0.5],[1,0.5]];portConstraint=eastwest;whiteSpace=wrap;html=1;fontColor=#FFFFFF;" parent="YfnxBZkM-dtaLULD4a4c-228" vertex="1">
          <mxGeometry y="52" width="420" height="26" as="geometry" />
        </mxCell>
        <mxCell id="YfnxBZkM-dtaLULD4a4c-230" value="" style="line;strokeWidth=1;fillColor=none;align=left;verticalAlign=middle;spacingTop=-1;spacingLeft=3;spacingRight=3;rotatable=0;labelPosition=right;points=[];portConstraint=eastwest;strokeColor=inherit;fontColor=#FFFFFF;" parent="YfnxBZkM-dtaLULD4a4c-228" vertex="1">
          <mxGeometry y="78" width="420" height="8" as="geometry" />
        </mxCell>
        <mxCell id="YfnxBZkM-dtaLULD4a4c-231" value="+ AddListener(): abstract void" style="text;strokeColor=none;fillColor=none;align=left;verticalAlign=top;spacingLeft=4;spacingRight=4;overflow=hidden;rotatable=0;points=[[0,0.5],[1,0.5]];portConstraint=eastwest;whiteSpace=wrap;html=1;fontColor=#FFFFFF;" parent="YfnxBZkM-dtaLULD4a4c-228" vertex="1">
          <mxGeometry y="86" width="420" height="26" as="geometry" />
        </mxCell>
        <mxCell id="YfnxBZkM-dtaLULD4a4c-232" value="+ SearchForData(): abstract void" style="text;strokeColor=none;fillColor=none;align=left;verticalAlign=top;spacingLeft=4;spacingRight=4;overflow=hidden;rotatable=0;points=[[0,0.5],[1,0.5]];portConstraint=eastwest;whiteSpace=wrap;html=1;fontColor=#FFFFFF;" parent="YfnxBZkM-dtaLULD4a4c-228" vertex="1">
          <mxGeometry y="112" width="420" height="26" as="geometry" />
        </mxCell>
        <mxCell id="YfnxBZkM-dtaLULD4a4c-237" value="" style="endArrow=classic;html=1;rounded=0;entryX=1;entryY=0.5;entryDx=0;entryDy=0;exitX=0;exitY=0.5;exitDx=0;exitDy=0;fontColor=#FFFFFF;" parent="1" source="YfnxBZkM-dtaLULD4a4c-229" target="YfnxBZkM-dtaLULD4a4c-217" edge="1">
          <mxGeometry width="50" height="50" relative="1" as="geometry">
            <mxPoint x="110" y="816" as="sourcePoint" />
            <mxPoint x="160" y="766" as="targetPoint" />
          </mxGeometry>
        </mxCell>
        <mxCell id="ed8AZ3-YZBsXWsMalY9c-6" value="Scriptable Objects" style="rounded=1;whiteSpace=wrap;html=1;verticalAlign=top;align=left;fontSize=20;fontStyle=1;spacing=42;fillColor=#4F5F6B;fillStyle=auto;strokeColor=none;fontColor=#FFFFFF;" parent="1" vertex="1">
          <mxGeometry x="-1000" y="1930" width="510" height="250" as="geometry" />
        </mxCell>
        <mxCell id="ed8AZ3-YZBsXWsMalY9c-7" value="AzureFunctionAccess" style="swimlane;fontStyle=1;align=center;verticalAlign=top;childLayout=stackLayout;horizontal=1;startSize=26;horizontalStack=0;resizeParent=1;resizeParentMax=0;resizeLast=0;collapsible=1;marginBottom=0;whiteSpace=wrap;html=1;fillColor=#e3c800;fillStyle=auto;glass=0;rounded=0;swimlaneLine=1;labelBackgroundColor=none;strokeColor=#B09500;fontColor=#000000;" parent="1" vertex="1">
          <mxGeometry x="-970" y="2028" width="420" height="112" as="geometry" />
        </mxCell>
        <mxCell id="ed8AZ3-YZBsXWsMalY9c-8" value="+ functionKey: string" style="text;strokeColor=none;fillColor=none;align=left;verticalAlign=top;spacingLeft=4;spacingRight=4;overflow=hidden;rotatable=0;points=[[0,0.5],[1,0.5]];portConstraint=eastwest;whiteSpace=wrap;html=1;fontColor=#FFFFFF;" parent="ed8AZ3-YZBsXWsMalY9c-7" vertex="1">
          <mxGeometry y="26" width="420" height="26" as="geometry" />
        </mxCell>
        <mxCell id="ed8AZ3-YZBsXWsMalY9c-9" value="+ functionUrl : string" style="text;strokeColor=none;fillColor=none;align=left;verticalAlign=top;spacingLeft=4;spacingRight=4;overflow=hidden;rotatable=0;points=[[0,0.5],[1,0.5]];portConstraint=eastwest;whiteSpace=wrap;html=1;fontColor=#FFFFFF;" parent="ed8AZ3-YZBsXWsMalY9c-7" vertex="1">
          <mxGeometry y="52" width="420" height="26" as="geometry" />
        </mxCell>
        <mxCell id="ed8AZ3-YZBsXWsMalY9c-12" value="+ defaultKey: string" style="text;strokeColor=none;fillColor=none;align=left;verticalAlign=top;spacingLeft=4;spacingRight=4;overflow=hidden;rotatable=0;points=[[0,0.5],[1,0.5]];portConstraint=eastwest;whiteSpace=wrap;html=1;fontColor=#FFFFFF;" parent="ed8AZ3-YZBsXWsMalY9c-7" vertex="1">
          <mxGeometry y="78" width="420" height="26" as="geometry" />
        </mxCell>
        <mxCell id="ed8AZ3-YZBsXWsMalY9c-13" value="" style="line;strokeWidth=1;fillColor=none;align=left;verticalAlign=middle;spacingTop=-1;spacingLeft=3;spacingRight=3;rotatable=0;labelPosition=right;points=[];portConstraint=eastwest;strokeColor=inherit;fontColor=#FFFFFF;" parent="ed8AZ3-YZBsXWsMalY9c-7" vertex="1">
          <mxGeometry y="104" width="420" height="8" as="geometry" />
        </mxCell>
        <mxCell id="ed8AZ3-YZBsXWsMalY9c-19" value="HttpDBItemCreate" style="swimlane;fontStyle=1;align=center;verticalAlign=top;childLayout=stackLayout;horizontal=1;startSize=26;horizontalStack=0;resizeParent=1;resizeParentMax=0;resizeLast=0;collapsible=1;marginBottom=0;whiteSpace=wrap;html=1;fillColor=#008a00;fillStyle=auto;glass=0;rounded=0;swimlaneLine=1;labelBackgroundColor=none;fontColor=#FFFFFF;strokeColor=#005700;" parent="1" vertex="1">
          <mxGeometry x="2095" y="630" width="420" height="112" as="geometry" />
        </mxCell>
        <mxCell id="ed8AZ3-YZBsXWsMalY9c-20" value="- logger: ILogger&amp;lt;HttpDBItemCreate&amp;gt;" style="text;strokeColor=none;fillColor=none;align=left;verticalAlign=top;spacingLeft=4;spacingRight=4;overflow=hidden;rotatable=0;points=[[0,0.5],[1,0.5]];portConstraint=eastwest;whiteSpace=wrap;html=1;fontColor=#FFFFFF;" parent="ed8AZ3-YZBsXWsMalY9c-19" vertex="1">
          <mxGeometry y="26" width="420" height="26" as="geometry" />
        </mxCell>
        <mxCell id="ed8AZ3-YZBsXWsMalY9c-22" value="" style="line;strokeWidth=1;fillColor=none;align=left;verticalAlign=middle;spacingTop=-1;spacingLeft=3;spacingRight=3;rotatable=0;labelPosition=right;points=[];portConstraint=eastwest;strokeColor=inherit;fontColor=#FFFFFF;" parent="ed8AZ3-YZBsXWsMalY9c-19" vertex="1">
          <mxGeometry y="52" width="420" height="8" as="geometry" />
        </mxCell>
        <mxCell id="ed8AZ3-YZBsXWsMalY9c-24" value="- SendToDatabase(): Task&amp;lt;HttpResponseData&amp;gt;" style="text;align=left;verticalAlign=top;spacingLeft=4;spacingRight=4;overflow=hidden;rotatable=0;points=[[0,0.5],[1,0.5]];portConstraint=eastwest;whiteSpace=wrap;html=1;fontColor=#FFFFFF;" parent="ed8AZ3-YZBsXWsMalY9c-19" vertex="1">
          <mxGeometry y="60" width="420" height="26" as="geometry" />
        </mxCell>
        <mxCell id="ed8AZ3-YZBsXWsMalY9c-23" value="+ DataInteraction(): Task&amp;lt;HttpResponseData&amp;gt;" style="text;strokeColor=none;fillColor=none;align=left;verticalAlign=top;spacingLeft=4;spacingRight=4;overflow=hidden;rotatable=0;points=[[0,0.5],[1,0.5]];portConstraint=eastwest;whiteSpace=wrap;html=1;fontColor=#FFFFFF;" parent="ed8AZ3-YZBsXWsMalY9c-19" vertex="1">
          <mxGeometry y="86" width="420" height="26" as="geometry" />
        </mxCell>
        <mxCell id="ed8AZ3-YZBsXWsMalY9c-26" value="HttpDBItemRead" style="swimlane;fontStyle=1;align=center;verticalAlign=top;childLayout=stackLayout;horizontal=1;startSize=26;horizontalStack=0;resizeParent=1;resizeParentMax=0;resizeLast=0;collapsible=1;marginBottom=0;whiteSpace=wrap;html=1;fillColor=#008a00;fillStyle=auto;glass=0;rounded=0;swimlaneLine=1;labelBackgroundColor=none;fontColor=#FFFFFF;strokeColor=#005700;" parent="1" vertex="1">
          <mxGeometry x="2095" y="762" width="420" height="112" as="geometry" />
        </mxCell>
        <mxCell id="ed8AZ3-YZBsXWsMalY9c-27" value="- logger: ILogger&amp;lt;HttpDBItemRead&amp;gt;" style="text;strokeColor=none;fillColor=none;align=left;verticalAlign=top;spacingLeft=4;spacingRight=4;overflow=hidden;rotatable=0;points=[[0,0.5],[1,0.5]];portConstraint=eastwest;whiteSpace=wrap;html=1;fontColor=#FFFFFF;" parent="ed8AZ3-YZBsXWsMalY9c-26" vertex="1">
          <mxGeometry y="26" width="420" height="26" as="geometry" />
        </mxCell>
        <mxCell id="ed8AZ3-YZBsXWsMalY9c-28" value="" style="line;strokeWidth=1;fillColor=none;align=left;verticalAlign=middle;spacingTop=-1;spacingLeft=3;spacingRight=3;rotatable=0;labelPosition=right;points=[];portConstraint=eastwest;strokeColor=inherit;fontColor=#FFFFFF;" parent="ed8AZ3-YZBsXWsMalY9c-26" vertex="1">
          <mxGeometry y="52" width="420" height="8" as="geometry" />
        </mxCell>
        <mxCell id="ed8AZ3-YZBsXWsMalY9c-29" value="- RetrieveFromDatabase(): Task&amp;lt;HttpResponseData&amp;gt;" style="text;align=left;verticalAlign=top;spacingLeft=4;spacingRight=4;overflow=hidden;rotatable=0;points=[[0,0.5],[1,0.5]];portConstraint=eastwest;whiteSpace=wrap;html=1;fontColor=#FFFFFF;" parent="ed8AZ3-YZBsXWsMalY9c-26" vertex="1">
          <mxGeometry y="60" width="420" height="26" as="geometry" />
        </mxCell>
        <mxCell id="ed8AZ3-YZBsXWsMalY9c-30" value="+ DataInteraction(): Task&amp;lt;HttpResponseData&amp;gt;" style="text;strokeColor=none;fillColor=none;align=left;verticalAlign=top;spacingLeft=4;spacingRight=4;overflow=hidden;rotatable=0;points=[[0,0.5],[1,0.5]];portConstraint=eastwest;whiteSpace=wrap;html=1;fontColor=#FFFFFF;" parent="ed8AZ3-YZBsXWsMalY9c-26" vertex="1">
          <mxGeometry y="86" width="420" height="26" as="geometry" />
        </mxCell>
        <mxCell id="ed8AZ3-YZBsXWsMalY9c-31" value="HttpDBItemUpdate" style="swimlane;fontStyle=1;align=center;verticalAlign=top;childLayout=stackLayout;horizontal=1;startSize=26;horizontalStack=0;resizeParent=1;resizeParentMax=0;resizeLast=0;collapsible=1;marginBottom=0;whiteSpace=wrap;html=1;fillColor=#008a00;fillStyle=auto;glass=0;rounded=0;swimlaneLine=1;labelBackgroundColor=none;fontColor=#FFFFFF;strokeColor=#005700;" parent="1" vertex="1">
          <mxGeometry x="2095" y="892" width="420" height="112" as="geometry" />
        </mxCell>
        <mxCell id="ed8AZ3-YZBsXWsMalY9c-32" value="- logger: ILogger&amp;lt;HttpDBItemUpdate&amp;gt;" style="text;strokeColor=none;fillColor=none;align=left;verticalAlign=top;spacingLeft=4;spacingRight=4;overflow=hidden;rotatable=0;points=[[0,0.5],[1,0.5]];portConstraint=eastwest;whiteSpace=wrap;html=1;fontColor=#FFFFFF;" parent="ed8AZ3-YZBsXWsMalY9c-31" vertex="1">
          <mxGeometry y="26" width="420" height="26" as="geometry" />
        </mxCell>
        <mxCell id="ed8AZ3-YZBsXWsMalY9c-33" value="" style="line;strokeWidth=1;fillColor=none;align=left;verticalAlign=middle;spacingTop=-1;spacingLeft=3;spacingRight=3;rotatable=0;labelPosition=right;points=[];portConstraint=eastwest;strokeColor=inherit;fontColor=#FFFFFF;" parent="ed8AZ3-YZBsXWsMalY9c-31" vertex="1">
          <mxGeometry y="52" width="420" height="8" as="geometry" />
        </mxCell>
        <mxCell id="ed8AZ3-YZBsXWsMalY9c-34" value="- Update(): Task&amp;lt;HttpResponseData&amp;gt;" style="text;align=left;verticalAlign=top;spacingLeft=4;spacingRight=4;overflow=hidden;rotatable=0;points=[[0,0.5],[1,0.5]];portConstraint=eastwest;whiteSpace=wrap;html=1;fontColor=#FFFFFF;" parent="ed8AZ3-YZBsXWsMalY9c-31" vertex="1">
          <mxGeometry y="60" width="420" height="26" as="geometry" />
        </mxCell>
        <mxCell id="ed8AZ3-YZBsXWsMalY9c-35" value="+ DataInteraction(): Task&amp;lt;HttpResponseData&amp;gt;" style="text;strokeColor=none;fillColor=none;align=left;verticalAlign=top;spacingLeft=4;spacingRight=4;overflow=hidden;rotatable=0;points=[[0,0.5],[1,0.5]];portConstraint=eastwest;whiteSpace=wrap;html=1;fontColor=#FFFFFF;" parent="ed8AZ3-YZBsXWsMalY9c-31" vertex="1">
          <mxGeometry y="86" width="420" height="26" as="geometry" />
        </mxCell>
        <mxCell id="ed8AZ3-YZBsXWsMalY9c-37" value="HttpDBItemDelete" style="swimlane;fontStyle=1;align=center;verticalAlign=top;childLayout=stackLayout;horizontal=1;startSize=26;horizontalStack=0;resizeParent=1;resizeParentMax=0;resizeLast=0;collapsible=1;marginBottom=0;whiteSpace=wrap;html=1;fillColor=#008a00;fillStyle=auto;glass=0;rounded=0;swimlaneLine=1;labelBackgroundColor=none;fontColor=#FFFFFF;strokeColor=#005700;" parent="1" vertex="1">
          <mxGeometry x="2095" y="1030" width="420" height="112" as="geometry" />
        </mxCell>
        <mxCell id="ed8AZ3-YZBsXWsMalY9c-38" value="- logger: ILogger&amp;lt;HttpDBItemDelete&amp;gt;" style="text;strokeColor=none;fillColor=none;align=left;verticalAlign=top;spacingLeft=4;spacingRight=4;overflow=hidden;rotatable=0;points=[[0,0.5],[1,0.5]];portConstraint=eastwest;whiteSpace=wrap;html=1;fontColor=#FFFFFF;" parent="ed8AZ3-YZBsXWsMalY9c-37" vertex="1">
          <mxGeometry y="26" width="420" height="26" as="geometry" />
        </mxCell>
        <mxCell id="ed8AZ3-YZBsXWsMalY9c-39" value="" style="line;strokeWidth=1;fillColor=none;align=left;verticalAlign=middle;spacingTop=-1;spacingLeft=3;spacingRight=3;rotatable=0;labelPosition=right;points=[];portConstraint=eastwest;strokeColor=inherit;fontColor=#FFFFFF;" parent="ed8AZ3-YZBsXWsMalY9c-37" vertex="1">
          <mxGeometry y="52" width="420" height="8" as="geometry" />
        </mxCell>
        <mxCell id="ed8AZ3-YZBsXWsMalY9c-40" value="- Delete(): Task&amp;lt;HttpResponseData&amp;gt;" style="text;align=left;verticalAlign=top;spacingLeft=4;spacingRight=4;overflow=hidden;rotatable=0;points=[[0,0.5],[1,0.5]];portConstraint=eastwest;whiteSpace=wrap;html=1;fontColor=#FFFFFF;" parent="ed8AZ3-YZBsXWsMalY9c-37" vertex="1">
          <mxGeometry y="60" width="420" height="26" as="geometry" />
        </mxCell>
        <mxCell id="ed8AZ3-YZBsXWsMalY9c-41" value="+ DataInteraction(): Task&amp;lt;HttpResponseData&amp;gt;" style="text;strokeColor=none;fillColor=none;align=left;verticalAlign=top;spacingLeft=4;spacingRight=4;overflow=hidden;rotatable=0;points=[[0,0.5],[1,0.5]];portConstraint=eastwest;whiteSpace=wrap;html=1;fontColor=#FFFFFF;" parent="ed8AZ3-YZBsXWsMalY9c-37" vertex="1">
          <mxGeometry y="86" width="420" height="26" as="geometry" />
        </mxCell>
        <mxCell id="ed8AZ3-YZBsXWsMalY9c-78" value="ModelDBItemCreate" style="swimlane;fontStyle=1;align=center;verticalAlign=top;childLayout=stackLayout;horizontal=1;startSize=26;horizontalStack=0;resizeParent=1;resizeParentMax=0;resizeLast=0;collapsible=1;marginBottom=0;whiteSpace=wrap;html=1;fillColor=#008a00;fillStyle=auto;glass=0;rounded=0;swimlaneLine=1;labelBackgroundColor=none;fontColor=#FFFFFF;strokeColor=#005700;" parent="1" vertex="1">
          <mxGeometry x="2605" y="626" width="420" height="86" as="geometry" />
        </mxCell>
        <mxCell id="ed8AZ3-YZBsXWsMalY9c-80" value="" style="line;strokeWidth=1;fillColor=none;align=left;verticalAlign=middle;spacingTop=-1;spacingLeft=3;spacingRight=3;rotatable=0;labelPosition=right;points=[];portConstraint=eastwest;strokeColor=inherit;fontColor=#FFFFFF;" parent="ed8AZ3-YZBsXWsMalY9c-78" vertex="1">
          <mxGeometry y="26" width="420" height="8" as="geometry" />
        </mxCell>
        <mxCell id="ed8AZ3-YZBsXWsMalY9c-81" value="+ DatabaseInsertAll(): static void" style="text;align=left;verticalAlign=top;spacingLeft=4;spacingRight=4;overflow=hidden;rotatable=0;points=[[0,0.5],[1,0.5]];portConstraint=eastwest;whiteSpace=wrap;html=1;fontColor=#FFFFFF;" parent="ed8AZ3-YZBsXWsMalY9c-78" vertex="1">
          <mxGeometry y="34" width="420" height="26" as="geometry" />
        </mxCell>
        <mxCell id="ed8AZ3-YZBsXWsMalY9c-82" value="+ DatabaseInsertRecord(): static void" style="text;strokeColor=none;fillColor=none;align=left;verticalAlign=top;spacingLeft=4;spacingRight=4;overflow=hidden;rotatable=0;points=[[0,0.5],[1,0.5]];portConstraint=eastwest;whiteSpace=wrap;html=1;fontColor=#FFFFFF;" parent="ed8AZ3-YZBsXWsMalY9c-78" vertex="1">
          <mxGeometry y="60" width="420" height="26" as="geometry" />
        </mxCell>
        <mxCell id="ed8AZ3-YZBsXWsMalY9c-83" value="ModelDBItemRead" style="swimlane;fontStyle=1;align=center;verticalAlign=top;childLayout=stackLayout;horizontal=1;startSize=26;horizontalStack=0;resizeParent=1;resizeParentMax=0;resizeLast=0;collapsible=1;marginBottom=0;whiteSpace=wrap;html=1;fillColor=#008a00;fillStyle=auto;glass=0;rounded=0;swimlaneLine=1;labelBackgroundColor=none;fontColor=#FFFFFF;strokeColor=#005700;" parent="1" vertex="1">
          <mxGeometry x="2605" y="758" width="420" height="60" as="geometry" />
        </mxCell>
        <mxCell id="ed8AZ3-YZBsXWsMalY9c-85" value="" style="line;strokeWidth=1;fillColor=none;align=left;verticalAlign=middle;spacingTop=-1;spacingLeft=3;spacingRight=3;rotatable=0;labelPosition=right;points=[];portConstraint=eastwest;strokeColor=inherit;fontColor=#FFFFFF;" parent="ed8AZ3-YZBsXWsMalY9c-83" vertex="1">
          <mxGeometry y="26" width="420" height="8" as="geometry" />
        </mxCell>
        <mxCell id="ed8AZ3-YZBsXWsMalY9c-86" value="+ DatabaseGet(): static Dictionary&amp;lt;string, List&amp;lt;Dictionary&amp;lt;string, string&amp;gt;&amp;gt;&amp;gt;" style="text;align=left;verticalAlign=top;spacingLeft=4;spacingRight=4;overflow=hidden;rotatable=0;points=[[0,0.5],[1,0.5]];portConstraint=eastwest;whiteSpace=wrap;html=1;fontColor=#FFFFFF;" parent="ed8AZ3-YZBsXWsMalY9c-83" vertex="1">
          <mxGeometry y="34" width="420" height="26" as="geometry" />
        </mxCell>
        <mxCell id="ed8AZ3-YZBsXWsMalY9c-88" value="ModelDBItemUpdate" style="swimlane;fontStyle=1;align=center;verticalAlign=top;childLayout=stackLayout;horizontal=1;startSize=26;horizontalStack=0;resizeParent=1;resizeParentMax=0;resizeLast=0;collapsible=1;marginBottom=0;whiteSpace=wrap;html=1;fillColor=#008a00;fillStyle=auto;glass=0;rounded=0;swimlaneLine=1;labelBackgroundColor=none;fontColor=#FFFFFF;strokeColor=#005700;" parent="1" vertex="1">
          <mxGeometry x="2605" y="888" width="420" height="86" as="geometry" />
        </mxCell>
        <mxCell id="ed8AZ3-YZBsXWsMalY9c-90" value="" style="line;strokeWidth=1;fillColor=none;align=left;verticalAlign=middle;spacingTop=-1;spacingLeft=3;spacingRight=3;rotatable=0;labelPosition=right;points=[];portConstraint=eastwest;strokeColor=inherit;fontColor=#FFFFFF;" parent="ed8AZ3-YZBsXWsMalY9c-88" vertex="1">
          <mxGeometry y="26" width="420" height="8" as="geometry" />
        </mxCell>
        <mxCell id="ed8AZ3-YZBsXWsMalY9c-91" value="+ UpdateAllRecords(): static void" style="text;align=left;verticalAlign=top;spacingLeft=4;spacingRight=4;overflow=hidden;rotatable=0;points=[[0,0.5],[1,0.5]];portConstraint=eastwest;whiteSpace=wrap;html=1;fontColor=#FFFFFF;" parent="ed8AZ3-YZBsXWsMalY9c-88" vertex="1">
          <mxGeometry y="34" width="420" height="26" as="geometry" />
        </mxCell>
        <mxCell id="ed8AZ3-YZBsXWsMalY9c-92" value="+ UpdateRecord(): static void" style="text;strokeColor=none;fillColor=none;align=left;verticalAlign=top;spacingLeft=4;spacingRight=4;overflow=hidden;rotatable=0;points=[[0,0.5],[1,0.5]];portConstraint=eastwest;whiteSpace=wrap;html=1;fontColor=#FFFFFF;" parent="ed8AZ3-YZBsXWsMalY9c-88" vertex="1">
          <mxGeometry y="60" width="420" height="26" as="geometry" />
        </mxCell>
        <mxCell id="ed8AZ3-YZBsXWsMalY9c-93" value="ModelDBItemDelete" style="swimlane;fontStyle=1;align=center;verticalAlign=top;childLayout=stackLayout;horizontal=1;startSize=26;horizontalStack=0;resizeParent=1;resizeParentMax=0;resizeLast=0;collapsible=1;marginBottom=0;whiteSpace=wrap;html=1;fillColor=#008a00;fillStyle=auto;glass=0;rounded=0;swimlaneLine=1;labelBackgroundColor=none;fontColor=#FFFFFF;strokeColor=#005700;" parent="1" vertex="1">
          <mxGeometry x="2605" y="1026" width="420" height="86" as="geometry" />
        </mxCell>
        <mxCell id="ed8AZ3-YZBsXWsMalY9c-95" value="" style="line;strokeWidth=1;fillColor=none;align=left;verticalAlign=middle;spacingTop=-1;spacingLeft=3;spacingRight=3;rotatable=0;labelPosition=right;points=[];portConstraint=eastwest;strokeColor=inherit;fontColor=#FFFFFF;" parent="ed8AZ3-YZBsXWsMalY9c-93" vertex="1">
          <mxGeometry y="26" width="420" height="8" as="geometry" />
        </mxCell>
        <mxCell id="ed8AZ3-YZBsXWsMalY9c-96" value="+ DatabaseDeleteAll(): static void" style="text;align=left;verticalAlign=top;spacingLeft=4;spacingRight=4;overflow=hidden;rotatable=0;points=[[0,0.5],[1,0.5]];portConstraint=eastwest;whiteSpace=wrap;html=1;fontColor=#FFFFFF;" parent="ed8AZ3-YZBsXWsMalY9c-93" vertex="1">
          <mxGeometry y="34" width="420" height="26" as="geometry" />
        </mxCell>
        <mxCell id="ed8AZ3-YZBsXWsMalY9c-97" value="+ DatabaseDeleteItem(): static void" style="text;strokeColor=none;fillColor=none;align=left;verticalAlign=top;spacingLeft=4;spacingRight=4;overflow=hidden;rotatable=0;points=[[0,0.5],[1,0.5]];portConstraint=eastwest;whiteSpace=wrap;html=1;fontColor=#FFFFFF;" parent="ed8AZ3-YZBsXWsMalY9c-93" vertex="1">
          <mxGeometry y="60" width="420" height="26" as="geometry" />
        </mxCell>
        <mxCell id="ed8AZ3-YZBsXWsMalY9c-98" value="ModelAccountInfo" style="swimlane;fontStyle=1;align=center;verticalAlign=top;childLayout=stackLayout;horizontal=1;startSize=26;horizontalStack=0;resizeParent=1;resizeParentMax=0;resizeLast=0;collapsible=1;marginBottom=0;whiteSpace=wrap;html=1;fillColor=#008a00;fillStyle=auto;glass=0;rounded=0;swimlaneLine=1;labelBackgroundColor=none;fontColor=#FFFFFF;strokeColor=#005700;" parent="1" vertex="1">
          <mxGeometry x="1590" y="1172" width="420" height="164" as="geometry" />
        </mxCell>
        <mxCell id="ed8AZ3-YZBsXWsMalY9c-99" value="- dataSource: string" style="text;strokeColor=none;fillColor=none;align=left;verticalAlign=top;spacingLeft=4;spacingRight=4;overflow=hidden;rotatable=0;points=[[0,0.5],[1,0.5]];portConstraint=eastwest;whiteSpace=wrap;html=1;fontColor=#FFFFFF;" parent="ed8AZ3-YZBsXWsMalY9c-98" vertex="1">
          <mxGeometry y="26" width="420" height="26" as="geometry" />
        </mxCell>
        <mxCell id="ed8AZ3-YZBsXWsMalY9c-107" value="- userId: string" style="text;strokeColor=none;fillColor=none;align=left;verticalAlign=top;spacingLeft=4;spacingRight=4;overflow=hidden;rotatable=0;points=[[0,0.5],[1,0.5]];portConstraint=eastwest;whiteSpace=wrap;html=1;fontColor=#FFFFFF;" parent="ed8AZ3-YZBsXWsMalY9c-98" vertex="1">
          <mxGeometry y="52" width="420" height="26" as="geometry" />
        </mxCell>
        <mxCell id="ed8AZ3-YZBsXWsMalY9c-109" value="- password: string" style="text;strokeColor=none;fillColor=none;align=left;verticalAlign=top;spacingLeft=4;spacingRight=4;overflow=hidden;rotatable=0;points=[[0,0.5],[1,0.5]];portConstraint=eastwest;whiteSpace=wrap;html=1;fontColor=#FFFFFF;" parent="ed8AZ3-YZBsXWsMalY9c-98" vertex="1">
          <mxGeometry y="78" width="420" height="26" as="geometry" />
        </mxCell>
        <mxCell id="ed8AZ3-YZBsXWsMalY9c-108" value="- initialCatalog: string" style="text;strokeColor=none;fillColor=none;align=left;verticalAlign=top;spacingLeft=4;spacingRight=4;overflow=hidden;rotatable=0;points=[[0,0.5],[1,0.5]];portConstraint=eastwest;whiteSpace=wrap;html=1;fontColor=#FFFFFF;" parent="ed8AZ3-YZBsXWsMalY9c-98" vertex="1">
          <mxGeometry y="104" width="420" height="26" as="geometry" />
        </mxCell>
        <mxCell id="ed8AZ3-YZBsXWsMalY9c-110" value="+ builder: SqlConnectionStringBuilder" style="text;strokeColor=none;fillColor=none;align=left;verticalAlign=top;spacingLeft=4;spacingRight=4;overflow=hidden;rotatable=0;points=[[0,0.5],[1,0.5]];portConstraint=eastwest;whiteSpace=wrap;html=1;fontColor=#FFFFFF;" parent="ed8AZ3-YZBsXWsMalY9c-98" vertex="1">
          <mxGeometry y="130" width="420" height="26" as="geometry" />
        </mxCell>
        <mxCell id="ed8AZ3-YZBsXWsMalY9c-100" value="" style="line;strokeWidth=1;fillColor=none;align=left;verticalAlign=middle;spacingTop=-1;spacingLeft=3;spacingRight=3;rotatable=0;labelPosition=right;points=[];portConstraint=eastwest;strokeColor=inherit;fontColor=#FFFFFF;" parent="ed8AZ3-YZBsXWsMalY9c-98" vertex="1">
          <mxGeometry y="156" width="420" height="8" as="geometry" />
        </mxCell>
        <mxCell id="ed8AZ3-YZBsXWsMalY9c-103" value="" style="endArrow=classic;html=1;rounded=0;exitX=0.75;exitY=0;exitDx=0;exitDy=0;entryX=0;entryY=0.5;entryDx=0;entryDy=0;fontColor=#FFFFFF;" parent="1" source="ed8AZ3-YZBsXWsMalY9c-98" target="ed8AZ3-YZBsXWsMalY9c-20" edge="1">
          <mxGeometry width="50" height="50" relative="1" as="geometry">
            <mxPoint x="2140" y="1082" as="sourcePoint" />
            <mxPoint x="2190" y="1032" as="targetPoint" />
            <Array as="points">
              <mxPoint x="1910" y="669" />
            </Array>
          </mxGeometry>
        </mxCell>
        <mxCell id="ed8AZ3-YZBsXWsMalY9c-104" value="" style="endArrow=classic;html=1;rounded=0;exitX=1;exitY=0;exitDx=0;exitDy=0;entryX=0;entryY=0.5;entryDx=0;entryDy=0;fontColor=#FFFFFF;" parent="1" source="ed8AZ3-YZBsXWsMalY9c-98" target="ed8AZ3-YZBsXWsMalY9c-27" edge="1">
          <mxGeometry width="50" height="50" relative="1" as="geometry">
            <mxPoint x="2180" y="1132" as="sourcePoint" />
            <mxPoint x="2230" y="1082" as="targetPoint" />
            <Array as="points">
              <mxPoint x="2010" y="802" />
            </Array>
          </mxGeometry>
        </mxCell>
        <mxCell id="ed8AZ3-YZBsXWsMalY9c-105" value="" style="endArrow=classic;html=1;rounded=0;exitX=1;exitY=0.5;exitDx=0;exitDy=0;entryX=0;entryY=0.5;entryDx=0;entryDy=0;fontColor=#FFFFFF;" parent="1" source="ed8AZ3-YZBsXWsMalY9c-99" target="ed8AZ3-YZBsXWsMalY9c-32" edge="1">
          <mxGeometry width="50" height="50" relative="1" as="geometry">
            <mxPoint x="2120" y="1122" as="sourcePoint" />
            <mxPoint x="2170" y="1072" as="targetPoint" />
            <Array as="points">
              <mxPoint x="2050" y="1211" />
              <mxPoint x="2050" y="932" />
            </Array>
          </mxGeometry>
        </mxCell>
        <mxCell id="ed8AZ3-YZBsXWsMalY9c-106" value="" style="endArrow=classic;html=1;rounded=0;exitX=1;exitY=0.5;exitDx=0;exitDy=0;entryX=0;entryY=0.5;entryDx=0;entryDy=0;fontColor=#FFFFFF;" parent="1" source="ed8AZ3-YZBsXWsMalY9c-107" target="ed8AZ3-YZBsXWsMalY9c-38" edge="1">
          <mxGeometry width="50" height="50" relative="1" as="geometry">
            <mxPoint x="2010" y="1349" as="sourcePoint" />
            <mxPoint x="2220" y="942" as="targetPoint" />
            <Array as="points">
              <mxPoint x="2070" y="1237" />
              <mxPoint x="2070" y="1069" />
            </Array>
          </mxGeometry>
        </mxCell>
        <mxCell id="ed8AZ3-YZBsXWsMalY9c-116" value="ModelDBConnect" style="swimlane;fontStyle=1;align=center;verticalAlign=top;childLayout=stackLayout;horizontal=1;startSize=26;horizontalStack=0;resizeParent=1;resizeParentMax=0;resizeLast=0;collapsible=1;marginBottom=0;whiteSpace=wrap;html=1;fillColor=#008a00;fillStyle=auto;glass=0;rounded=0;swimlaneLine=1;labelBackgroundColor=none;fontColor=#FFFFFF;strokeColor=#005700;" parent="1" vertex="1">
          <mxGeometry x="3130" y="1026" width="420" height="138" as="geometry" />
        </mxCell>
        <mxCell id="ed8AZ3-YZBsXWsMalY9c-118" value="" style="line;strokeWidth=1;fillColor=none;align=left;verticalAlign=middle;spacingTop=-1;spacingLeft=3;spacingRight=3;rotatable=0;labelPosition=right;points=[];portConstraint=eastwest;strokeColor=inherit;fontColor=#FFFFFF;" parent="ed8AZ3-YZBsXWsMalY9c-116" vertex="1">
          <mxGeometry y="26" width="420" height="8" as="geometry" />
        </mxCell>
        <mxCell id="ed8AZ3-YZBsXWsMalY9c-119" value="+ OpenConnection(): static void" style="text;align=left;verticalAlign=top;spacingLeft=4;spacingRight=4;overflow=hidden;rotatable=0;points=[[0,0.5],[1,0.5]];portConstraint=eastwest;whiteSpace=wrap;html=1;fontColor=#FFFFFF;" parent="ed8AZ3-YZBsXWsMalY9c-116" vertex="1">
          <mxGeometry y="34" width="420" height="26" as="geometry" />
        </mxCell>
        <mxCell id="ed8AZ3-YZBsXWsMalY9c-120" value="+ CloseConnection(): static void" style="text;strokeColor=none;fillColor=none;align=left;verticalAlign=top;spacingLeft=4;spacingRight=4;overflow=hidden;rotatable=0;points=[[0,0.5],[1,0.5]];portConstraint=eastwest;whiteSpace=wrap;html=1;fontColor=#FFFFFF;" parent="ed8AZ3-YZBsXWsMalY9c-116" vertex="1">
          <mxGeometry y="60" width="420" height="26" as="geometry" />
        </mxCell>
        <mxCell id="ed8AZ3-YZBsXWsMalY9c-121" value="+ LogConnectionError(): static void" style="text;strokeColor=none;fillColor=none;align=left;verticalAlign=top;spacingLeft=4;spacingRight=4;overflow=hidden;rotatable=0;points=[[0,0.5],[1,0.5]];portConstraint=eastwest;whiteSpace=wrap;html=1;fontColor=#FFFFFF;" parent="ed8AZ3-YZBsXWsMalY9c-116" vertex="1">
          <mxGeometry y="86" width="420" height="26" as="geometry" />
        </mxCell>
        <mxCell id="ed8AZ3-YZBsXWsMalY9c-122" value="+ AccessDatabase(): &amp;nbsp;List&amp;lt;Dictionary&amp;lt;string, string&amp;gt;&amp;gt;" style="text;strokeColor=none;fillColor=none;align=left;verticalAlign=top;spacingLeft=4;spacingRight=4;overflow=hidden;rotatable=0;points=[[0,0.5],[1,0.5]];portConstraint=eastwest;whiteSpace=wrap;html=1;fontColor=#FFFFFF;" parent="ed8AZ3-YZBsXWsMalY9c-116" vertex="1">
          <mxGeometry y="112" width="420" height="26" as="geometry" />
        </mxCell>
        <mxCell id="ed8AZ3-YZBsXWsMalY9c-127" value="" style="endArrow=classic;startArrow=classic;html=1;rounded=0;exitX=0;exitY=0.5;exitDx=0;exitDy=0;entryX=1;entryY=0.5;entryDx=0;entryDy=0;fontColor=#FFFFFF;" parent="1" source="ed8AZ3-YZBsXWsMalY9c-122" target="ed8AZ3-YZBsXWsMalY9c-96" edge="1">
          <mxGeometry width="50" height="50" relative="1" as="geometry">
            <mxPoint x="3200" y="968" as="sourcePoint" />
            <mxPoint x="3250" y="918" as="targetPoint" />
            <Array as="points">
              <mxPoint x="3050" y="1151" />
              <mxPoint x="3050" y="1073" />
            </Array>
          </mxGeometry>
        </mxCell>
        <mxCell id="ed8AZ3-YZBsXWsMalY9c-128" value="" style="endArrow=classic;startArrow=classic;html=1;rounded=0;exitX=0;exitY=0.5;exitDx=0;exitDy=0;entryX=1;entryY=0.5;entryDx=0;entryDy=0;fontColor=#FFFFFF;" parent="1" source="ed8AZ3-YZBsXWsMalY9c-121" target="ed8AZ3-YZBsXWsMalY9c-91" edge="1">
          <mxGeometry width="50" height="50" relative="1" as="geometry">
            <mxPoint x="3140" y="1161" as="sourcePoint" />
            <mxPoint x="3035" y="1083" as="targetPoint" />
            <Array as="points">
              <mxPoint x="3070" y="1125" />
              <mxPoint x="3070" y="935" />
            </Array>
          </mxGeometry>
        </mxCell>
        <mxCell id="ed8AZ3-YZBsXWsMalY9c-131" value="" style="endArrow=classic;startArrow=classic;html=1;rounded=0;exitX=0;exitY=0.5;exitDx=0;exitDy=0;entryX=1;entryY=0.5;entryDx=0;entryDy=0;fontColor=#FFFFFF;" parent="1" source="ed8AZ3-YZBsXWsMalY9c-120" target="ed8AZ3-YZBsXWsMalY9c-86" edge="1">
          <mxGeometry width="50" height="50" relative="1" as="geometry">
            <mxPoint x="3140" y="1135" as="sourcePoint" />
            <mxPoint x="3035" y="945" as="targetPoint" />
            <Array as="points">
              <mxPoint x="3080" y="1098" />
              <mxPoint x="3080" y="805" />
            </Array>
          </mxGeometry>
        </mxCell>
        <mxCell id="ed8AZ3-YZBsXWsMalY9c-132" value="" style="endArrow=classic;startArrow=classic;html=1;rounded=0;exitX=0;exitY=0.5;exitDx=0;exitDy=0;entryX=1;entryY=0.5;entryDx=0;entryDy=0;fontColor=#FFFFFF;" parent="1" source="ed8AZ3-YZBsXWsMalY9c-119" target="ed8AZ3-YZBsXWsMalY9c-81" edge="1">
          <mxGeometry width="50" height="50" relative="1" as="geometry">
            <mxPoint x="3140" y="1109" as="sourcePoint" />
            <mxPoint x="3035" y="815" as="targetPoint" />
            <Array as="points">
              <mxPoint x="3090" y="1073" />
              <mxPoint x="3090" y="673" />
            </Array>
          </mxGeometry>
        </mxCell>
        <mxCell id="ed8AZ3-YZBsXWsMalY9c-133" value="" style="endArrow=classic;html=1;rounded=0;fontColor=#FFFFFF;" parent="1" source="ed8AZ3-YZBsXWsMalY9c-37" target="ed8AZ3-YZBsXWsMalY9c-93" edge="1">
          <mxGeometry width="50" height="50" relative="1" as="geometry">
            <mxPoint x="2640" y="1052" as="sourcePoint" />
            <mxPoint x="2690" y="1002" as="targetPoint" />
          </mxGeometry>
        </mxCell>
        <mxCell id="ed8AZ3-YZBsXWsMalY9c-134" value="" style="endArrow=classic;html=1;rounded=0;fontColor=#FFFFFF;" parent="1" source="ed8AZ3-YZBsXWsMalY9c-31" target="ed8AZ3-YZBsXWsMalY9c-88" edge="1">
          <mxGeometry width="50" height="50" relative="1" as="geometry">
            <mxPoint x="2640" y="1052" as="sourcePoint" />
            <mxPoint x="2690" y="1002" as="targetPoint" />
          </mxGeometry>
        </mxCell>
        <mxCell id="ed8AZ3-YZBsXWsMalY9c-135" value="" style="endArrow=classic;html=1;rounded=0;fontColor=#FFFFFF;" parent="1" source="ed8AZ3-YZBsXWsMalY9c-26" target="ed8AZ3-YZBsXWsMalY9c-83" edge="1">
          <mxGeometry width="50" height="50" relative="1" as="geometry">
            <mxPoint x="2640" y="1052" as="sourcePoint" />
            <mxPoint x="2690" y="1002" as="targetPoint" />
          </mxGeometry>
        </mxCell>
        <mxCell id="ed8AZ3-YZBsXWsMalY9c-136" value="" style="endArrow=classic;html=1;rounded=0;fontColor=#FFFFFF;" parent="1" source="ed8AZ3-YZBsXWsMalY9c-19" target="ed8AZ3-YZBsXWsMalY9c-78" edge="1">
          <mxGeometry width="50" height="50" relative="1" as="geometry">
            <mxPoint x="2640" y="1052" as="sourcePoint" />
            <mxPoint x="2690" y="1002" as="targetPoint" />
          </mxGeometry>
        </mxCell>
        <mxCell id="ed8AZ3-YZBsXWsMalY9c-138" value="" style="endArrow=classic;startArrow=classic;html=1;rounded=0;exitX=1;exitY=0.5;exitDx=0;exitDy=0;fontColor=#FFFFFF;entryX=0;entryY=0.5;entryDx=0;entryDy=0;" parent="1" source="ed8AZ3-YZBsXWsMalY9c-119" target="vY6ipT4XKTIDUt76BxjS-1" edge="1">
          <mxGeometry width="50" height="50" relative="1" as="geometry">
            <mxPoint x="3680" y="870" as="sourcePoint" />
            <mxPoint x="3647" y="832.4505211042001" as="targetPoint" />
            <Array as="points">
              <mxPoint x="3580" y="1073" />
              <mxPoint x="3580" y="1511" />
            </Array>
          </mxGeometry>
        </mxCell>
        <mxCell id="ed8AZ3-YZBsXWsMalY9c-139" value="ModelIOTInfo" style="swimlane;fontStyle=1;align=center;verticalAlign=top;childLayout=stackLayout;horizontal=1;startSize=26;horizontalStack=0;resizeParent=1;resizeParentMax=0;resizeLast=0;collapsible=1;marginBottom=0;whiteSpace=wrap;html=1;fillColor=#008a00;fillStyle=auto;glass=0;rounded=0;swimlaneLine=1;labelBackgroundColor=none;fontColor=#FFFFFF;strokeColor=#005700;" parent="1" vertex="1">
          <mxGeometry x="1590" y="1650" width="420" height="86" as="geometry" />
        </mxCell>
        <mxCell id="ed8AZ3-YZBsXWsMalY9c-140" value="+ connectionString" style="text;strokeColor=none;fillColor=none;align=left;verticalAlign=top;spacingLeft=4;spacingRight=4;overflow=hidden;rotatable=0;points=[[0,0.5],[1,0.5]];portConstraint=eastwest;whiteSpace=wrap;html=1;fontColor=#FFFFFF;" parent="ed8AZ3-YZBsXWsMalY9c-139" vertex="1">
          <mxGeometry y="26" width="420" height="26" as="geometry" />
        </mxCell>
        <mxCell id="ed8AZ3-YZBsXWsMalY9c-141" value="+ deviceId" style="text;strokeColor=none;fillColor=none;align=left;verticalAlign=top;spacingLeft=4;spacingRight=4;overflow=hidden;rotatable=0;points=[[0,0.5],[1,0.5]];portConstraint=eastwest;whiteSpace=wrap;html=1;fontColor=#FFFFFF;" parent="ed8AZ3-YZBsXWsMalY9c-139" vertex="1">
          <mxGeometry y="52" width="420" height="26" as="geometry" />
        </mxCell>
        <mxCell id="ed8AZ3-YZBsXWsMalY9c-145" value="" style="line;strokeWidth=1;fillColor=none;align=left;verticalAlign=middle;spacingTop=-1;spacingLeft=3;spacingRight=3;rotatable=0;labelPosition=right;points=[];portConstraint=eastwest;strokeColor=inherit;fontColor=#FFFFFF;" parent="ed8AZ3-YZBsXWsMalY9c-139" vertex="1">
          <mxGeometry y="78" width="420" height="8" as="geometry" />
        </mxCell>
        <mxCell id="ed8AZ3-YZBsXWsMalY9c-146" value="EGEDBItemCreate" style="swimlane;fontStyle=1;align=center;verticalAlign=top;childLayout=stackLayout;horizontal=1;startSize=26;horizontalStack=0;resizeParent=1;resizeParentMax=0;resizeLast=0;collapsible=1;marginBottom=0;whiteSpace=wrap;html=1;fillColor=#008a00;fillStyle=auto;glass=0;rounded=0;swimlaneLine=1;labelBackgroundColor=none;fontColor=#FFFFFF;strokeColor=#005700;" parent="1" vertex="1">
          <mxGeometry x="2100" y="494" width="420" height="86" as="geometry" />
        </mxCell>
        <mxCell id="ed8AZ3-YZBsXWsMalY9c-147" value="- logger: ILogger&amp;lt;HttpDBItemCreate&amp;gt;" style="text;strokeColor=none;fillColor=none;align=left;verticalAlign=top;spacingLeft=4;spacingRight=4;overflow=hidden;rotatable=0;points=[[0,0.5],[1,0.5]];portConstraint=eastwest;whiteSpace=wrap;html=1;fontColor=#FFFFFF;" parent="ed8AZ3-YZBsXWsMalY9c-146" vertex="1">
          <mxGeometry y="26" width="420" height="26" as="geometry" />
        </mxCell>
        <mxCell id="ed8AZ3-YZBsXWsMalY9c-148" value="" style="line;strokeWidth=1;fillColor=none;align=left;verticalAlign=middle;spacingTop=-1;spacingLeft=3;spacingRight=3;rotatable=0;labelPosition=right;points=[];portConstraint=eastwest;strokeColor=inherit;fontColor=#FFFFFF;" parent="ed8AZ3-YZBsXWsMalY9c-146" vertex="1">
          <mxGeometry y="52" width="420" height="8" as="geometry" />
        </mxCell>
        <mxCell id="ed8AZ3-YZBsXWsMalY9c-149" value="+ IotDeviceSendData():&amp;nbsp;IActionResult" style="text;align=left;verticalAlign=top;spacingLeft=4;spacingRight=4;overflow=hidden;rotatable=0;points=[[0,0.5],[1,0.5]];portConstraint=eastwest;whiteSpace=wrap;html=1;fontColor=#FFFFFF;" parent="ed8AZ3-YZBsXWsMalY9c-146" vertex="1">
          <mxGeometry y="60" width="420" height="26" as="geometry" />
        </mxCell>
        <mxCell id="ed8AZ3-YZBsXWsMalY9c-151" value="" style="endArrow=classic;html=1;rounded=0;exitX=0.5;exitY=0;exitDx=0;exitDy=0;entryX=0;entryY=0.5;entryDx=0;entryDy=0;fontColor=#FFFFFF;" parent="1" source="ed8AZ3-YZBsXWsMalY9c-98" target="ed8AZ3-YZBsXWsMalY9c-147" edge="1">
          <mxGeometry width="50" height="50" relative="1" as="geometry">
            <mxPoint x="2300" y="980" as="sourcePoint" />
            <mxPoint x="2350" y="930" as="targetPoint" />
            <Array as="points">
              <mxPoint x="1800" y="533" />
            </Array>
          </mxGeometry>
        </mxCell>
        <mxCell id="ed8AZ3-YZBsXWsMalY9c-152" value="" style="endArrow=classic;html=1;rounded=0;exitX=1;exitY=0.5;exitDx=0;exitDy=0;entryX=0.5;entryY=0;entryDx=0;entryDy=0;fontColor=#FFFFFF;" parent="1" source="ed8AZ3-YZBsXWsMalY9c-147" target="ed8AZ3-YZBsXWsMalY9c-78" edge="1">
          <mxGeometry width="50" height="50" relative="1" as="geometry">
            <mxPoint x="2700" y="740" as="sourcePoint" />
            <mxPoint x="2750" y="690" as="targetPoint" />
            <Array as="points">
              <mxPoint x="2815" y="533" />
            </Array>
          </mxGeometry>
        </mxCell>
        <mxCell id="ed8AZ3-YZBsXWsMalY9c-153" value="HttpDBTableCreate" style="swimlane;fontStyle=1;align=center;verticalAlign=top;childLayout=stackLayout;horizontal=1;startSize=26;horizontalStack=0;resizeParent=1;resizeParentMax=0;resizeLast=0;collapsible=1;marginBottom=0;whiteSpace=wrap;html=1;fillColor=#008a00;fillStyle=auto;glass=0;rounded=0;swimlaneLine=1;labelBackgroundColor=none;fontColor=#FFFFFF;strokeColor=#005700;" parent="1" vertex="1">
          <mxGeometry x="2095" y="1168" width="420" height="112" as="geometry" />
        </mxCell>
        <mxCell id="ed8AZ3-YZBsXWsMalY9c-154" value="- logger: ILogger&amp;lt;HttpDBItemDelete&amp;gt;" style="text;strokeColor=none;fillColor=none;align=left;verticalAlign=top;spacingLeft=4;spacingRight=4;overflow=hidden;rotatable=0;points=[[0,0.5],[1,0.5]];portConstraint=eastwest;whiteSpace=wrap;html=1;fontColor=#FFFFFF;" parent="ed8AZ3-YZBsXWsMalY9c-153" vertex="1">
          <mxGeometry y="26" width="420" height="26" as="geometry" />
        </mxCell>
        <mxCell id="ed8AZ3-YZBsXWsMalY9c-155" value="" style="line;strokeWidth=1;fillColor=none;align=left;verticalAlign=middle;spacingTop=-1;spacingLeft=3;spacingRight=3;rotatable=0;labelPosition=right;points=[];portConstraint=eastwest;strokeColor=inherit;fontColor=#FFFFFF;" parent="ed8AZ3-YZBsXWsMalY9c-153" vertex="1">
          <mxGeometry y="52" width="420" height="8" as="geometry" />
        </mxCell>
        <mxCell id="ed8AZ3-YZBsXWsMalY9c-156" value="- CreateTables(): Task&amp;lt;HttpResponseData&amp;gt;" style="text;align=left;verticalAlign=top;spacingLeft=4;spacingRight=4;overflow=hidden;rotatable=0;points=[[0,0.5],[1,0.5]];portConstraint=eastwest;whiteSpace=wrap;html=1;fontColor=#FFFFFF;" parent="ed8AZ3-YZBsXWsMalY9c-153" vertex="1">
          <mxGeometry y="60" width="420" height="26" as="geometry" />
        </mxCell>
        <mxCell id="ed8AZ3-YZBsXWsMalY9c-157" value="+ CreateTable(): Task&amp;lt;HttpResponseData&amp;gt;" style="text;strokeColor=none;fillColor=none;align=left;verticalAlign=top;spacingLeft=4;spacingRight=4;overflow=hidden;rotatable=0;points=[[0,0.5],[1,0.5]];portConstraint=eastwest;whiteSpace=wrap;html=1;fontColor=#FFFFFF;" parent="ed8AZ3-YZBsXWsMalY9c-153" vertex="1">
          <mxGeometry y="86" width="420" height="26" as="geometry" />
        </mxCell>
        <mxCell id="ed8AZ3-YZBsXWsMalY9c-163" value="HttpDBTableRead (not finished)" style="swimlane;fontStyle=1;align=center;verticalAlign=top;childLayout=stackLayout;horizontal=1;startSize=26;horizontalStack=0;resizeParent=1;resizeParentMax=0;resizeLast=0;collapsible=1;marginBottom=0;whiteSpace=wrap;html=1;fillColor=#008a00;fillStyle=auto;glass=0;rounded=0;swimlaneLine=1;labelBackgroundColor=none;fontColor=#FFFFFF;strokeColor=#005700;" parent="1" vertex="1">
          <mxGeometry x="2090" y="1300" width="420" height="86" as="geometry" />
        </mxCell>
        <mxCell id="ed8AZ3-YZBsXWsMalY9c-164" value="- logger: ILogger&amp;lt;HttpDBItemDelete&amp;gt;" style="text;strokeColor=none;fillColor=none;align=left;verticalAlign=top;spacingLeft=4;spacingRight=4;overflow=hidden;rotatable=0;points=[[0,0.5],[1,0.5]];portConstraint=eastwest;whiteSpace=wrap;html=1;fontColor=#FFFFFF;" parent="ed8AZ3-YZBsXWsMalY9c-163" vertex="1">
          <mxGeometry y="26" width="420" height="26" as="geometry" />
        </mxCell>
        <mxCell id="ed8AZ3-YZBsXWsMalY9c-165" value="" style="line;strokeWidth=1;fillColor=none;align=left;verticalAlign=middle;spacingTop=-1;spacingLeft=3;spacingRight=3;rotatable=0;labelPosition=right;points=[];portConstraint=eastwest;strokeColor=inherit;fontColor=#FFFFFF;" parent="ed8AZ3-YZBsXWsMalY9c-163" vertex="1">
          <mxGeometry y="52" width="420" height="8" as="geometry" />
        </mxCell>
        <mxCell id="ed8AZ3-YZBsXWsMalY9c-166" value="- Run(): Task&amp;lt;HttpResponseData&amp;gt;" style="text;align=left;verticalAlign=top;spacingLeft=4;spacingRight=4;overflow=hidden;rotatable=0;points=[[0,0.5],[1,0.5]];portConstraint=eastwest;whiteSpace=wrap;html=1;fontColor=#FFFFFF;" parent="ed8AZ3-YZBsXWsMalY9c-163" vertex="1">
          <mxGeometry y="60" width="420" height="26" as="geometry" />
        </mxCell>
        <mxCell id="ed8AZ3-YZBsXWsMalY9c-168" value="" style="endArrow=classic;html=1;rounded=0;exitX=1;exitY=0.5;exitDx=0;exitDy=0;entryX=0;entryY=0.5;entryDx=0;entryDy=0;fontColor=#FFFFFF;" parent="1" source="ed8AZ3-YZBsXWsMalY9c-109" target="ed8AZ3-YZBsXWsMalY9c-164" edge="1">
          <mxGeometry width="50" height="50" relative="1" as="geometry">
            <mxPoint x="2590" y="1250" as="sourcePoint" />
            <mxPoint x="2640" y="1200" as="targetPoint" />
            <Array as="points">
              <mxPoint x="2070" y="1263" />
              <mxPoint x="2070" y="1339" />
            </Array>
          </mxGeometry>
        </mxCell>
        <mxCell id="ed8AZ3-YZBsXWsMalY9c-169" value="ModelDBTableCreate" style="swimlane;fontStyle=1;align=center;verticalAlign=top;childLayout=stackLayout;horizontal=1;startSize=26;horizontalStack=0;resizeParent=1;resizeParentMax=0;resizeLast=0;collapsible=1;marginBottom=0;whiteSpace=wrap;html=1;fillColor=#008a00;fillStyle=auto;glass=0;rounded=0;swimlaneLine=1;labelBackgroundColor=none;fontColor=#FFFFFF;strokeColor=#005700;" parent="1" vertex="1">
          <mxGeometry x="2607.5" y="1164" width="420" height="86" as="geometry" />
        </mxCell>
        <mxCell id="ed8AZ3-YZBsXWsMalY9c-171" value="" style="line;strokeWidth=1;fillColor=none;align=left;verticalAlign=middle;spacingTop=-1;spacingLeft=3;spacingRight=3;rotatable=0;labelPosition=right;points=[];portConstraint=eastwest;strokeColor=inherit;fontColor=#FFFFFF;" parent="ed8AZ3-YZBsXWsMalY9c-169" vertex="1">
          <mxGeometry y="26" width="420" height="8" as="geometry" />
        </mxCell>
        <mxCell id="ed8AZ3-YZBsXWsMalY9c-173" value="- CreateNewTable(): static bool" style="text;strokeColor=none;fillColor=none;align=left;verticalAlign=top;spacingLeft=4;spacingRight=4;overflow=hidden;rotatable=0;points=[[0,0.5],[1,0.5]];portConstraint=eastwest;whiteSpace=wrap;html=1;fontColor=#FFFFFF;" parent="ed8AZ3-YZBsXWsMalY9c-169" vertex="1">
          <mxGeometry y="34" width="420" height="26" as="geometry" />
        </mxCell>
        <mxCell id="ed8AZ3-YZBsXWsMalY9c-172" value="+ CreateTables(): static bool" style="text;align=left;verticalAlign=top;spacingLeft=4;spacingRight=4;overflow=hidden;rotatable=0;points=[[0,0.5],[1,0.5]];portConstraint=eastwest;whiteSpace=wrap;html=1;fontColor=#FFFFFF;" parent="ed8AZ3-YZBsXWsMalY9c-169" vertex="1">
          <mxGeometry y="60" width="420" height="26" as="geometry" />
        </mxCell>
        <mxCell id="ed8AZ3-YZBsXWsMalY9c-179" value="" style="endArrow=classic;html=1;rounded=0;fontColor=#FFFFFF;" parent="1" source="ed8AZ3-YZBsXWsMalY9c-153" target="ed8AZ3-YZBsXWsMalY9c-169" edge="1">
          <mxGeometry width="50" height="50" relative="1" as="geometry">
            <mxPoint x="2670" y="1170" as="sourcePoint" />
            <mxPoint x="2720" y="1120" as="targetPoint" />
          </mxGeometry>
        </mxCell>
        <mxCell id="ed8AZ3-YZBsXWsMalY9c-181" value="" style="endArrow=classic;startArrow=classic;html=1;rounded=0;exitX=1;exitY=0.5;exitDx=0;exitDy=0;fontColor=#FFFFFF;" parent="1" source="ed8AZ3-YZBsXWsMalY9c-173" target="ed8AZ3-YZBsXWsMalY9c-122" edge="1">
          <mxGeometry width="50" height="50" relative="1" as="geometry">
            <mxPoint x="3050" y="1236" as="sourcePoint" />
            <mxPoint x="3100" y="1186" as="targetPoint" />
            <Array as="points">
              <mxPoint x="3340" y="1211" />
            </Array>
          </mxGeometry>
        </mxCell>
        <mxCell id="ed8AZ3-YZBsXWsMalY9c-182" value="HttpIOTHubCommand" style="swimlane;fontStyle=1;align=center;verticalAlign=top;childLayout=stackLayout;horizontal=1;startSize=26;horizontalStack=0;resizeParent=1;resizeParentMax=0;resizeLast=0;collapsible=1;marginBottom=0;whiteSpace=wrap;html=1;fillColor=#008a00;fillStyle=auto;glass=0;rounded=0;swimlaneLine=1;labelBackgroundColor=none;fontColor=#FFFFFF;strokeColor=#005700;" parent="1" vertex="1">
          <mxGeometry x="2090" y="1650" width="420" height="112" as="geometry" />
        </mxCell>
        <mxCell id="ed8AZ3-YZBsXWsMalY9c-183" value="- logger: ILogger&amp;lt;HttpDBItemDelete&amp;gt;" style="text;strokeColor=none;fillColor=none;align=left;verticalAlign=top;spacingLeft=4;spacingRight=4;overflow=hidden;rotatable=0;points=[[0,0.5],[1,0.5]];portConstraint=eastwest;whiteSpace=wrap;html=1;fontColor=#FFFFFF;" parent="ed8AZ3-YZBsXWsMalY9c-182" vertex="1">
          <mxGeometry y="26" width="420" height="26" as="geometry" />
        </mxCell>
        <mxCell id="ed8AZ3-YZBsXWsMalY9c-184" value="" style="line;strokeWidth=1;fillColor=none;align=left;verticalAlign=middle;spacingTop=-1;spacingLeft=3;spacingRight=3;rotatable=0;labelPosition=right;points=[];portConstraint=eastwest;strokeColor=inherit;fontColor=#FFFFFF;" parent="ed8AZ3-YZBsXWsMalY9c-182" vertex="1">
          <mxGeometry y="52" width="420" height="8" as="geometry" />
        </mxCell>
        <mxCell id="ed8AZ3-YZBsXWsMalY9c-186" value="- SendMqttCommandAsync(): Task&amp;lt;Task&amp;gt;" style="text;strokeColor=none;fillColor=none;align=left;verticalAlign=top;spacingLeft=4;spacingRight=4;overflow=hidden;rotatable=0;points=[[0,0.5],[1,0.5]];portConstraint=eastwest;whiteSpace=wrap;html=1;fontColor=#FFFFFF;" parent="ed8AZ3-YZBsXWsMalY9c-182" vertex="1">
          <mxGeometry y="60" width="420" height="26" as="geometry" />
        </mxCell>
        <mxCell id="ed8AZ3-YZBsXWsMalY9c-185" value="+ SendCommand(): Task&amp;lt;IActionResult&amp;gt;" style="text;align=left;verticalAlign=top;spacingLeft=4;spacingRight=4;overflow=hidden;rotatable=0;points=[[0,0.5],[1,0.5]];portConstraint=eastwest;whiteSpace=wrap;html=1;fontColor=#FFFFFF;" parent="ed8AZ3-YZBsXWsMalY9c-182" vertex="1">
          <mxGeometry y="86" width="420" height="26" as="geometry" />
        </mxCell>
        <mxCell id="ed8AZ3-YZBsXWsMalY9c-187" value="" style="endArrow=classic;html=1;rounded=0;entryX=0;entryY=0.5;entryDx=0;entryDy=0;exitX=1;exitY=0.5;exitDx=0;exitDy=0;fontColor=#FFFFFF;" parent="1" source="ed8AZ3-YZBsXWsMalY9c-140" target="ed8AZ3-YZBsXWsMalY9c-183" edge="1">
          <mxGeometry width="50" height="50" relative="1" as="geometry">
            <mxPoint x="2750" y="1390" as="sourcePoint" />
            <mxPoint x="2800" y="1340" as="targetPoint" />
          </mxGeometry>
        </mxCell>
        <mxCell id="ed8AZ3-YZBsXWsMalY9c-188" value="Iot Hub" style="rounded=1;whiteSpace=wrap;html=1;verticalAlign=middle;align=center;gradientColor=none;strokeColor=none;fontSize=50;fontStyle=1;spacing=100;glass=0;fillColor=#9933FF;fontColor=#FFFFFF;" parent="1" vertex="1">
          <mxGeometry x="3647" y="1640" width="433.1" height="222" as="geometry" />
        </mxCell>
        <mxCell id="ed8AZ3-YZBsXWsMalY9c-190" value="" style="endArrow=classic;html=1;rounded=0;exitX=1;exitY=0.5;exitDx=0;exitDy=0;entryX=0;entryY=0.5;entryDx=0;entryDy=0;fontColor=#FFFFFF;" parent="1" source="ed8AZ3-YZBsXWsMalY9c-183" target="ed8AZ3-YZBsXWsMalY9c-188" edge="1">
          <mxGeometry width="50" height="50" relative="1" as="geometry">
            <mxPoint x="3340" y="1610" as="sourcePoint" />
            <mxPoint x="3390" y="1560" as="targetPoint" />
            <Array as="points">
              <mxPoint x="3250" y="1689" />
              <mxPoint x="3250" y="1750" />
            </Array>
          </mxGeometry>
        </mxCell>
        <mxCell id="ed8AZ3-YZBsXWsMalY9c-191" value="Raspberry Pi / Pico" style="rounded=1;whiteSpace=wrap;html=1;verticalAlign=middle;align=center;gradientColor=none;strokeColor=none;fontSize=80;fontStyle=1;spacing=100;glass=0;fillColor=#9933FF;fontColor=#FFFFFF;" parent="1" vertex="1">
          <mxGeometry x="4500" y="1184" width="592.9" height="578" as="geometry" />
        </mxCell>
        <mxCell id="ed8AZ3-YZBsXWsMalY9c-198" value="HttpDBTableUpdate (not finished)" style="swimlane;fontStyle=1;align=center;verticalAlign=top;childLayout=stackLayout;horizontal=1;startSize=26;horizontalStack=0;resizeParent=1;resizeParentMax=0;resizeLast=0;collapsible=1;marginBottom=0;whiteSpace=wrap;html=1;fillColor=#008a00;fillStyle=auto;glass=0;rounded=0;swimlaneLine=1;labelBackgroundColor=none;fontColor=#FFFFFF;strokeColor=#005700;" parent="1" vertex="1">
          <mxGeometry x="2090" y="1410" width="420" height="86" as="geometry" />
        </mxCell>
        <mxCell id="ed8AZ3-YZBsXWsMalY9c-199" value="- logger: ILogger&amp;lt;HttpDBItemDelete&amp;gt;" style="text;strokeColor=none;fillColor=none;align=left;verticalAlign=top;spacingLeft=4;spacingRight=4;overflow=hidden;rotatable=0;points=[[0,0.5],[1,0.5]];portConstraint=eastwest;whiteSpace=wrap;html=1;fontColor=#FFFFFF;" parent="ed8AZ3-YZBsXWsMalY9c-198" vertex="1">
          <mxGeometry y="26" width="420" height="26" as="geometry" />
        </mxCell>
        <mxCell id="ed8AZ3-YZBsXWsMalY9c-200" value="" style="line;strokeWidth=1;fillColor=none;align=left;verticalAlign=middle;spacingTop=-1;spacingLeft=3;spacingRight=3;rotatable=0;labelPosition=right;points=[];portConstraint=eastwest;strokeColor=inherit;fontColor=#FFFFFF;" parent="ed8AZ3-YZBsXWsMalY9c-198" vertex="1">
          <mxGeometry y="52" width="420" height="8" as="geometry" />
        </mxCell>
        <mxCell id="ed8AZ3-YZBsXWsMalY9c-201" value="- Run(): Task&amp;lt;HttpResponseData&amp;gt;" style="text;align=left;verticalAlign=top;spacingLeft=4;spacingRight=4;overflow=hidden;rotatable=0;points=[[0,0.5],[1,0.5]];portConstraint=eastwest;whiteSpace=wrap;html=1;fontColor=#FFFFFF;" parent="ed8AZ3-YZBsXWsMalY9c-198" vertex="1">
          <mxGeometry y="60" width="420" height="26" as="geometry" />
        </mxCell>
        <mxCell id="ed8AZ3-YZBsXWsMalY9c-203" value="HttpDBTableDelete (not finished)" style="swimlane;fontStyle=1;align=center;verticalAlign=top;childLayout=stackLayout;horizontal=1;startSize=26;horizontalStack=0;resizeParent=1;resizeParentMax=0;resizeLast=0;collapsible=1;marginBottom=0;whiteSpace=wrap;html=1;fillColor=#008a00;fillStyle=auto;glass=0;rounded=0;swimlaneLine=1;labelBackgroundColor=none;fontColor=#FFFFFF;strokeColor=#005700;" parent="1" vertex="1">
          <mxGeometry x="2090" y="1520" width="420" height="86" as="geometry" />
        </mxCell>
        <mxCell id="ed8AZ3-YZBsXWsMalY9c-204" value="- logger: ILogger&amp;lt;HttpDBItemDelete&amp;gt;" style="text;strokeColor=none;fillColor=none;align=left;verticalAlign=top;spacingLeft=4;spacingRight=4;overflow=hidden;rotatable=0;points=[[0,0.5],[1,0.5]];portConstraint=eastwest;whiteSpace=wrap;html=1;fontColor=#FFFFFF;" parent="ed8AZ3-YZBsXWsMalY9c-203" vertex="1">
          <mxGeometry y="26" width="420" height="26" as="geometry" />
        </mxCell>
        <mxCell id="ed8AZ3-YZBsXWsMalY9c-205" value="" style="line;strokeWidth=1;fillColor=none;align=left;verticalAlign=middle;spacingTop=-1;spacingLeft=3;spacingRight=3;rotatable=0;labelPosition=right;points=[];portConstraint=eastwest;strokeColor=inherit;fontColor=#FFFFFF;" parent="ed8AZ3-YZBsXWsMalY9c-203" vertex="1">
          <mxGeometry y="52" width="420" height="8" as="geometry" />
        </mxCell>
        <mxCell id="ed8AZ3-YZBsXWsMalY9c-206" value="- Run(): Task&amp;lt;HttpResponseData&amp;gt;" style="text;align=left;verticalAlign=top;spacingLeft=4;spacingRight=4;overflow=hidden;rotatable=0;points=[[0,0.5],[1,0.5]];portConstraint=eastwest;whiteSpace=wrap;html=1;fontColor=#FFFFFF;" parent="ed8AZ3-YZBsXWsMalY9c-203" vertex="1">
          <mxGeometry y="60" width="420" height="26" as="geometry" />
        </mxCell>
        <mxCell id="ed8AZ3-YZBsXWsMalY9c-213" value="main / TestSendingData" style="swimlane;fontStyle=1;align=center;verticalAlign=top;childLayout=stackLayout;horizontal=1;startSize=26;horizontalStack=0;resizeParent=1;resizeParentMax=0;resizeLast=0;collapsible=1;marginBottom=0;whiteSpace=wrap;html=1;fillColor=#008a00;fillStyle=auto;glass=0;rounded=0;swimlaneLine=1;labelBackgroundColor=none;fontColor=#FFFFFF;strokeColor=#005700;" parent="1" vertex="1">
          <mxGeometry x="1480" y="2467" width="420" height="242" as="geometry" />
        </mxCell>
        <mxCell id="ed8AZ3-YZBsXWsMalY9c-214" value="+ default_key: string" style="text;strokeColor=none;fillColor=none;align=left;verticalAlign=top;spacingLeft=4;spacingRight=4;overflow=hidden;rotatable=0;points=[[0,0.5],[1,0.5]];portConstraint=eastwest;whiteSpace=wrap;html=1;fontColor=#FFFFFF;" parent="ed8AZ3-YZBsXWsMalY9c-213" vertex="1">
          <mxGeometry y="26" width="420" height="26" as="geometry" />
        </mxCell>
        <mxCell id="ed8AZ3-YZBsXWsMalY9c-223" value="+ master_key: string" style="text;strokeColor=none;fillColor=none;align=left;verticalAlign=top;spacingLeft=4;spacingRight=4;overflow=hidden;rotatable=0;points=[[0,0.5],[1,0.5]];portConstraint=eastwest;whiteSpace=wrap;html=1;fontColor=#FFFFFF;" parent="ed8AZ3-YZBsXWsMalY9c-213" vertex="1">
          <mxGeometry y="52" width="420" height="26" as="geometry" />
        </mxCell>
        <mxCell id="ed8AZ3-YZBsXWsMalY9c-215" value="" style="line;strokeWidth=1;fillColor=none;align=left;verticalAlign=middle;spacingTop=-1;spacingLeft=3;spacingRight=3;rotatable=0;labelPosition=right;points=[];portConstraint=eastwest;strokeColor=inherit;fontColor=#FFFFFF;" parent="ed8AZ3-YZBsXWsMalY9c-213" vertex="1">
          <mxGeometry y="78" width="420" height="8" as="geometry" />
        </mxCell>
        <mxCell id="ed8AZ3-YZBsXWsMalY9c-216" value="+ data_create(): def" style="text;strokeColor=none;fillColor=none;align=left;verticalAlign=top;spacingLeft=4;spacingRight=4;overflow=hidden;rotatable=0;points=[[0,0.5],[1,0.5]];portConstraint=eastwest;whiteSpace=wrap;html=1;fontColor=#FFFFFF;" parent="ed8AZ3-YZBsXWsMalY9c-213" vertex="1">
          <mxGeometry y="86" width="420" height="26" as="geometry" />
        </mxCell>
        <mxCell id="ed8AZ3-YZBsXWsMalY9c-218" value="+ data_read(): def" style="text;strokeColor=none;fillColor=none;align=left;verticalAlign=top;spacingLeft=4;spacingRight=4;overflow=hidden;rotatable=0;points=[[0,0.5],[1,0.5]];portConstraint=eastwest;whiteSpace=wrap;html=1;fontColor=#FFFFFF;" parent="ed8AZ3-YZBsXWsMalY9c-213" vertex="1">
          <mxGeometry y="112" width="420" height="26" as="geometry" />
        </mxCell>
        <mxCell id="ed8AZ3-YZBsXWsMalY9c-220" value="+ data_update(): def" style="text;strokeColor=none;fillColor=none;align=left;verticalAlign=top;spacingLeft=4;spacingRight=4;overflow=hidden;rotatable=0;points=[[0,0.5],[1,0.5]];portConstraint=eastwest;whiteSpace=wrap;html=1;fontColor=#FFFFFF;" parent="ed8AZ3-YZBsXWsMalY9c-213" vertex="1">
          <mxGeometry y="138" width="420" height="26" as="geometry" />
        </mxCell>
        <mxCell id="ed8AZ3-YZBsXWsMalY9c-219" value="+ data_delete(): def" style="text;strokeColor=none;fillColor=none;align=left;verticalAlign=top;spacingLeft=4;spacingRight=4;overflow=hidden;rotatable=0;points=[[0,0.5],[1,0.5]];portConstraint=eastwest;whiteSpace=wrap;html=1;fontColor=#FFFFFF;" parent="ed8AZ3-YZBsXWsMalY9c-213" vertex="1">
          <mxGeometry y="164" width="420" height="26" as="geometry" />
        </mxCell>
        <mxCell id="ed8AZ3-YZBsXWsMalY9c-221" value="+ table_create(): def" style="text;strokeColor=none;fillColor=none;align=left;verticalAlign=top;spacingLeft=4;spacingRight=4;overflow=hidden;rotatable=0;points=[[0,0.5],[1,0.5]];portConstraint=eastwest;whiteSpace=wrap;html=1;fontColor=#FFFFFF;" parent="ed8AZ3-YZBsXWsMalY9c-213" vertex="1">
          <mxGeometry y="190" width="420" height="26" as="geometry" />
        </mxCell>
        <mxCell id="ed8AZ3-YZBsXWsMalY9c-222" value="+ send_command(): def" style="text;strokeColor=none;fillColor=none;align=left;verticalAlign=top;spacingLeft=4;spacingRight=4;overflow=hidden;rotatable=0;points=[[0,0.5],[1,0.5]];portConstraint=eastwest;whiteSpace=wrap;html=1;fontColor=#FFFFFF;" parent="ed8AZ3-YZBsXWsMalY9c-213" vertex="1">
          <mxGeometry y="216" width="420" height="26" as="geometry" />
        </mxCell>
        <mxCell id="ed8AZ3-YZBsXWsMalY9c-224" value="json" style="swimlane;fontStyle=1;align=center;verticalAlign=top;childLayout=stackLayout;horizontal=1;startSize=26;horizontalStack=0;resizeParent=1;resizeParentMax=0;resizeLast=0;collapsible=1;marginBottom=0;whiteSpace=wrap;html=1;fillColor=#008a00;fillStyle=auto;glass=0;rounded=0;swimlaneLine=1;labelBackgroundColor=none;fontColor=#FFFFFF;strokeColor=#005700;" parent="1" vertex="1">
          <mxGeometry x="1990" y="2390" width="420" height="60" as="geometry" />
        </mxCell>
        <mxCell id="ed8AZ3-YZBsXWsMalY9c-227" value="" style="line;strokeWidth=1;fillColor=none;align=left;verticalAlign=middle;spacingTop=-1;spacingLeft=3;spacingRight=3;rotatable=0;labelPosition=right;points=[];portConstraint=eastwest;strokeColor=inherit;fontColor=#FFFFFF;" parent="ed8AZ3-YZBsXWsMalY9c-224" vertex="1">
          <mxGeometry y="26" width="420" height="8" as="geometry" />
        </mxCell>
        <mxCell id="ed8AZ3-YZBsXWsMalY9c-233" value="+ ConvertToJson(): string" style="text;strokeColor=none;fillColor=none;align=left;verticalAlign=top;spacingLeft=4;spacingRight=4;overflow=hidden;rotatable=0;points=[[0,0.5],[1,0.5]];portConstraint=eastwest;whiteSpace=wrap;html=1;fontColor=#FFFFFF;" parent="ed8AZ3-YZBsXWsMalY9c-224" vertex="1">
          <mxGeometry y="34" width="420" height="26" as="geometry" />
        </mxCell>
        <mxCell id="ed8AZ3-YZBsXWsMalY9c-234" value="Default" style="swimlane;fontStyle=1;align=center;verticalAlign=top;childLayout=stackLayout;horizontal=1;startSize=26;horizontalStack=0;resizeParent=1;resizeParentMax=0;resizeLast=0;collapsible=1;marginBottom=0;whiteSpace=wrap;html=1;fillColor=#008a00;fillStyle=auto;glass=0;rounded=0;swimlaneLine=1;labelBackgroundColor=none;fontColor=#FFFFFF;strokeColor=#005700;" parent="1" vertex="1">
          <mxGeometry x="1990" y="2480" width="420" height="216" as="geometry" />
        </mxCell>
        <mxCell id="ed8AZ3-YZBsXWsMalY9c-235" value="+ create_plant_data: lambda" style="text;strokeColor=none;fillColor=none;align=left;verticalAlign=top;spacingLeft=4;spacingRight=4;overflow=hidden;rotatable=0;points=[[0,0.5],[1,0.5]];portConstraint=eastwest;whiteSpace=wrap;html=1;fontColor=#FFFFFF;" parent="ed8AZ3-YZBsXWsMalY9c-234" vertex="1">
          <mxGeometry y="26" width="420" height="26" as="geometry" />
        </mxCell>
        <mxCell id="ed8AZ3-YZBsXWsMalY9c-236" value="+ create_sensor_data: lambda" style="text;strokeColor=none;fillColor=none;align=left;verticalAlign=top;spacingLeft=4;spacingRight=4;overflow=hidden;rotatable=0;points=[[0,0.5],[1,0.5]];portConstraint=eastwest;whiteSpace=wrap;html=1;fontColor=#FFFFFF;" parent="ed8AZ3-YZBsXWsMalY9c-234" vertex="1">
          <mxGeometry y="52" width="420" height="26" as="geometry" />
        </mxCell>
        <mxCell id="ed8AZ3-YZBsXWsMalY9c-245" value="+ create_telemetry_data: lambda" style="text;strokeColor=none;fillColor=none;align=left;verticalAlign=top;spacingLeft=4;spacingRight=4;overflow=hidden;rotatable=0;points=[[0,0.5],[1,0.5]];portConstraint=eastwest;whiteSpace=wrap;html=1;fontColor=#FFFFFF;" parent="ed8AZ3-YZBsXWsMalY9c-234" vertex="1">
          <mxGeometry y="78" width="420" height="26" as="geometry" />
        </mxCell>
        <mxCell id="ed8AZ3-YZBsXWsMalY9c-237" value="" style="line;strokeWidth=1;fillColor=none;align=left;verticalAlign=middle;spacingTop=-1;spacingLeft=3;spacingRight=3;rotatable=0;labelPosition=right;points=[];portConstraint=eastwest;strokeColor=inherit;fontColor=#FFFFFF;" parent="ed8AZ3-YZBsXWsMalY9c-234" vertex="1">
          <mxGeometry y="104" width="420" height="8" as="geometry" />
        </mxCell>
        <mxCell id="ed8AZ3-YZBsXWsMalY9c-238" value="+ create_default_data(): Dictionary&amp;lt;string, List&amp;lt;Dictionary&amp;lt;string, string&amp;gt;&amp;gt;&amp;gt;" style="text;strokeColor=none;fillColor=none;align=left;verticalAlign=top;spacingLeft=4;spacingRight=4;overflow=hidden;rotatable=0;points=[[0,0.5],[1,0.5]];portConstraint=eastwest;whiteSpace=wrap;html=1;fontColor=#FFFFFF;" parent="ed8AZ3-YZBsXWsMalY9c-234" vertex="1">
          <mxGeometry y="112" width="420" height="26" as="geometry" />
        </mxCell>
        <mxCell id="ed8AZ3-YZBsXWsMalY9c-239" value="+ create_random_update_data(): List&amp;lt;Dictionary&amp;lt;string, string&amp;gt;&amp;gt;" style="text;strokeColor=none;fillColor=none;align=left;verticalAlign=top;spacingLeft=4;spacingRight=4;overflow=hidden;rotatable=0;points=[[0,0.5],[1,0.5]];portConstraint=eastwest;whiteSpace=wrap;html=1;fontColor=#FFFFFF;" parent="ed8AZ3-YZBsXWsMalY9c-234" vertex="1">
          <mxGeometry y="138" width="420" height="26" as="geometry" />
        </mxCell>
        <mxCell id="ed8AZ3-YZBsXWsMalY9c-240" value="+ create_default_instances(): Dictionary&amp;lt;string, list&amp;lt;string&amp;gt;&amp;gt;" style="text;strokeColor=none;fillColor=none;align=left;verticalAlign=top;spacingLeft=4;spacingRight=4;overflow=hidden;rotatable=0;points=[[0,0.5],[1,0.5]];portConstraint=eastwest;whiteSpace=wrap;html=1;fontColor=#FFFFFF;" parent="ed8AZ3-YZBsXWsMalY9c-234" vertex="1">
          <mxGeometry y="164" width="420" height="26" as="geometry" />
        </mxCell>
        <mxCell id="ed8AZ3-YZBsXWsMalY9c-241" value="+ create_random_value(): float" style="text;strokeColor=none;fillColor=none;align=left;verticalAlign=top;spacingLeft=4;spacingRight=4;overflow=hidden;rotatable=0;points=[[0,0.5],[1,0.5]];portConstraint=eastwest;whiteSpace=wrap;html=1;fontColor=#FFFFFF;" parent="ed8AZ3-YZBsXWsMalY9c-234" vertex="1">
          <mxGeometry y="190" width="420" height="26" as="geometry" />
        </mxCell>
        <mxCell id="ed8AZ3-YZBsXWsMalY9c-247" value="AzureFunctions" style="swimlane;fontStyle=1;align=center;verticalAlign=top;childLayout=stackLayout;horizontal=1;startSize=26;horizontalStack=0;resizeParent=1;resizeParentMax=0;resizeLast=0;collapsible=1;marginBottom=0;whiteSpace=wrap;html=1;fillColor=#008a00;fillStyle=auto;glass=0;rounded=0;swimlaneLine=1;labelBackgroundColor=none;fontColor=#FFFFFF;strokeColor=#005700;" parent="1" vertex="1">
          <mxGeometry x="1990" y="2720" width="420" height="164" as="geometry" />
        </mxCell>
        <mxCell id="ed8AZ3-YZBsXWsMalY9c-248" value="+ functionUrl: string" style="text;strokeColor=none;fillColor=none;align=left;verticalAlign=top;spacingLeft=4;spacingRight=4;overflow=hidden;rotatable=0;points=[[0,0.5],[1,0.5]];portConstraint=eastwest;whiteSpace=wrap;html=1;fontColor=#FFFFFF;" parent="ed8AZ3-YZBsXWsMalY9c-247" vertex="1">
          <mxGeometry y="26" width="420" height="26" as="geometry" />
        </mxCell>
        <mxCell id="ed8AZ3-YZBsXWsMalY9c-249" value="+ functionKey: string" style="text;strokeColor=none;fillColor=none;align=left;verticalAlign=top;spacingLeft=4;spacingRight=4;overflow=hidden;rotatable=0;points=[[0,0.5],[1,0.5]];portConstraint=eastwest;whiteSpace=wrap;html=1;fontColor=#FFFFFF;" parent="ed8AZ3-YZBsXWsMalY9c-247" vertex="1">
          <mxGeometry y="52" width="420" height="26" as="geometry" />
        </mxCell>
        <mxCell id="ed8AZ3-YZBsXWsMalY9c-250" value="+ accessKey: string" style="text;strokeColor=none;fillColor=none;align=left;verticalAlign=top;spacingLeft=4;spacingRight=4;overflow=hidden;rotatable=0;points=[[0,0.5],[1,0.5]];portConstraint=eastwest;whiteSpace=wrap;html=1;fontColor=#FFFFFF;" parent="ed8AZ3-YZBsXWsMalY9c-247" vertex="1">
          <mxGeometry y="78" width="420" height="26" as="geometry" />
        </mxCell>
        <mxCell id="ed8AZ3-YZBsXWsMalY9c-251" value="" style="line;strokeWidth=1;fillColor=none;align=left;verticalAlign=middle;spacingTop=-1;spacingLeft=3;spacingRight=3;rotatable=0;labelPosition=right;points=[];portConstraint=eastwest;strokeColor=inherit;fontColor=#FFFFFF;" parent="ed8AZ3-YZBsXWsMalY9c-247" vertex="1">
          <mxGeometry y="104" width="420" height="8" as="geometry" />
        </mxCell>
        <mxCell id="ed8AZ3-YZBsXWsMalY9c-252" value="+ send_data(): bool" style="text;strokeColor=none;fillColor=none;align=left;verticalAlign=top;spacingLeft=4;spacingRight=4;overflow=hidden;rotatable=0;points=[[0,0.5],[1,0.5]];portConstraint=eastwest;whiteSpace=wrap;html=1;fontColor=#FFFFFF;" parent="ed8AZ3-YZBsXWsMalY9c-247" vertex="1">
          <mxGeometry y="112" width="420" height="26" as="geometry" />
        </mxCell>
        <mxCell id="ed8AZ3-YZBsXWsMalY9c-253" value="+ retrieve_data(): string" style="text;strokeColor=none;fillColor=none;align=left;verticalAlign=top;spacingLeft=4;spacingRight=4;overflow=hidden;rotatable=0;points=[[0,0.5],[1,0.5]];portConstraint=eastwest;whiteSpace=wrap;html=1;fontColor=#FFFFFF;" parent="ed8AZ3-YZBsXWsMalY9c-247" vertex="1">
          <mxGeometry y="138" width="420" height="26" as="geometry" />
        </mxCell>
        <mxCell id="ed8AZ3-YZBsXWsMalY9c-257" value="connects to everything in functions except EGE" style="endArrow=classic;startArrow=classic;html=1;rounded=0;exitX=1;exitY=0.5;exitDx=0;exitDy=0;entryX=0.75;entryY=1;entryDx=0;entryDy=0;labelBackgroundColor=none;" parent="1" source="ed8AZ3-YZBsXWsMalY9c-248" target="ed8AZ3-YZBsXWsMalY9c-208" edge="1">
          <mxGeometry width="50" height="50" relative="1" as="geometry">
            <mxPoint x="2170" y="2790" as="sourcePoint" />
            <mxPoint x="2220" y="2740" as="targetPoint" />
            <Array as="points">
              <mxPoint x="2530" y="2759" />
              <mxPoint x="2530" y="2070" />
              <mxPoint x="2410" y="2070" />
            </Array>
          </mxGeometry>
        </mxCell>
        <mxCell id="ed8AZ3-YZBsXWsMalY9c-258" value="main / RaspberryPiSimulation" style="swimlane;fontStyle=1;align=center;verticalAlign=top;childLayout=stackLayout;horizontal=1;startSize=26;horizontalStack=0;resizeParent=1;resizeParentMax=0;resizeLast=0;collapsible=1;marginBottom=0;whiteSpace=wrap;html=1;fillColor=#008a00;fillStyle=auto;glass=0;rounded=0;swimlaneLine=1;labelBackgroundColor=none;fontColor=#FFFFFF;strokeColor=#005700;" parent="1" vertex="1">
          <mxGeometry x="1460" y="3090" width="420" height="164" as="geometry" />
        </mxCell>
        <mxCell id="ed8AZ3-YZBsXWsMalY9c-259" value="+ connection_string: string" style="text;strokeColor=none;fillColor=none;align=left;verticalAlign=top;spacingLeft=4;spacingRight=4;overflow=hidden;rotatable=0;points=[[0,0.5],[1,0.5]];portConstraint=eastwest;whiteSpace=wrap;html=1;fontColor=#FFFFFF;" parent="ed8AZ3-YZBsXWsMalY9c-258" vertex="1">
          <mxGeometry y="26" width="420" height="26" as="geometry" />
        </mxCell>
        <mxCell id="ed8AZ3-YZBsXWsMalY9c-260" value="+ client: IotHubDeviceClient" style="text;strokeColor=none;fillColor=none;align=left;verticalAlign=top;spacingLeft=4;spacingRight=4;overflow=hidden;rotatable=0;points=[[0,0.5],[1,0.5]];portConstraint=eastwest;whiteSpace=wrap;html=1;fontColor=#FFFFFF;" parent="ed8AZ3-YZBsXWsMalY9c-258" vertex="1">
          <mxGeometry y="52" width="420" height="26" as="geometry" />
        </mxCell>
        <mxCell id="ed8AZ3-YZBsXWsMalY9c-269" value="+ message_content: Dictionary&amp;lt;string, string&amp;gt;" style="text;strokeColor=none;fillColor=none;align=left;verticalAlign=top;spacingLeft=4;spacingRight=4;overflow=hidden;rotatable=0;points=[[0,0.5],[1,0.5]];portConstraint=eastwest;whiteSpace=wrap;html=1;fontColor=#FFFFFF;" parent="ed8AZ3-YZBsXWsMalY9c-258" vertex="1">
          <mxGeometry y="78" width="420" height="26" as="geometry" />
        </mxCell>
        <mxCell id="ed8AZ3-YZBsXWsMalY9c-270" value="+ message_payload: string" style="text;strokeColor=none;fillColor=none;align=left;verticalAlign=top;spacingLeft=4;spacingRight=4;overflow=hidden;rotatable=0;points=[[0,0.5],[1,0.5]];portConstraint=eastwest;whiteSpace=wrap;html=1;fontColor=#FFFFFF;" parent="ed8AZ3-YZBsXWsMalY9c-258" vertex="1">
          <mxGeometry y="104" width="420" height="26" as="geometry" />
        </mxCell>
        <mxCell id="ed8AZ3-YZBsXWsMalY9c-268" value="+ message: Message" style="text;strokeColor=none;fillColor=none;align=left;verticalAlign=top;spacingLeft=4;spacingRight=4;overflow=hidden;rotatable=0;points=[[0,0.5],[1,0.5]];portConstraint=eastwest;whiteSpace=wrap;html=1;fontColor=#FFFFFF;" parent="ed8AZ3-YZBsXWsMalY9c-258" vertex="1">
          <mxGeometry y="130" width="420" height="26" as="geometry" />
        </mxCell>
        <mxCell id="ed8AZ3-YZBsXWsMalY9c-261" value="" style="line;strokeWidth=1;fillColor=none;align=left;verticalAlign=middle;spacingTop=-1;spacingLeft=3;spacingRight=3;rotatable=0;labelPosition=right;points=[];portConstraint=eastwest;strokeColor=inherit;fontColor=#FFFFFF;" parent="ed8AZ3-YZBsXWsMalY9c-258" vertex="1">
          <mxGeometry y="156" width="420" height="8" as="geometry" />
        </mxCell>
        <mxCell id="ed8AZ3-YZBsXWsMalY9c-276" value="" style="endArrow=diamondThin;endFill=0;endSize=24;html=1;rounded=0;entryX=0;entryY=0.5;entryDx=0;entryDy=0;exitX=1;exitY=0.5;exitDx=0;exitDy=0;" parent="1" source="ed8AZ3-YZBsXWsMalY9c-214" target="ed8AZ3-YZBsXWsMalY9c-233" edge="1">
          <mxGeometry width="160" relative="1" as="geometry">
            <mxPoint x="1760" y="2510" as="sourcePoint" />
            <mxPoint x="1920" y="2510" as="targetPoint" />
            <Array as="points">
              <mxPoint x="1940" y="2506" />
              <mxPoint x="1940" y="2437" />
            </Array>
          </mxGeometry>
        </mxCell>
        <mxCell id="ed8AZ3-YZBsXWsMalY9c-277" value="" style="endArrow=diamondThin;endFill=0;endSize=24;html=1;rounded=0;exitX=1;exitY=0.5;exitDx=0;exitDy=0;entryX=0;entryY=0.5;entryDx=0;entryDy=0;" parent="1" source="ed8AZ3-YZBsXWsMalY9c-223" target="ed8AZ3-YZBsXWsMalY9c-235" edge="1">
          <mxGeometry width="160" relative="1" as="geometry">
            <mxPoint x="1910" y="2570" as="sourcePoint" />
            <mxPoint x="2070" y="2570" as="targetPoint" />
            <Array as="points">
              <mxPoint x="1950" y="2532" />
              <mxPoint x="1950" y="2520" />
            </Array>
          </mxGeometry>
        </mxCell>
        <mxCell id="ed8AZ3-YZBsXWsMalY9c-278" value="" style="endArrow=diamondThin;endFill=0;endSize=24;html=1;rounded=0;exitX=1;exitY=0.5;exitDx=0;exitDy=0;entryX=0;entryY=0.5;entryDx=0;entryDy=0;" parent="1" source="ed8AZ3-YZBsXWsMalY9c-216" target="ed8AZ3-YZBsXWsMalY9c-248" edge="1">
          <mxGeometry width="160" relative="1" as="geometry">
            <mxPoint x="1910" y="2590" as="sourcePoint" />
            <mxPoint x="2070" y="2590" as="targetPoint" />
            <Array as="points">
              <mxPoint x="1940" y="2566" />
              <mxPoint x="1940" y="2759" />
            </Array>
          </mxGeometry>
        </mxCell>
        <mxCell id="ed8AZ3-YZBsXWsMalY9c-283" value="" style="endArrow=classic;startArrow=classic;html=1;rounded=0;exitX=1;exitY=0.5;exitDx=0;exitDy=0;entryX=0.75;entryY=1;entryDx=0;entryDy=0;" parent="1" source="ed8AZ3-YZBsXWsMalY9c-260" target="ed8AZ3-YZBsXWsMalY9c-188" edge="1">
          <mxGeometry width="50" height="50" relative="1" as="geometry">
            <mxPoint x="2490" y="2530" as="sourcePoint" />
            <mxPoint x="2540" y="2480" as="targetPoint" />
            <Array as="points">
              <mxPoint x="3980" y="3160" />
            </Array>
          </mxGeometry>
        </mxCell>
        <mxCell id="vY6ipT4XKTIDUt76BxjS-1" value="Database" style="rounded=1;whiteSpace=wrap;html=1;verticalAlign=middle;align=center;gradientColor=none;strokeColor=none;fontSize=50;fontStyle=1;spacing=100;glass=0;fillColor=#9933FF;fontColor=#FFFFFF;" parent="1" vertex="1">
          <mxGeometry x="3647" y="1400" width="433.1" height="222" as="geometry" />
        </mxCell>
        <mxCell id="vY6ipT4XKTIDUt76BxjS-2" value="Data analytics" style="rounded=1;whiteSpace=wrap;html=1;verticalAlign=middle;align=center;gradientColor=none;strokeColor=none;fontSize=50;fontStyle=1;spacing=100;glass=0;fillColor=#9933FF;fontColor=#FFFFFF;" parent="1" vertex="1">
          <mxGeometry x="3647" y="1164" width="433.1" height="222" as="geometry" />
        </mxCell>
        <mxCell id="vY6ipT4XKTIDUt76BxjS-4" value="" style="endArrow=classic;html=1;rounded=0;exitX=1;exitY=0.75;exitDx=0;exitDy=0;entryX=1;entryY=0.25;entryDx=0;entryDy=0;" parent="1" source="vY6ipT4XKTIDUt76BxjS-2" target="vY6ipT4XKTIDUt76BxjS-1" edge="1">
          <mxGeometry width="50" height="50" relative="1" as="geometry">
            <mxPoint x="3860" y="1460" as="sourcePoint" />
            <mxPoint x="3910" y="1410" as="targetPoint" />
            <Array as="points">
              <mxPoint x="4120" y="1331" />
              <mxPoint x="4120" y="1455" />
            </Array>
          </mxGeometry>
        </mxCell>
        <mxCell id="vY6ipT4XKTIDUt76BxjS-7" value="" style="endArrow=classic;startArrow=classic;html=1;rounded=0;entryX=0;entryY=0.25;entryDx=0;entryDy=0;exitX=1;exitY=0.5;exitDx=0;exitDy=0;" parent="1" source="ed8AZ3-YZBsXWsMalY9c-188" target="ed8AZ3-YZBsXWsMalY9c-191" edge="1">
          <mxGeometry width="50" height="50" relative="1" as="geometry">
            <mxPoint x="3960" y="1760" as="sourcePoint" />
            <mxPoint x="4010" y="1710" as="targetPoint" />
            <Array as="points">
              <mxPoint x="4360" y="1750" />
              <mxPoint x="4360" y="1330" />
            </Array>
          </mxGeometry>
        </mxCell>
        <mxCell id="vY6ipT4XKTIDUt76BxjS-8" value="" style="endArrow=classic;startArrow=classic;html=1;rounded=0;entryX=1;entryY=0.5;entryDx=0;entryDy=0;exitX=0.5;exitY=1;exitDx=0;exitDy=0;" parent="1" source="ed8AZ3-YZBsXWsMalY9c-188" target="vY6ipT4XKTIDUt76BxjS-13" edge="1">
          <mxGeometry width="50" height="50" relative="1" as="geometry">
            <mxPoint x="4040" y="1840" as="sourcePoint" />
            <mxPoint x="3290" y="2465" as="targetPoint" />
            <Array as="points">
              <mxPoint x="3864" y="2440" />
            </Array>
          </mxGeometry>
        </mxCell>
        <mxCell id="vY6ipT4XKTIDUt76BxjS-12" value="Code" style="swimlane;fontStyle=1;align=center;verticalAlign=top;childLayout=stackLayout;horizontal=1;startSize=26;horizontalStack=0;resizeParent=1;resizeParentMax=0;resizeLast=0;collapsible=1;marginBottom=0;whiteSpace=wrap;html=1;fillColor=#008a00;fillStyle=auto;glass=0;rounded=0;swimlaneLine=1;labelBackgroundColor=none;fontColor=#FFFFFF;strokeColor=#005700;" parent="1" vertex="1">
          <mxGeometry x="2870" y="2400" width="420" height="502" as="geometry" />
        </mxCell>
        <mxCell id="vY6ipT4XKTIDUt76BxjS-13" value="+ wpi: const" style="text;strokeColor=none;fillColor=none;align=left;verticalAlign=top;spacingLeft=4;spacingRight=4;overflow=hidden;rotatable=0;points=[[0,0.5],[1,0.5]];portConstraint=eastwest;whiteSpace=wrap;html=1;fontColor=#FFFFFF;" parent="vY6ipT4XKTIDUt76BxjS-12" vertex="1">
          <mxGeometry y="26" width="420" height="26" as="geometry" />
        </mxCell>
        <mxCell id="vY6ipT4XKTIDUt76BxjS-23" value="+ Client: const" style="text;strokeColor=none;fillColor=none;align=left;verticalAlign=top;spacingLeft=4;spacingRight=4;overflow=hidden;rotatable=0;points=[[0,0.5],[1,0.5]];portConstraint=eastwest;whiteSpace=wrap;html=1;fontColor=#FFFFFF;" parent="vY6ipT4XKTIDUt76BxjS-12" vertex="1">
          <mxGeometry y="52" width="420" height="26" as="geometry" />
        </mxCell>
        <mxCell id="vY6ipT4XKTIDUt76BxjS-26" value="+ Message: const" style="text;strokeColor=none;fillColor=none;align=left;verticalAlign=top;spacingLeft=4;spacingRight=4;overflow=hidden;rotatable=0;points=[[0,0.5],[1,0.5]];portConstraint=eastwest;whiteSpace=wrap;html=1;fontColor=#FFFFFF;" parent="vY6ipT4XKTIDUt76BxjS-12" vertex="1">
          <mxGeometry y="78" width="420" height="26" as="geometry" />
        </mxCell>
        <mxCell id="vY6ipT4XKTIDUt76BxjS-25" value="+ Protocol: const" style="text;strokeColor=none;fillColor=none;align=left;verticalAlign=top;spacingLeft=4;spacingRight=4;overflow=hidden;rotatable=0;points=[[0,0.5],[1,0.5]];portConstraint=eastwest;whiteSpace=wrap;html=1;fontColor=#FFFFFF;" parent="vY6ipT4XKTIDUt76BxjS-12" vertex="1">
          <mxGeometry y="104" width="420" height="26" as="geometry" />
        </mxCell>
        <mxCell id="vY6ipT4XKTIDUt76BxjS-27" value="+ BME280_OPTION: const" style="text;strokeColor=none;fillColor=none;align=left;verticalAlign=top;spacingLeft=4;spacingRight=4;overflow=hidden;rotatable=0;points=[[0,0.5],[1,0.5]];portConstraint=eastwest;whiteSpace=wrap;html=1;fontColor=#FFFFFF;" parent="vY6ipT4XKTIDUt76BxjS-12" vertex="1">
          <mxGeometry y="130" width="420" height="26" as="geometry" />
        </mxCell>
        <mxCell id="vY6ipT4XKTIDUt76BxjS-24" value="+ connectionString: const" style="text;strokeColor=none;fillColor=none;align=left;verticalAlign=top;spacingLeft=4;spacingRight=4;overflow=hidden;rotatable=0;points=[[0,0.5],[1,0.5]];portConstraint=eastwest;whiteSpace=wrap;html=1;fontColor=#FFFFFF;" parent="vY6ipT4XKTIDUt76BxjS-12" vertex="1">
          <mxGeometry y="156" width="420" height="26" as="geometry" />
        </mxCell>
        <mxCell id="vY6ipT4XKTIDUt76BxjS-22" value="+ LEDPin: const" style="text;strokeColor=none;fillColor=none;align=left;verticalAlign=top;spacingLeft=4;spacingRight=4;overflow=hidden;rotatable=0;points=[[0,0.5],[1,0.5]];portConstraint=eastwest;whiteSpace=wrap;html=1;fontColor=#FFFFFF;" parent="vY6ipT4XKTIDUt76BxjS-12" vertex="1">
          <mxGeometry y="182" width="420" height="26" as="geometry" />
        </mxCell>
        <mxCell id="vY6ipT4XKTIDUt76BxjS-29" value="+ sendingMessage: var" style="text;strokeColor=none;fillColor=none;align=left;verticalAlign=top;spacingLeft=4;spacingRight=4;overflow=hidden;rotatable=0;points=[[0,0.5],[1,0.5]];portConstraint=eastwest;whiteSpace=wrap;html=1;fontColor=#FFFFFF;" parent="vY6ipT4XKTIDUt76BxjS-12" vertex="1">
          <mxGeometry y="208" width="420" height="26" as="geometry" />
        </mxCell>
        <mxCell id="vY6ipT4XKTIDUt76BxjS-28" value="+ messageId: var" style="text;strokeColor=none;fillColor=none;align=left;verticalAlign=top;spacingLeft=4;spacingRight=4;overflow=hidden;rotatable=0;points=[[0,0.5],[1,0.5]];portConstraint=eastwest;whiteSpace=wrap;html=1;fontColor=#FFFFFF;" parent="vY6ipT4XKTIDUt76BxjS-12" vertex="1">
          <mxGeometry y="234" width="420" height="26" as="geometry" />
        </mxCell>
        <mxCell id="vY6ipT4XKTIDUt76BxjS-31" value="+ client: var" style="text;strokeColor=none;fillColor=none;align=left;verticalAlign=top;spacingLeft=4;spacingRight=4;overflow=hidden;rotatable=0;points=[[0,0.5],[1,0.5]];portConstraint=eastwest;whiteSpace=wrap;html=1;fontColor=#FFFFFF;" parent="vY6ipT4XKTIDUt76BxjS-12" vertex="1">
          <mxGeometry y="260" width="420" height="26" as="geometry" />
        </mxCell>
        <mxCell id="vY6ipT4XKTIDUt76BxjS-32" value="+ sensor: var" style="text;strokeColor=none;fillColor=none;align=left;verticalAlign=top;spacingLeft=4;spacingRight=4;overflow=hidden;rotatable=0;points=[[0,0.5],[1,0.5]];portConstraint=eastwest;whiteSpace=wrap;html=1;fontColor=#FFFFFF;" parent="vY6ipT4XKTIDUt76BxjS-12" vertex="1">
          <mxGeometry y="286" width="420" height="26" as="geometry" />
        </mxCell>
        <mxCell id="vY6ipT4XKTIDUt76BxjS-33" value="+ blindLEDTimeOut: var" style="text;strokeColor=none;fillColor=none;align=left;verticalAlign=top;spacingLeft=4;spacingRight=4;overflow=hidden;rotatable=0;points=[[0,0.5],[1,0.5]];portConstraint=eastwest;whiteSpace=wrap;html=1;fontColor=#FFFFFF;" parent="vY6ipT4XKTIDUt76BxjS-12" vertex="1">
          <mxGeometry y="312" width="420" height="26" as="geometry" />
        </mxCell>
        <mxCell id="vY6ipT4XKTIDUt76BxjS-16" value="" style="line;strokeWidth=1;fillColor=none;align=left;verticalAlign=middle;spacingTop=-1;spacingLeft=3;spacingRight=3;rotatable=0;labelPosition=right;points=[];portConstraint=eastwest;strokeColor=inherit;fontColor=#FFFFFF;" parent="vY6ipT4XKTIDUt76BxjS-12" vertex="1">
          <mxGeometry y="338" width="420" height="8" as="geometry" />
        </mxCell>
        <mxCell id="vY6ipT4XKTIDUt76BxjS-20" value="+ getMessage(): function" style="text;strokeColor=none;fillColor=none;align=left;verticalAlign=top;spacingLeft=4;spacingRight=4;overflow=hidden;rotatable=0;points=[[0,0.5],[1,0.5]];portConstraint=eastwest;whiteSpace=wrap;html=1;fontColor=#FFFFFF;" parent="vY6ipT4XKTIDUt76BxjS-12" vertex="1">
          <mxGeometry y="346" width="420" height="26" as="geometry" />
        </mxCell>
        <mxCell id="vY6ipT4XKTIDUt76BxjS-35" value="+ sendMessage(): function" style="text;strokeColor=none;fillColor=none;align=left;verticalAlign=top;spacingLeft=4;spacingRight=4;overflow=hidden;rotatable=0;points=[[0,0.5],[1,0.5]];portConstraint=eastwest;whiteSpace=wrap;html=1;fontColor=#FFFFFF;" parent="vY6ipT4XKTIDUt76BxjS-12" vertex="1">
          <mxGeometry y="372" width="420" height="26" as="geometry" />
        </mxCell>
        <mxCell id="vY6ipT4XKTIDUt76BxjS-36" value="+ onStart(): function" style="text;strokeColor=none;fillColor=none;align=left;verticalAlign=top;spacingLeft=4;spacingRight=4;overflow=hidden;rotatable=0;points=[[0,0.5],[1,0.5]];portConstraint=eastwest;whiteSpace=wrap;html=1;fontColor=#FFFFFF;" parent="vY6ipT4XKTIDUt76BxjS-12" vertex="1">
          <mxGeometry y="398" width="420" height="26" as="geometry" />
        </mxCell>
        <mxCell id="vY6ipT4XKTIDUt76BxjS-37" value="+ onStop(): function" style="text;strokeColor=none;fillColor=none;align=left;verticalAlign=top;spacingLeft=4;spacingRight=4;overflow=hidden;rotatable=0;points=[[0,0.5],[1,0.5]];portConstraint=eastwest;whiteSpace=wrap;html=1;fontColor=#FFFFFF;" parent="vY6ipT4XKTIDUt76BxjS-12" vertex="1">
          <mxGeometry y="424" width="420" height="26" as="geometry" />
        </mxCell>
        <mxCell id="vY6ipT4XKTIDUt76BxjS-38" value="+ recieveMessageCallBack(): function" style="text;strokeColor=none;fillColor=none;align=left;verticalAlign=top;spacingLeft=4;spacingRight=4;overflow=hidden;rotatable=0;points=[[0,0.5],[1,0.5]];portConstraint=eastwest;whiteSpace=wrap;html=1;fontColor=#FFFFFF;" parent="vY6ipT4XKTIDUt76BxjS-12" vertex="1">
          <mxGeometry y="450" width="420" height="26" as="geometry" />
        </mxCell>
        <mxCell id="vY6ipT4XKTIDUt76BxjS-39" value="+ blinkLED(): function" style="text;strokeColor=none;fillColor=none;align=left;verticalAlign=top;spacingLeft=4;spacingRight=4;overflow=hidden;rotatable=0;points=[[0,0.5],[1,0.5]];portConstraint=eastwest;whiteSpace=wrap;html=1;fontColor=#FFFFFF;" parent="vY6ipT4XKTIDUt76BxjS-12" vertex="1">
          <mxGeometry y="476" width="420" height="26" as="geometry" />
        </mxCell>
        <mxCell id="vY6ipT4XKTIDUt76BxjS-21" value="" style="endArrow=classic;html=1;rounded=0;exitX=0;exitY=0.25;exitDx=0;exitDy=0;entryX=0.75;entryY=0;entryDx=0;entryDy=0;" parent="1" source="ed8AZ3-YZBsXWsMalY9c-188" target="ed8AZ3-YZBsXWsMalY9c-146" edge="1">
          <mxGeometry width="50" height="50" relative="1" as="geometry">
            <mxPoint x="3280" y="1370" as="sourcePoint" />
            <mxPoint x="3330" y="1320" as="targetPoint" />
            <Array as="points">
              <mxPoint x="3610" y="1696" />
              <mxPoint x="3610" y="380" />
              <mxPoint x="2415" y="370" />
            </Array>
          </mxGeometry>
        </mxCell>
        <mxCell id="vY6ipT4XKTIDUt76BxjS-40" value="" style="endArrow=classic;html=1;rounded=0;exitX=1;exitY=0.25;exitDx=0;exitDy=0;entryX=1;entryY=0.25;entryDx=0;entryDy=0;" parent="1" source="ed8AZ3-YZBsXWsMalY9c-188" target="vY6ipT4XKTIDUt76BxjS-2" edge="1">
          <mxGeometry width="50" height="50" relative="1" as="geometry">
            <mxPoint x="4154" y="1536" as="sourcePoint" />
            <mxPoint x="4204" y="1486" as="targetPoint" />
            <Array as="points">
              <mxPoint x="4162" y="1695" />
              <mxPoint x="4162" y="1220" />
            </Array>
          </mxGeometry>
        </mxCell>
        <mxCell id="vY6ipT4XKTIDUt76BxjS-42" value="Keys" style="rounded=1;whiteSpace=wrap;html=1;verticalAlign=top;align=left;gradientColor=none;strokeColor=none;fontSize=50;fontStyle=3;spacing=50;glass=0;fillColor=#3E4A54;fontColor=#FFFFFF;spacingLeft=20;" parent="1" vertex="1">
          <mxGeometry x="1420" y="-916" width="870" height="1124" as="geometry" />
        </mxCell>
        <mxCell id="vY6ipT4XKTIDUt76BxjS-43" value="Class" style="rounded=1;whiteSpace=wrap;html=1;fillColor=#008a00;fontColor=#ffffff;strokeColor=#005700;align=left;fontSize=50;spacingLeft=30;" parent="1" vertex="1">
          <mxGeometry x="1495" y="-785" width="737" height="109" as="geometry" />
        </mxCell>
        <mxCell id="vY6ipT4XKTIDUt76BxjS-44" value="interface" style="rounded=1;whiteSpace=wrap;html=1;fillColor=#fa6800;fontColor=#000000;strokeColor=#C73500;align=left;fontSize=50;spacingLeft=30;" parent="1" vertex="1">
          <mxGeometry x="1495" y="-652" width="737" height="109" as="geometry" />
        </mxCell>
        <mxCell id="vY6ipT4XKTIDUt76BxjS-45" value="Inheritance class" style="rounded=1;whiteSpace=wrap;html=1;fillColor=#e3c800;fontColor=#000000;strokeColor=#B09500;align=left;fontSize=50;spacingLeft=30;" parent="1" vertex="1">
          <mxGeometry x="1495" y="-519" width="737" height="109" as="geometry" />
        </mxCell>
        <mxCell id="vY6ipT4XKTIDUt76BxjS-46" value="Flow of Data" style="endArrow=classic;startArrow=classic;html=1;rounded=0;fontSize=40;labelBackgroundColor=none;" parent="1" edge="1">
          <mxGeometry x="0.0015" width="50" height="50" relative="1" as="geometry">
            <mxPoint x="2198" y="-336" as="sourcePoint" />
            <mxPoint x="1529" y="-336" as="targetPoint" />
            <mxPoint as="offset" />
          </mxGeometry>
        </mxCell>
        <mxCell id="vY6ipT4XKTIDUt76BxjS-47" value="Composition" style="endArrow=diamondThin;endFill=0;endSize=24;html=1;rounded=0;fontSize=40;labelBackgroundColor=none;" parent="1" edge="1">
          <mxGeometry width="160" relative="1" as="geometry">
            <mxPoint x="1528.5" y="-186" as="sourcePoint" />
            <mxPoint x="2198.5" y="-186" as="targetPoint" />
          </mxGeometry>
        </mxCell>
        <mxCell id="vY6ipT4XKTIDUt76BxjS-50" value="One-Way Flow of Data" style="endArrow=classic;html=1;rounded=0;labelBackgroundColor=none;fontSize=40;" parent="1" edge="1">
          <mxGeometry width="50" height="50" relative="1" as="geometry">
            <mxPoint x="1533.5" y="-266" as="sourcePoint" />
            <mxPoint x="2193.5" y="-266" as="targetPoint" />
            <mxPoint as="offset" />
          </mxGeometry>
        </mxCell>
        <mxCell id="vY6ipT4XKTIDUt76BxjS-53" value="" style="endArrow=classic;html=1;rounded=0;entryX=1;entryY=0;entryDx=0;entryDy=0;exitX=0;exitY=0;exitDx=0;exitDy=0;" parent="1" source="YfnxBZkM-dtaLULD4a4c-145" target="YfnxBZkM-dtaLULD4a4c-136" edge="1">
          <mxGeometry width="50" height="50" relative="1" as="geometry">
            <mxPoint x="260" y="1690" as="sourcePoint" />
            <mxPoint x="310" y="1640" as="targetPoint" />
          </mxGeometry>
        </mxCell>
        <mxCell id="vY6ipT4XKTIDUt76BxjS-54" value="" style="endArrow=classic;html=1;rounded=0;exitX=0;exitY=0.5;exitDx=0;exitDy=0;entryX=1;entryY=0.5;entryDx=0;entryDy=0;" parent="1" target="YfnxBZkM-dtaLULD4a4c-137" edge="1">
          <mxGeometry width="50" height="50" relative="1" as="geometry">
            <mxPoint x="340" y="1513" as="sourcePoint" />
            <mxPoint x="310" y="1640" as="targetPoint" />
            <Array as="points">
              <mxPoint x="280" y="1513" />
              <mxPoint x="280" y="1409" />
            </Array>
          </mxGeometry>
        </mxCell>
        <mxCell id="vY6ipT4XKTIDUt76BxjS-56" value="" style="endArrow=classic;html=1;rounded=0;entryX=1;entryY=0.5;entryDx=0;entryDy=0;exitX=0;exitY=0.5;exitDx=0;exitDy=0;" parent="1" source="YfnxBZkM-dtaLULD4a4c-146" target="YfnxBZkM-dtaLULD4a4c-185" edge="1">
          <mxGeometry width="50" height="50" relative="1" as="geometry">
            <mxPoint x="460" y="1830" as="sourcePoint" />
            <mxPoint x="510" y="1780" as="targetPoint" />
            <Array as="points">
              <mxPoint x="300" y="1410" />
              <mxPoint x="300" y="1643" />
            </Array>
          </mxGeometry>
        </mxCell>
        <mxCell id="vY6ipT4XKTIDUt76BxjS-57" value="" style="endArrow=classic;html=1;rounded=0;exitX=0;exitY=0.5;exitDx=0;exitDy=0;entryX=1;entryY=0.5;entryDx=0;entryDy=0;" parent="1" source="YfnxBZkM-dtaLULD4a4c-148" target="YfnxBZkM-dtaLULD4a4c-206" edge="1">
          <mxGeometry width="50" height="50" relative="1" as="geometry">
            <mxPoint x="390" y="1820" as="sourcePoint" />
            <mxPoint x="440" y="1770" as="targetPoint" />
            <Array as="points">
              <mxPoint x="320" y="1443" />
              <mxPoint x="320" y="1887" />
            </Array>
          </mxGeometry>
        </mxCell>
        <mxCell id="vY6ipT4XKTIDUt76BxjS-58" value="" style="endArrow=classic;html=1;rounded=0;entryX=1;entryY=0.5;entryDx=0;entryDy=0;exitX=0;exitY=0.5;exitDx=0;exitDy=0;" parent="1" target="YfnxBZkM-dtaLULD4a4c-189" edge="1">
          <mxGeometry width="50" height="50" relative="1" as="geometry">
            <mxPoint x="340" y="1547.0000000000005" as="sourcePoint" />
            <mxPoint x="170" y="1780" as="targetPoint" />
            <Array as="points">
              <mxPoint x="270" y="1547" />
              <mxPoint x="270" y="1669" />
            </Array>
          </mxGeometry>
        </mxCell>
        <mxCell id="vY6ipT4XKTIDUt76BxjS-61" value="" style="endArrow=classic;html=1;rounded=0;exitX=1;exitY=0.5;exitDx=0;exitDy=0;entryX=0;entryY=0.5;entryDx=0;entryDy=0;" parent="1" source="YfnxBZkM-dtaLULD4a4c-113" target="YfnxBZkM-dtaLULD4a4c-82" edge="1">
          <mxGeometry width="50" height="50" relative="1" as="geometry">
            <mxPoint x="-940" y="1439" as="sourcePoint" />
            <mxPoint x="-890" y="1389" as="targetPoint" />
          </mxGeometry>
        </mxCell>
        <mxCell id="vY6ipT4XKTIDUt76BxjS-62" value="" style="endArrow=classic;html=1;rounded=0;exitX=1;exitY=0.5;exitDx=0;exitDy=0;entryX=0;entryY=0.5;entryDx=0;entryDy=0;" parent="1" source="YfnxBZkM-dtaLULD4a4c-121" target="YfnxBZkM-dtaLULD4a4c-93" edge="1">
          <mxGeometry width="50" height="50" relative="1" as="geometry">
            <mxPoint x="-940" y="1439" as="sourcePoint" />
            <mxPoint x="-890" y="1389" as="targetPoint" />
            <Array as="points">
              <mxPoint x="-960" y="1233" />
              <mxPoint x="-960" y="1350" />
            </Array>
          </mxGeometry>
        </mxCell>
        <mxCell id="vY6ipT4XKTIDUt76BxjS-63" value="" style="endArrow=classic;html=1;rounded=0;exitX=1;exitY=0.5;exitDx=0;exitDy=0;entryX=0;entryY=0.5;entryDx=0;entryDy=0;" parent="1" source="YfnxBZkM-dtaLULD4a4c-115" target="YfnxBZkM-dtaLULD4a4c-100" edge="1">
          <mxGeometry width="50" height="50" relative="1" as="geometry">
            <mxPoint x="-1010" y="1459" as="sourcePoint" />
            <mxPoint x="-960" y="1409" as="targetPoint" />
            <Array as="points">
              <mxPoint x="-980" y="1259" />
              <mxPoint x="-980" y="1530" />
            </Array>
          </mxGeometry>
        </mxCell>
        <mxCell id="vY6ipT4XKTIDUt76BxjS-66" value="Usage of the listeners" style="rounded=1;whiteSpace=wrap;html=1;verticalAlign=top;align=left;gradientColor=none;strokeColor=none;fontSize=50;fontStyle=3;spacing=50;glass=0;fillColor=#607382;fontColor=#FFFFFF;" parent="1" vertex="1">
          <mxGeometry x="-1060" y="186" width="650" height="610" as="geometry" />
        </mxCell>
        <mxCell id="YfnxBZkM-dtaLULD4a4c-54" value="Data Retrieval Usage" style="rounded=1;whiteSpace=wrap;html=1;verticalAlign=top;align=left;fontSize=20;fontStyle=1;spacing=42;fillColor=#4F5F6B;fillStyle=auto;strokeColor=none;fontColor=#FFFFFF;" parent="1" vertex="1">
          <mxGeometry x="-1020" y="327" width="545" height="420" as="geometry" />
        </mxCell>
        <mxCell id="YfnxBZkM-dtaLULD4a4c-47" value="DRU_Sensors" style="swimlane;fontStyle=1;align=center;verticalAlign=top;childLayout=stackLayout;horizontal=1;startSize=26;horizontalStack=0;resizeParent=1;resizeParentMax=0;resizeLast=0;collapsible=1;marginBottom=0;whiteSpace=wrap;html=1;fillColor=#e3c800;fillStyle=auto;glass=0;rounded=0;swimlaneLine=1;labelBackgroundColor=none;fontColor=#000000;strokeColor=#B09500;" parent="1" vertex="1">
          <mxGeometry x="-957.5" y="438" width="420" height="242" as="geometry" />
        </mxCell>
        <mxCell id="YfnxBZkM-dtaLULD4a4c-48" value="- sensorPrefab: GameObject" style="text;strokeColor=none;fillColor=none;align=left;verticalAlign=top;spacingLeft=4;spacingRight=4;overflow=hidden;rotatable=0;points=[[0,0.5],[1,0.5]];portConstraint=eastwest;whiteSpace=wrap;html=1;fontColor=#FFFFFF;" parent="YfnxBZkM-dtaLULD4a4c-47" vertex="1">
          <mxGeometry y="26" width="420" height="26" as="geometry" />
        </mxCell>
        <mxCell id="YfnxBZkM-dtaLULD4a4c-64" value="- fieldPrefab: GameObject" style="text;strokeColor=none;fillColor=none;align=left;verticalAlign=top;spacingLeft=4;spacingRight=4;overflow=hidden;rotatable=0;points=[[0,0.5],[1,0.5]];portConstraint=eastwest;whiteSpace=wrap;html=1;fontColor=#FFFFFF;" parent="YfnxBZkM-dtaLULD4a4c-47" vertex="1">
          <mxGeometry y="52" width="420" height="26" as="geometry" />
        </mxCell>
        <mxCell id="YfnxBZkM-dtaLULD4a4c-49" value="- startingLocation: GameObject" style="text;strokeColor=none;fillColor=none;align=left;verticalAlign=top;spacingLeft=4;spacingRight=4;overflow=hidden;rotatable=0;points=[[0,0.5],[1,0.5]];portConstraint=eastwest;whiteSpace=wrap;html=1;fontColor=#FFFFFF;" parent="YfnxBZkM-dtaLULD4a4c-47" vertex="1">
          <mxGeometry y="78" width="420" height="26" as="geometry" />
        </mxCell>
        <mxCell id="YfnxBZkM-dtaLULD4a4c-65" value="- preCreatedSensors: List&amp;lt;GameObject&amp;gt;" style="text;strokeColor=none;fillColor=none;align=left;verticalAlign=top;spacingLeft=4;spacingRight=4;overflow=hidden;rotatable=0;points=[[0,0.5],[1,0.5]];portConstraint=eastwest;whiteSpace=wrap;html=1;fontColor=#FFFFFF;" parent="YfnxBZkM-dtaLULD4a4c-47" vertex="1">
          <mxGeometry y="104" width="420" height="26" as="geometry" />
        </mxCell>
        <mxCell id="YfnxBZkM-dtaLULD4a4c-66" value="- sensorsCreated: Dictionary&amp;lt;string, GameObject&amp;gt;" style="text;strokeColor=none;fillColor=none;align=left;verticalAlign=top;spacingLeft=4;spacingRight=4;overflow=hidden;rotatable=0;points=[[0,0.5],[1,0.5]];portConstraint=eastwest;whiteSpace=wrap;html=1;fontColor=#FFFFFF;" parent="YfnxBZkM-dtaLULD4a4c-47" vertex="1">
          <mxGeometry y="130" width="420" height="26" as="geometry" />
        </mxCell>
        <mxCell id="YfnxBZkM-dtaLULD4a4c-50" value="" style="line;strokeWidth=1;fillColor=none;align=left;verticalAlign=middle;spacingTop=-1;spacingLeft=3;spacingRight=3;rotatable=0;labelPosition=right;points=[];portConstraint=eastwest;strokeColor=inherit;fontColor=#FFFFFF;" parent="YfnxBZkM-dtaLULD4a4c-47" vertex="1">
          <mxGeometry y="156" width="420" height="8" as="geometry" />
        </mxCell>
        <mxCell id="YfnxBZkM-dtaLULD4a4c-51" value="- ListenerForData(): void" style="text;strokeColor=none;fillColor=none;align=left;verticalAlign=top;spacingLeft=4;spacingRight=4;overflow=hidden;rotatable=0;points=[[0,0.5],[1,0.5]];portConstraint=eastwest;whiteSpace=wrap;html=1;fontColor=#FFFFFF;" parent="YfnxBZkM-dtaLULD4a4c-47" vertex="1">
          <mxGeometry y="164" width="420" height="26" as="geometry" />
        </mxCell>
        <mxCell id="YfnxBZkM-dtaLULD4a4c-52" value="- CreateSensor(): void" style="text;align=left;verticalAlign=top;spacingLeft=4;spacingRight=4;overflow=hidden;rotatable=0;points=[[0,0.5],[1,0.5]];portConstraint=eastwest;whiteSpace=wrap;html=1;fontColor=#FFFFFF;" parent="YfnxBZkM-dtaLULD4a4c-47" vertex="1">
          <mxGeometry y="190" width="420" height="26" as="geometry" />
        </mxCell>
        <mxCell id="YfnxBZkM-dtaLULD4a4c-53" value="- UpdateSensor(): void" style="text;strokeColor=none;fillColor=none;align=left;verticalAlign=top;spacingLeft=4;spacingRight=4;overflow=hidden;rotatable=0;points=[[0,0.5],[1,0.5]];portConstraint=eastwest;whiteSpace=wrap;html=1;fontColor=#FFFFFF;" parent="YfnxBZkM-dtaLULD4a4c-47" vertex="1">
          <mxGeometry y="216" width="420" height="26" as="geometry" />
        </mxCell>
        <mxCell id="YfnxBZkM-dtaLULD4a4c-69" value="SensorControl" style="swimlane;fontStyle=1;align=center;verticalAlign=top;childLayout=stackLayout;horizontal=1;startSize=26;horizontalStack=0;resizeParent=1;resizeParentMax=0;resizeLast=0;collapsible=1;marginBottom=0;whiteSpace=wrap;html=1;fillColor=#e3c800;fillStyle=auto;glass=0;rounded=0;swimlaneLine=1;labelBackgroundColor=none;fontColor=#000000;strokeColor=#B09500;" parent="1" vertex="1">
          <mxGeometry x="-2040" y="388" width="420" height="242" as="geometry" />
        </mxCell>
        <mxCell id="YfnxBZkM-dtaLULD4a4c-213" value="- fieldsCreated: Dictionary&amp;lt;string, TextMeshProUGUI" style="text;strokeColor=none;fillColor=none;align=left;verticalAlign=top;spacingLeft=4;spacingRight=4;overflow=hidden;rotatable=0;points=[[0,0.5],[1,0.5]];portConstraint=eastwest;whiteSpace=wrap;html=1;fontColor=#FFFFFF;" parent="YfnxBZkM-dtaLULD4a4c-69" vertex="1">
          <mxGeometry y="26" width="420" height="26" as="geometry" />
        </mxCell>
        <mxCell id="YfnxBZkM-dtaLULD4a4c-214" value="- heightDecrease: float" style="text;strokeColor=none;fillColor=none;align=left;verticalAlign=top;spacingLeft=4;spacingRight=4;overflow=hidden;rotatable=0;points=[[0,0.5],[1,0.5]];portConstraint=eastwest;whiteSpace=wrap;html=1;fontColor=#FFFFFF;" parent="YfnxBZkM-dtaLULD4a4c-69" vertex="1">
          <mxGeometry y="52" width="420" height="26" as="geometry" />
        </mxCell>
        <mxCell id="YfnxBZkM-dtaLULD4a4c-71" value="+ fieldPrefab: GameObject" style="text;strokeColor=none;fillColor=none;align=left;verticalAlign=top;spacingLeft=4;spacingRight=4;overflow=hidden;rotatable=0;points=[[0,0.5],[1,0.5]];portConstraint=eastwest;whiteSpace=wrap;html=1;fontColor=#FFFFFF;" parent="YfnxBZkM-dtaLULD4a4c-69" vertex="1">
          <mxGeometry y="78" width="420" height="26" as="geometry" />
        </mxCell>
        <mxCell id="YfnxBZkM-dtaLULD4a4c-74" value="+ title: TextMeshProUGUI" style="text;strokeColor=none;fillColor=none;align=left;verticalAlign=top;spacingLeft=4;spacingRight=4;overflow=hidden;rotatable=0;points=[[0,0.5],[1,0.5]];portConstraint=eastwest;whiteSpace=wrap;html=1;fontColor=#FFFFFF;" parent="YfnxBZkM-dtaLULD4a4c-69" vertex="1">
          <mxGeometry y="104" width="420" height="26" as="geometry" />
        </mxCell>
        <mxCell id="YfnxBZkM-dtaLULD4a4c-212" value="+ locationToCreateFields: GameObject" style="text;strokeColor=none;fillColor=none;align=left;verticalAlign=top;spacingLeft=4;spacingRight=4;overflow=hidden;rotatable=0;points=[[0,0.5],[1,0.5]];portConstraint=eastwest;whiteSpace=wrap;html=1;fontColor=#FFFFFF;" parent="YfnxBZkM-dtaLULD4a4c-69" vertex="1">
          <mxGeometry y="130" width="420" height="26" as="geometry" />
        </mxCell>
        <mxCell id="YfnxBZkM-dtaLULD4a4c-75" value="" style="line;strokeWidth=1;fillColor=none;align=left;verticalAlign=middle;spacingTop=-1;spacingLeft=3;spacingRight=3;rotatable=0;labelPosition=right;points=[];portConstraint=eastwest;strokeColor=inherit;fontColor=#FFFFFF;" parent="YfnxBZkM-dtaLULD4a4c-69" vertex="1">
          <mxGeometry y="156" width="420" height="8" as="geometry" />
        </mxCell>
        <mxCell id="YfnxBZkM-dtaLULD4a4c-76" value="+ CreateFields(): Task" style="text;strokeColor=none;fillColor=none;align=left;verticalAlign=top;spacingLeft=4;spacingRight=4;overflow=hidden;rotatable=0;points=[[0,0.5],[1,0.5]];portConstraint=eastwest;whiteSpace=wrap;html=1;fontColor=#FFFFFF;" parent="YfnxBZkM-dtaLULD4a4c-69" vertex="1">
          <mxGeometry y="164" width="420" height="26" as="geometry" />
        </mxCell>
        <mxCell id="YfnxBZkM-dtaLULD4a4c-77" value="+ CreateField(): Task" style="text;align=left;verticalAlign=top;spacingLeft=4;spacingRight=4;overflow=hidden;rotatable=0;points=[[0,0.5],[1,0.5]];portConstraint=eastwest;whiteSpace=wrap;html=1;fontColor=#FFFFFF;" parent="YfnxBZkM-dtaLULD4a4c-69" vertex="1">
          <mxGeometry y="190" width="420" height="26" as="geometry" />
        </mxCell>
        <mxCell id="YfnxBZkM-dtaLULD4a4c-78" value="+ UpdateFields(): Task" style="text;strokeColor=none;fillColor=none;align=left;verticalAlign=top;spacingLeft=4;spacingRight=4;overflow=hidden;rotatable=0;points=[[0,0.5],[1,0.5]];portConstraint=eastwest;whiteSpace=wrap;html=1;fontColor=#FFFFFF;" parent="YfnxBZkM-dtaLULD4a4c-69" vertex="1">
          <mxGeometry y="216" width="420" height="26" as="geometry" />
        </mxCell>
        <mxCell id="vY6ipT4XKTIDUt76BxjS-67" value="Prefabs" style="rounded=1;whiteSpace=wrap;html=1;verticalAlign=top;align=left;gradientColor=none;strokeColor=none;fontSize=50;fontStyle=3;spacing=50;glass=0;fillColor=#607382;fontColor=#FFFFFF;" parent="1" vertex="1">
          <mxGeometry x="-1540" y="296" width="460" height="500" as="geometry" />
        </mxCell>
        <mxCell id="vY6ipT4XKTIDUt76BxjS-68" value="Sensors" style="rounded=1;whiteSpace=wrap;html=1;verticalAlign=top;align=left;fontSize=20;fontStyle=1;spacing=42;fillColor=#4F5F6B;fillStyle=auto;strokeColor=none;fontColor=#FFFFFF;" parent="1" vertex="1">
          <mxGeometry x="-1510" y="438" width="402.5" height="329" as="geometry" />
        </mxCell>
        <mxCell id="vY6ipT4XKTIDUt76BxjS-79" value="SensorDataCanvas" style="rounded=0;whiteSpace=wrap;html=1;fillColor=#9933FF;fontColor=#ffffff;strokeColor=none;fontSize=20;" parent="1" vertex="1">
          <mxGeometry x="-1490" y="528" width="360" height="90" as="geometry" />
        </mxCell>
        <mxCell id="vY6ipT4XKTIDUt76BxjS-83" value="FeildsToCreate" style="rounded=0;whiteSpace=wrap;html=1;fillColor=#9933FF;fontColor=#ffffff;strokeColor=none;fontSize=20;" parent="1" vertex="1">
          <mxGeometry x="-1490" y="628" width="360" height="90" as="geometry" />
        </mxCell>
        <mxCell id="vY6ipT4XKTIDUt76BxjS-85" value="Object Control" style="rounded=1;whiteSpace=wrap;html=1;verticalAlign=top;align=left;fontSize=20;fontStyle=1;spacing=42;fillColor=#4F5F6B;fillStyle=auto;strokeColor=none;fontColor=#FFFFFF;" parent="1" vertex="1">
          <mxGeometry x="-2060" y="660" width="460" height="564" as="geometry" />
        </mxCell>
        <mxCell id="vY6ipT4XKTIDUt76BxjS-86" value="ObjectData" style="swimlane;fontStyle=1;align=center;verticalAlign=top;childLayout=stackLayout;horizontal=1;startSize=26;horizontalStack=0;resizeParent=1;resizeParentMax=0;resizeLast=0;collapsible=1;marginBottom=0;whiteSpace=wrap;html=1;fillColor=#e3c800;fillStyle=auto;glass=0;rounded=0;swimlaneLine=1;labelBackgroundColor=none;fontColor=#000000;strokeColor=#B09500;" parent="1" vertex="1">
          <mxGeometry x="-2042" y="736" width="420" height="164" as="geometry" />
        </mxCell>
        <mxCell id="vY6ipT4XKTIDUt76BxjS-91" value="+ postionLastSet: Vector3" style="text;strokeColor=none;fillColor=none;align=left;verticalAlign=top;spacingLeft=4;spacingRight=4;overflow=hidden;rotatable=0;points=[[0,0.5],[1,0.5]];portConstraint=eastwest;whiteSpace=wrap;html=1;fontColor=#FFFFFF;" parent="vY6ipT4XKTIDUt76BxjS-86" vertex="1">
          <mxGeometry y="26" width="420" height="26" as="geometry" />
        </mxCell>
        <mxCell id="vY6ipT4XKTIDUt76BxjS-96" value="+ scaleLastSet: Vector3" style="text;strokeColor=none;fillColor=none;align=left;verticalAlign=top;spacingLeft=4;spacingRight=4;overflow=hidden;rotatable=0;points=[[0,0.5],[1,0.5]];portConstraint=eastwest;whiteSpace=wrap;html=1;fontColor=#FFFFFF;" parent="vY6ipT4XKTIDUt76BxjS-86" vertex="1">
          <mxGeometry y="52" width="420" height="26" as="geometry" />
        </mxCell>
        <mxCell id="vY6ipT4XKTIDUt76BxjS-92" value="" style="line;strokeWidth=1;fillColor=none;align=left;verticalAlign=middle;spacingTop=-1;spacingLeft=3;spacingRight=3;rotatable=0;labelPosition=right;points=[];portConstraint=eastwest;strokeColor=inherit;fontColor=#FFFFFF;" parent="vY6ipT4XKTIDUt76BxjS-86" vertex="1">
          <mxGeometry y="78" width="420" height="8" as="geometry" />
        </mxCell>
        <mxCell id="vY6ipT4XKTIDUt76BxjS-103" value="- startArg(): virtual void" style="text;strokeColor=none;fillColor=none;align=left;verticalAlign=top;spacingLeft=4;spacingRight=4;overflow=hidden;rotatable=0;points=[[0,0.5],[1,0.5]];portConstraint=eastwest;whiteSpace=wrap;html=1;fontColor=#FFFFFF;" parent="vY6ipT4XKTIDUt76BxjS-86" vertex="1">
          <mxGeometry y="86" width="420" height="26" as="geometry" />
        </mxCell>
        <mxCell id="vY6ipT4XKTIDUt76BxjS-95" value="+ SetPositionAndScale(): virtual void" style="text;strokeColor=none;fillColor=none;align=left;verticalAlign=top;spacingLeft=4;spacingRight=4;overflow=hidden;rotatable=0;points=[[0,0.5],[1,0.5]];portConstraint=eastwest;whiteSpace=wrap;html=1;fontColor=#FFFFFF;" parent="vY6ipT4XKTIDUt76BxjS-86" vertex="1">
          <mxGeometry y="112" width="420" height="26" as="geometry" />
        </mxCell>
        <mxCell id="vY6ipT4XKTIDUt76BxjS-102" value="+ ResetPosition(): virtual void" style="text;strokeColor=none;fillColor=none;align=left;verticalAlign=top;spacingLeft=4;spacingRight=4;overflow=hidden;rotatable=0;points=[[0,0.5],[1,0.5]];portConstraint=eastwest;whiteSpace=wrap;html=1;fontColor=#FFFFFF;" parent="vY6ipT4XKTIDUt76BxjS-86" vertex="1">
          <mxGeometry y="138" width="420" height="26" as="geometry" />
        </mxCell>
        <mxCell id="vY6ipT4XKTIDUt76BxjS-104" value="ObjectData_Tracking" style="swimlane;fontStyle=1;align=center;verticalAlign=top;childLayout=stackLayout;horizontal=1;startSize=26;horizontalStack=0;resizeParent=1;resizeParentMax=0;resizeLast=0;collapsible=1;marginBottom=0;whiteSpace=wrap;html=1;fillColor=#e3c800;fillStyle=auto;glass=0;rounded=0;swimlaneLine=1;labelBackgroundColor=none;fontColor=#000000;strokeColor=#B09500;" parent="1" vertex="1">
          <mxGeometry x="-2040" y="932" width="420" height="112" as="geometry" />
        </mxCell>
        <mxCell id="vY6ipT4XKTIDUt76BxjS-105" value="+ target: GameObject" style="text;strokeColor=none;fillColor=none;align=left;verticalAlign=top;spacingLeft=4;spacingRight=4;overflow=hidden;rotatable=0;points=[[0,0.5],[1,0.5]];portConstraint=eastwest;whiteSpace=wrap;html=1;fontColor=#FFFFFF;" parent="vY6ipT4XKTIDUt76BxjS-104" vertex="1">
          <mxGeometry y="26" width="420" height="26" as="geometry" />
        </mxCell>
        <mxCell id="vY6ipT4XKTIDUt76BxjS-106" value="+ track: bool" style="text;strokeColor=none;fillColor=none;align=left;verticalAlign=top;spacingLeft=4;spacingRight=4;overflow=hidden;rotatable=0;points=[[0,0.5],[1,0.5]];portConstraint=eastwest;whiteSpace=wrap;html=1;fontColor=#FFFFFF;" parent="vY6ipT4XKTIDUt76BxjS-104" vertex="1">
          <mxGeometry y="52" width="420" height="26" as="geometry" />
        </mxCell>
        <mxCell id="vY6ipT4XKTIDUt76BxjS-107" value="" style="line;strokeWidth=1;fillColor=none;align=left;verticalAlign=middle;spacingTop=-1;spacingLeft=3;spacingRight=3;rotatable=0;labelPosition=right;points=[];portConstraint=eastwest;strokeColor=inherit;fontColor=#FFFFFF;" parent="vY6ipT4XKTIDUt76BxjS-104" vertex="1">
          <mxGeometry y="78" width="420" height="8" as="geometry" />
        </mxCell>
        <mxCell id="vY6ipT4XKTIDUt76BxjS-108" value="+ TrackTarget(): void" style="text;strokeColor=none;fillColor=none;align=left;verticalAlign=top;spacingLeft=4;spacingRight=4;overflow=hidden;rotatable=0;points=[[0,0.5],[1,0.5]];portConstraint=eastwest;whiteSpace=wrap;html=1;fontColor=#FFFFFF;" parent="vY6ipT4XKTIDUt76BxjS-104" vertex="1">
          <mxGeometry y="86" width="420" height="26" as="geometry" />
        </mxCell>
        <mxCell id="vY6ipT4XKTIDUt76BxjS-111" value="ObjectData_Canvas" style="swimlane;fontStyle=1;align=center;verticalAlign=top;childLayout=stackLayout;horizontal=1;startSize=26;horizontalStack=0;resizeParent=1;resizeParentMax=0;resizeLast=0;collapsible=1;marginBottom=0;whiteSpace=wrap;html=1;fillColor=#e3c800;fillStyle=auto;glass=0;rounded=0;swimlaneLine=1;labelBackgroundColor=none;fontColor=#000000;strokeColor=#B09500;" parent="1" vertex="1">
          <mxGeometry x="-2042" y="1076" width="420" height="112" as="geometry" />
        </mxCell>
        <mxCell id="vY6ipT4XKTIDUt76BxjS-112" value="+ target: GameObject" style="text;strokeColor=none;fillColor=none;align=left;verticalAlign=top;spacingLeft=4;spacingRight=4;overflow=hidden;rotatable=0;points=[[0,0.5],[1,0.5]];portConstraint=eastwest;whiteSpace=wrap;html=1;fontColor=#FFFFFF;" parent="vY6ipT4XKTIDUt76BxjS-111" vertex="1">
          <mxGeometry y="26" width="420" height="26" as="geometry" />
        </mxCell>
        <mxCell id="vY6ipT4XKTIDUt76BxjS-113" value="+ track: bool" style="text;strokeColor=none;fillColor=none;align=left;verticalAlign=top;spacingLeft=4;spacingRight=4;overflow=hidden;rotatable=0;points=[[0,0.5],[1,0.5]];portConstraint=eastwest;whiteSpace=wrap;html=1;fontColor=#FFFFFF;" parent="vY6ipT4XKTIDUt76BxjS-111" vertex="1">
          <mxGeometry y="52" width="420" height="26" as="geometry" />
        </mxCell>
        <mxCell id="vY6ipT4XKTIDUt76BxjS-114" value="" style="line;strokeWidth=1;fillColor=none;align=left;verticalAlign=middle;spacingTop=-1;spacingLeft=3;spacingRight=3;rotatable=0;labelPosition=right;points=[];portConstraint=eastwest;strokeColor=inherit;fontColor=#FFFFFF;" parent="vY6ipT4XKTIDUt76BxjS-111" vertex="1">
          <mxGeometry y="78" width="420" height="8" as="geometry" />
        </mxCell>
        <mxCell id="vY6ipT4XKTIDUt76BxjS-115" value="+ TrackTarget(): void" style="text;strokeColor=none;fillColor=none;align=left;verticalAlign=top;spacingLeft=4;spacingRight=4;overflow=hidden;rotatable=0;points=[[0,0.5],[1,0.5]];portConstraint=eastwest;whiteSpace=wrap;html=1;fontColor=#FFFFFF;" parent="vY6ipT4XKTIDUt76BxjS-111" vertex="1">
          <mxGeometry y="86" width="420" height="26" as="geometry" />
        </mxCell>
        <mxCell id="vY6ipT4XKTIDUt76BxjS-118" value="abstract class" style="rounded=1;whiteSpace=wrap;html=1;fillColor=#0050ef;strokeColor=#001DBC;align=left;fontSize=50;spacingLeft=30;fontColor=#ffffff;" parent="1" vertex="1">
          <mxGeometry x="1486.5" y="-84" width="737" height="109" as="geometry" />
        </mxCell>
        <mxCell id="vY6ipT4XKTIDUt76BxjS-119" value="" style="endArrow=classic;startArrow=classic;html=1;rounded=0;exitX=1;exitY=0.5;exitDx=0;exitDy=0;entryX=0;entryY=0.5;entryDx=0;entryDy=0;" parent="1" source="YfnxBZkM-dtaLULD4a4c-176" target="ed8AZ3-YZBsXWsMalY9c-185" edge="1">
          <mxGeometry width="50" height="50" relative="1" as="geometry">
            <mxPoint x="1090" y="1980" as="sourcePoint" />
            <mxPoint x="1140" y="1930" as="targetPoint" />
            <Array as="points">
              <mxPoint x="1220" y="2075" />
              <mxPoint x="1227" y="1976" />
              <mxPoint x="2044" y="1976" />
              <mxPoint x="2044" y="1749" />
            </Array>
          </mxGeometry>
        </mxCell>
        <mxCell id="vY6ipT4XKTIDUt76BxjS-120" value="" style="endArrow=classic;startArrow=classic;html=1;rounded=0;exitX=0.75;exitY=0;exitDx=0;exitDy=0;entryX=0;entryY=0.5;entryDx=0;entryDy=0;" parent="1" source="YfnxBZkM-dtaLULD4a4c-136" target="ed8AZ3-YZBsXWsMalY9c-29" edge="1">
          <mxGeometry width="50" height="50" relative="1" as="geometry">
            <mxPoint x="630" y="1570" as="sourcePoint" />
            <mxPoint x="680" y="1520" as="targetPoint" />
            <Array as="points">
              <mxPoint x="135" y="1340" />
              <mxPoint x="1180" y="1340" />
              <mxPoint x="1180" y="840" />
            </Array>
          </mxGeometry>
        </mxCell>
        <mxCell id="vY6ipT4XKTIDUt76BxjS-121" value="" style="endArrow=diamondThin;endFill=0;endSize=24;html=1;rounded=0;entryX=0.5;entryY=0;entryDx=0;entryDy=0;exitX=1;exitY=0.5;exitDx=0;exitDy=0;" parent="1" source="YfnxBZkM-dtaLULD4a4c-225" target="YfnxBZkM-dtaLULD4a4c-145" edge="1">
          <mxGeometry width="160" relative="1" as="geometry">
            <mxPoint x="-80" y="1310" as="sourcePoint" />
            <mxPoint x="80" y="1310" as="targetPoint" />
            <Array as="points">
              <mxPoint x="550" y="1113" />
            </Array>
          </mxGeometry>
        </mxCell>
        <mxCell id="vY6ipT4XKTIDUt76BxjS-123" value="" style="endArrow=classic;startArrow=classic;html=1;rounded=0;entryX=1;entryY=0.5;entryDx=0;entryDy=0;exitX=1;exitY=0.5;exitDx=0;exitDy=0;" parent="1" source="YfnxBZkM-dtaLULD4a4c-82" target="YfnxBZkM-dtaLULD4a4c-10" edge="1">
          <mxGeometry width="50" height="50" relative="1" as="geometry">
            <mxPoint x="-120" y="960" as="sourcePoint" />
            <mxPoint x="-70" y="910" as="targetPoint" />
            <Array as="points">
              <mxPoint x="-300" y="1200" />
              <mxPoint x="-300" y="680" />
              <mxPoint x="960" y="680" />
              <mxPoint x="960" y="130" />
            </Array>
          </mxGeometry>
        </mxCell>
        <mxCell id="vY6ipT4XKTIDUt76BxjS-124" value="" style="endArrow=classic;startArrow=classic;html=1;rounded=0;entryX=1;entryY=0.5;entryDx=0;entryDy=0;exitX=1;exitY=0.5;exitDx=0;exitDy=0;" parent="1" source="YfnxBZkM-dtaLULD4a4c-94" target="YfnxBZkM-dtaLULD4a4c-11" edge="1">
          <mxGeometry width="50" height="50" relative="1" as="geometry">
            <mxPoint x="90" y="940" as="sourcePoint" />
            <mxPoint x="140" y="890" as="targetPoint" />
            <Array as="points">
              <mxPoint x="-330" y="1376" />
              <mxPoint x="-330" y="660" />
              <mxPoint x="940" y="660" />
              <mxPoint x="940" y="156" />
            </Array>
          </mxGeometry>
        </mxCell>
        <mxCell id="vY6ipT4XKTIDUt76BxjS-125" value="" style="endArrow=diamondThin;endFill=0;endSize=24;html=1;rounded=0;entryX=0;entryY=0.5;entryDx=0;entryDy=0;exitX=1;exitY=0.5;exitDx=0;exitDy=0;" parent="1" source="YfnxBZkM-dtaLULD4a4c-83" target="YfnxBZkM-dtaLULD4a4c-137" edge="1">
          <mxGeometry width="160" relative="1" as="geometry">
            <mxPoint x="-310" y="1250" as="sourcePoint" />
            <mxPoint x="-150" y="1250" as="targetPoint" />
            <Array as="points">
              <mxPoint x="-300" y="1226" />
              <mxPoint x="-300" y="1410" />
            </Array>
          </mxGeometry>
        </mxCell>
        <mxCell id="vY6ipT4XKTIDUt76BxjS-126" value="" style="endArrow=diamondThin;endFill=0;endSize=24;html=1;rounded=0;entryX=0;entryY=0.5;entryDx=0;entryDy=0;exitX=1;exitY=0.5;exitDx=0;exitDy=0;" parent="1" source="YfnxBZkM-dtaLULD4a4c-91" target="YfnxBZkM-dtaLULD4a4c-217" edge="1">
          <mxGeometry width="160" relative="1" as="geometry">
            <mxPoint x="-250" y="1250" as="sourcePoint" />
            <mxPoint x="-90" y="1250" as="targetPoint" />
            <Array as="points">
              <mxPoint x="-230" y="1250" />
              <mxPoint x="-230" y="845" />
            </Array>
          </mxGeometry>
        </mxCell>
        <mxCell id="vY6ipT4XKTIDUt76BxjS-127" value="" style="endArrow=diamondThin;endFill=0;endSize=24;html=1;rounded=0;entryX=0;entryY=0.5;entryDx=0;entryDy=0;exitX=1;exitY=0.5;exitDx=0;exitDy=0;" parent="1" source="YfnxBZkM-dtaLULD4a4c-95" target="YfnxBZkM-dtaLULD4a4c-185" edge="1">
          <mxGeometry width="160" relative="1" as="geometry">
            <mxPoint x="-190" y="1280" as="sourcePoint" />
            <mxPoint x="-30" y="1280" as="targetPoint" />
            <Array as="points">
              <mxPoint x="-330" y="1400" />
              <mxPoint x="-330" y="1643" />
            </Array>
          </mxGeometry>
        </mxCell>
        <mxCell id="vY6ipT4XKTIDUt76BxjS-128" value="" style="endArrow=diamondThin;endFill=0;endSize=24;html=1;rounded=0;exitX=1;exitY=0.5;exitDx=0;exitDy=0;entryX=0;entryY=0.5;entryDx=0;entryDy=0;" parent="1" source="YfnxBZkM-dtaLULD4a4c-93" target="YfnxBZkM-dtaLULD4a4c-220" edge="1">
          <mxGeometry width="160" relative="1" as="geometry">
            <mxPoint x="-170" y="1270" as="sourcePoint" />
            <mxPoint x="-10" y="1270" as="targetPoint" />
            <Array as="points">
              <mxPoint x="-210" y="1350" />
              <mxPoint x="-210" y="871" />
            </Array>
          </mxGeometry>
        </mxCell>
        <mxCell id="vY6ipT4XKTIDUt76BxjS-129" value="" style="endArrow=diamondThin;endFill=0;endSize=24;html=1;rounded=0;entryX=0;entryY=0.5;entryDx=0;entryDy=0;exitX=1;exitY=0.5;exitDx=0;exitDy=0;" parent="1" source="YfnxBZkM-dtaLULD4a4c-108" target="YfnxBZkM-dtaLULD4a4c-170" edge="1">
          <mxGeometry width="160" relative="1" as="geometry">
            <mxPoint x="-330" y="1840" as="sourcePoint" />
            <mxPoint x="-170" y="1840" as="targetPoint" />
            <Array as="points">
              <mxPoint x="-460" y="1710" />
              <mxPoint x="-460" y="1989" />
            </Array>
          </mxGeometry>
        </mxCell>
        <mxCell id="vY6ipT4XKTIDUt76BxjS-130" value="" style="endArrow=diamondThin;endFill=0;endSize=24;html=1;rounded=0;exitX=1;exitY=0.5;exitDx=0;exitDy=0;entryX=0;entryY=0.5;entryDx=0;entryDy=0;" parent="1" source="YfnxBZkM-dtaLULD4a4c-100" target="YfnxBZkM-dtaLULD4a4c-206" edge="1">
          <mxGeometry width="160" relative="1" as="geometry">
            <mxPoint x="-300" y="1690" as="sourcePoint" />
            <mxPoint x="-140" y="1690" as="targetPoint" />
            <Array as="points">
              <mxPoint x="-400" y="1530" />
              <mxPoint x="-400" y="1887" />
            </Array>
          </mxGeometry>
        </mxCell>
        <mxCell id="vY6ipT4XKTIDUt76BxjS-131" value="" style="endArrow=diamondThin;endFill=0;endSize=24;html=1;rounded=0;entryX=0.75;entryY=0;entryDx=0;entryDy=0;exitX=1;exitY=0.5;exitDx=0;exitDy=0;" parent="1" source="YfnxBZkM-dtaLULD4a4c-48" target="YfnxBZkM-dtaLULD4a4c-112" edge="1">
          <mxGeometry width="160" relative="1" as="geometry">
            <mxPoint x="-650" y="960" as="sourcePoint" />
            <mxPoint x="-490" y="960" as="targetPoint" />
            <Array as="points">
              <mxPoint x="-440" y="477" />
              <mxPoint x="-440" y="1109" />
              <mxPoint x="-1115" y="1109" />
            </Array>
          </mxGeometry>
        </mxCell>
        <mxCell id="vY6ipT4XKTIDUt76BxjS-132" value="" style="endArrow=diamondThin;endFill=0;endSize=24;html=1;rounded=0;entryX=1;entryY=0.5;entryDx=0;entryDy=0;exitX=0;exitY=0.5;exitDx=0;exitDy=0;" parent="1" source="YfnxBZkM-dtaLULD4a4c-48" target="vY6ipT4XKTIDUt76BxjS-79" edge="1">
          <mxGeometry width="160" relative="1" as="geometry">
            <mxPoint x="-1140" y="690" as="sourcePoint" />
            <mxPoint x="-980" y="690" as="targetPoint" />
            <Array as="points">
              <mxPoint x="-1070" y="477" />
              <mxPoint x="-1070" y="570" />
            </Array>
          </mxGeometry>
        </mxCell>
        <mxCell id="vY6ipT4XKTIDUt76BxjS-134" value="" style="endArrow=diamondThin;endFill=0;endSize=24;html=1;rounded=0;entryX=1;entryY=0.5;entryDx=0;entryDy=0;exitX=0;exitY=0.5;exitDx=0;exitDy=0;" parent="1" source="YfnxBZkM-dtaLULD4a4c-138" target="ed8AZ3-YZBsXWsMalY9c-8" edge="1">
          <mxGeometry width="160" relative="1" as="geometry">
            <mxPoint x="-470" y="1720" as="sourcePoint" />
            <mxPoint x="-310" y="1720" as="targetPoint" />
            <Array as="points">
              <mxPoint x="-300" y="1435" />
              <mxPoint x="-300" y="2070" />
            </Array>
          </mxGeometry>
        </mxCell>
        <mxCell id="vY6ipT4XKTIDUt76BxjS-135" value="" style="endArrow=diamondThin;endFill=0;endSize=24;html=1;rounded=0;entryX=1;entryY=0.5;entryDx=0;entryDy=0;exitX=0;exitY=0.5;exitDx=0;exitDy=0;" parent="1" source="YfnxBZkM-dtaLULD4a4c-171" target="ed8AZ3-YZBsXWsMalY9c-9" edge="1">
          <mxGeometry width="160" relative="1" as="geometry">
            <mxPoint x="-470" y="1720" as="sourcePoint" />
            <mxPoint x="-310" y="1720" as="targetPoint" />
            <Array as="points">
              <mxPoint x="-270" y="2015" />
              <mxPoint x="-270" y="2093" />
            </Array>
          </mxGeometry>
        </mxCell>
        <mxCell id="vY6ipT4XKTIDUt76BxjS-136" value="" style="endArrow=diamondThin;endFill=0;endSize=24;html=1;rounded=0;entryX=1;entryY=0.5;entryDx=0;entryDy=0;exitX=0;exitY=0.25;exitDx=0;exitDy=0;" parent="1" source="vY6ipT4XKTIDUt76BxjS-79" target="YfnxBZkM-dtaLULD4a4c-213" edge="1">
          <mxGeometry width="160" relative="1" as="geometry">
            <mxPoint x="-1800" y="760" as="sourcePoint" />
            <mxPoint x="-1640" y="760" as="targetPoint" />
            <Array as="points">
              <mxPoint x="-1550" y="551" />
              <mxPoint x="-1550" y="427" />
            </Array>
          </mxGeometry>
        </mxCell>
        <mxCell id="vY6ipT4XKTIDUt76BxjS-139" value="" style="endArrow=diamondThin;endFill=0;endSize=24;html=1;rounded=0;entryX=1;entryY=0.5;entryDx=0;entryDy=0;exitX=0;exitY=0.5;exitDx=0;exitDy=0;" parent="1" source="vY6ipT4XKTIDUt76BxjS-79" target="vY6ipT4XKTIDUt76BxjS-112" edge="1">
          <mxGeometry width="160" relative="1" as="geometry">
            <mxPoint x="-1700" y="810" as="sourcePoint" />
            <mxPoint x="-1540" y="810" as="targetPoint" />
            <Array as="points">
              <mxPoint x="-1550" y="573" />
              <mxPoint x="-1550" y="1117" />
            </Array>
          </mxGeometry>
        </mxCell>
        <mxCell id="vY6ipT4XKTIDUt76BxjS-141" value="JsonBuildTask" style="swimlane;fontStyle=1;align=center;verticalAlign=top;childLayout=stackLayout;horizontal=1;startSize=26;horizontalStack=0;resizeParent=1;resizeParentMax=0;resizeLast=0;collapsible=1;marginBottom=0;whiteSpace=wrap;html=1;fillColor=#008a00;fillStyle=auto;glass=0;rounded=0;swimlaneLine=1;labelBackgroundColor=none;fontColor=#ffffff;strokeColor=#005700;" parent="1" vertex="1">
          <mxGeometry x="-2042" y="1308" width="420" height="60" as="geometry" />
        </mxCell>
        <mxCell id="vY6ipT4XKTIDUt76BxjS-144" value="" style="line;strokeWidth=1;fillColor=none;align=left;verticalAlign=middle;spacingTop=-1;spacingLeft=3;spacingRight=3;rotatable=0;labelPosition=right;points=[];portConstraint=eastwest;strokeColor=inherit;fontColor=#FFFFFF;" parent="vY6ipT4XKTIDUt76BxjS-141" vertex="1">
          <mxGeometry y="26" width="420" height="8" as="geometry" />
        </mxCell>
        <mxCell id="vY6ipT4XKTIDUt76BxjS-145" value="+ BuildTask(): static Dictionary&amp;lt;string, List&amp;lt;T&amp;gt;&amp;gt;" style="text;strokeColor=none;fillColor=none;align=left;verticalAlign=top;spacingLeft=4;spacingRight=4;overflow=hidden;rotatable=0;points=[[0,0.5],[1,0.5]];portConstraint=eastwest;whiteSpace=wrap;html=1;fontColor=#FFFFFF;" parent="vY6ipT4XKTIDUt76BxjS-141" vertex="1">
          <mxGeometry y="34" width="420" height="26" as="geometry" />
        </mxCell>
        <mxCell id="vY6ipT4XKTIDUt76BxjS-146" value="" style="endArrow=classic;html=1;rounded=0;exitX=1;exitY=0.25;exitDx=0;exitDy=0;entryX=0;entryY=0.5;entryDx=0;entryDy=0;" parent="1" source="vY6ipT4XKTIDUt76BxjS-141" target="YfnxBZkM-dtaLULD4a4c-139" edge="1">
          <mxGeometry width="50" height="50" relative="1" as="geometry">
            <mxPoint x="-1481" y="1453" as="sourcePoint" />
            <mxPoint x="-1431" y="1403" as="targetPoint" />
            <Array as="points">
              <mxPoint x="-1493" y="1323" />
              <mxPoint x="-1496" y="2236" />
              <mxPoint x="-386" y="2236" />
              <mxPoint x="-376" y="1461" />
            </Array>
          </mxGeometry>
        </mxCell>
        <mxCell id="vY6ipT4XKTIDUt76BxjS-147" value="" style="endArrow=classic;html=1;rounded=0;exitX=1;exitY=0.5;exitDx=0;exitDy=0;entryX=0;entryY=0.5;entryDx=0;entryDy=0;" parent="1" source="vY6ipT4XKTIDUt76BxjS-145" target="YfnxBZkM-dtaLULD4a4c-189" edge="1">
          <mxGeometry width="50" height="50" relative="1" as="geometry">
            <mxPoint x="-1552" y="1843" as="sourcePoint" />
            <mxPoint x="-1502" y="1793" as="targetPoint" />
            <Array as="points">
              <mxPoint x="-1536" y="1355" />
              <mxPoint x="-1539" y="2269" />
              <mxPoint x="-320" y="2269" />
              <mxPoint x="-320" y="1669" />
            </Array>
          </mxGeometry>
        </mxCell>
        <mxCell id="vY6ipT4XKTIDUt76BxjS-148" value="" style="endArrow=classic;html=1;rounded=0;exitX=1;exitY=0.5;exitDx=0;exitDy=0;entryX=0;entryY=0.5;entryDx=0;entryDy=0;" parent="1" source="YfnxBZkM-dtaLULD4a4c-163" target="YfnxBZkM-dtaLULD4a4c-142" edge="1">
          <mxGeometry width="50" height="50" relative="1" as="geometry">
            <mxPoint x="-803" y="1583" as="sourcePoint" />
            <mxPoint x="-753" y="1533" as="targetPoint" />
            <Array as="points">
              <mxPoint x="-1570" y="1443" />
              <mxPoint x="-1570" y="2298" />
              <mxPoint x="-281" y="2298" />
              <mxPoint x="-281" y="1487" />
            </Array>
          </mxGeometry>
        </mxCell>
        <mxCell id="vY6ipT4XKTIDUt76BxjS-149" value="" style="endArrow=classic;html=1;rounded=0;exitX=1;exitY=0.5;exitDx=0;exitDy=0;entryX=0;entryY=0.5;entryDx=0;entryDy=0;" parent="1" source="YfnxBZkM-dtaLULD4a4c-167" target="YfnxBZkM-dtaLULD4a4c-172" edge="1">
          <mxGeometry width="50" height="50" relative="1" as="geometry">
            <mxPoint x="-739" y="1853" as="sourcePoint" />
            <mxPoint x="-689" y="1803" as="targetPoint" />
            <Array as="points">
              <mxPoint x="-1588" y="1469" />
              <mxPoint x="-1594" y="2319" />
              <mxPoint x="-230" y="2319" />
              <mxPoint x="-230" y="2041" />
            </Array>
          </mxGeometry>
        </mxCell>
        <mxCell id="vY6ipT4XKTIDUt76BxjS-155" value="" style="endArrow=diamondThin;endFill=0;endSize=24;html=1;rounded=0;entryX=1;entryY=0;entryDx=0;entryDy=0;exitX=0;exitY=0;exitDx=0;exitDy=0;" parent="1" source="YfnxBZkM-dtaLULD4a4c-47" target="YfnxBZkM-dtaLULD4a4c-69" edge="1">
          <mxGeometry width="160" relative="1" as="geometry">
            <mxPoint x="-1132" y="480" as="sourcePoint" />
            <mxPoint x="-972" y="480" as="targetPoint" />
            <Array as="points">
              <mxPoint x="-1077" y="438" />
              <mxPoint x="-1079" y="290" />
              <mxPoint x="-1544" y="290" />
              <mxPoint x="-1544" y="388" />
            </Array>
          </mxGeometry>
        </mxCell>
        <mxCell id="vY6ipT4XKTIDUt76BxjS-156" value="" style="endArrow=classic;html=1;rounded=0;entryX=1;entryY=0;entryDx=0;entryDy=0;exitX=0;exitY=0.5;exitDx=0;exitDy=0;" parent="1" source="YfnxBZkM-dtaLULD4a4c-26" target="YfnxBZkM-dtaLULD4a4c-47" edge="1">
          <mxGeometry width="50" height="50" relative="1" as="geometry">
            <mxPoint x="-279" y="619" as="sourcePoint" />
            <mxPoint x="-229" y="569" as="targetPoint" />
            <Array as="points">
              <mxPoint x="-288" y="249" />
              <mxPoint x="-288" y="438" />
            </Array>
          </mxGeometry>
        </mxCell>
        <mxCell id="vY6ipT4XKTIDUt76BxjS-157" value="" style="endArrow=classic;html=1;rounded=0;entryX=0.75;entryY=0;entryDx=0;entryDy=0;exitX=0;exitY=0.5;exitDx=0;exitDy=0;" parent="1" source="YfnxBZkM-dtaLULD4a4c-28" target="YfnxBZkM-dtaLULD4a4c-47" edge="1">
          <mxGeometry width="50" height="50" relative="1" as="geometry">
            <mxPoint x="-279" y="619" as="sourcePoint" />
            <mxPoint x="-229" y="569" as="targetPoint" />
            <Array as="points">
              <mxPoint x="-324" y="70" />
              <mxPoint x="-324" y="398" />
              <mxPoint x="-642" y="398" />
            </Array>
          </mxGeometry>
        </mxCell>
        <mxCell id="lKAB5qA0UIbiMeLiL2pj-1" value="not coded" style="rounded=1;whiteSpace=wrap;html=1;fillColor=#9933FF;strokeColor=#001DBC;align=left;fontSize=50;spacingLeft=30;fontColor=#ffffff;" vertex="1" parent="1">
          <mxGeometry x="1495" y="51" width="737" height="109" as="geometry" />
        </mxCell>
        <mxCell id="lKAB5qA0UIbiMeLiL2pj-4" value="" style="endArrow=diamondThin;endFill=0;endSize=24;html=1;rounded=0;entryX=0;entryY=0.25;entryDx=0;entryDy=0;exitX=1;exitY=0.5;exitDx=0;exitDy=0;" edge="1" parent="1" source="YfnxBZkM-dtaLULD4a4c-214" target="vY6ipT4XKTIDUt76BxjS-83">
          <mxGeometry width="160" relative="1" as="geometry">
            <mxPoint x="-1466" y="591" as="sourcePoint" />
            <mxPoint x="-1306" y="591" as="targetPoint" />
            <Array as="points">
              <mxPoint x="-1580" y="453" />
              <mxPoint x="-1580" y="651" />
            </Array>
          </mxGeometry>
        </mxCell>
        <mxCell id="lKAB5qA0UIbiMeLiL2pj-10" value="Inherits" style="endArrow=diamondThin;endFill=1;endSize=24;html=1;rounded=0;fontColor=default;labelBackgroundColor=none;fontSize=40;" edge="1" parent="1">
          <mxGeometry width="160" relative="1" as="geometry">
            <mxPoint x="1526.83" y="-123" as="sourcePoint" />
            <mxPoint x="2200.1633333333334" y="-123" as="targetPoint" />
          </mxGeometry>
        </mxCell>
        <mxCell id="lKAB5qA0UIbiMeLiL2pj-13" value="" style="endArrow=diamondThin;endFill=1;endSize=24;html=1;rounded=0;" edge="1" parent="1" source="vY6ipT4XKTIDUt76BxjS-111" target="vY6ipT4XKTIDUt76BxjS-104">
          <mxGeometry width="160" relative="1" as="geometry">
            <mxPoint x="-1906" y="1046" as="sourcePoint" />
            <mxPoint x="-1746" y="1046" as="targetPoint" />
          </mxGeometry>
        </mxCell>
        <mxCell id="lKAB5qA0UIbiMeLiL2pj-14" value="" style="endArrow=diamondThin;endFill=1;endSize=24;html=1;rounded=0;" edge="1" parent="1" source="vY6ipT4XKTIDUt76BxjS-104" target="vY6ipT4XKTIDUt76BxjS-86">
          <mxGeometry width="160" relative="1" as="geometry">
            <mxPoint x="-1906" y="1046" as="sourcePoint" />
            <mxPoint x="-1746" y="1046" as="targetPoint" />
          </mxGeometry>
        </mxCell>
      </root>
    </mxGraphModel>
  </diagram>
</mxfile>
